<?xml version="1.0" encoding="utf-8"?>
<!-- Generator: Adobe Illustrator 15.1.0, SVG Export Plug-In . SVG Version: 6.00 Build 0)  -->
<!DOCTYPE svg PUBLIC "-//W3C//DTD SVG 1.1//EN" "http://www.w3.org/Graphics/SVG/1.1/DTD/svg11.dtd">
<svg version="1.1" id="Layer_1" xmlns="http://www.w3.org/2000/svg" xmlns:xlink="http://www.w3.org/1999/xlink" x="0px" y="0px"
	 width="29.013px" height="28.52px" viewBox="0 0 29.013 28.52" enable-background="new 0 0 29.013 28.52" xml:space="preserve">
<path fill="#FFFFFF" d="M17.367,0C10.946,0,5.722,5.224,5.722,11.645c0,6.422,5.225,11.646,11.646,11.646
	s11.646-5.224,11.646-11.646C29.013,5.224,23.788,0,17.367,0z M17.367,21.291c-5.318,0-9.646-4.327-9.646-9.646S12.049,2,17.367,2
	s9.646,4.327,9.646,9.645S22.686,21.291,17.367,21.291z"/>
<path fill="#FFFFFF" d="M9.635,17.386c-0.384,0-0.769,0.146-1.062,0.439l-8.134,8.134c-0.586,0.586-0.586,1.535,0,2.121
	C0.732,28.374,1.116,28.52,1.5,28.52s0.768-0.146,1.061-0.439l8.134-8.134c0.27-0.269,0.4-0.617,0.422-0.97
	C10.563,18.504,10.069,17.97,9.635,17.386z"/>
</svg>
