<svg id="Layer_1" data-name="Layer 1" xmlns="http://www.w3.org/2000/svg" viewBox="0 0 220.18 215.46"><defs><style>.cls-1{fill:#413e3c;}.cls-2{opacity:0.48;}</style></defs><title>treehouse-logo-dkgrey</title><g id="Layer_1-2" data-name="Layer 1"><path class="cls-1" d="M75.63,124.17h1.21v8H75.63v-8Z" transform="translate(0 0.01)"/><path class="cls-1" d="M79.94,124.17h1.15l3.62,5.69h0v-5.69H86v8H84.81l-3.62-5.69h0v5.69H79.94v-8h0Z" transform="translate(0 0.01)"/><path class="cls-1" d="M89.05,124.17H90.2l3.62,5.69h0v-5.69h1.21v8H93.91l-3.62-5.69h0v5.69H89.05v-8Z" transform="translate(0 0.01)"/><path class="cls-1" d="M98.24,125.54a2.91,2.91,0,0,1,5,0c0.26,0.47.35,0.71,0.35,2.63s-0.09,2.16-.35,2.63a2.91,2.91,0,0,1-5,0c-0.26-.47-0.35-0.71-0.35-2.63S98,126,98.24,125.54Zm1.27,4.9a1.6,1.6,0,0,0,2.47,0c0.31-.4.4-0.63,0.4-2.27s-0.09-1.87-.4-2.27a1.6,1.6,0,0,0-2.47,0c-0.32.4-.4,0.63-0.4,2.27S99.2,130,99.51,130.44Z" transform="translate(0 0.01)"/><path class="cls-1" d="M105.33,124.17h1.28l1.82,6.1h0l1.82-6.1h1.28l-2.64,8H108Z" transform="translate(0 0.01)"/><path class="cls-1" d="M117.32,130.39h-3l-0.62,1.79h-1.28l2.91-8h1l2.91,8h-1.28ZM117,129.31l-1.16-3.5h0l-1.16,3.5H117Z" transform="translate(0 0.01)"/><path class="cls-1" d="M122,125.25h-2.19v-1.08h5.6v1.08h-2.19v6.93H122v-6.93h0Z" transform="translate(0 0.01)"/><path class="cls-1" d="M127.69,124.17h1.22v8h-1.22v-8Z" transform="translate(0 0.01)"/><path class="cls-1" d="M132.09,125.54a2.91,2.91,0,0,1,5,0c0.26,0.47.35,0.71,0.35,2.63s-0.09,2.16-.35,2.63a2.91,2.91,0,0,1-5,0c-0.26-.47-0.35-0.71-0.35-2.63S131.83,126,132.09,125.54Zm1.27,4.9a1.6,1.6,0,0,0,2.48,0c0.31-.4.4-0.63,0.4-2.27s-0.09-1.87-.4-2.27a1.6,1.6,0,0,0-2.48,0c-0.31.4-.4,0.63-0.4,2.27S133,130,133.36,130.44Z" transform="translate(0 0.01)"/><path class="cls-1" d="M140.29,124.17h1.15l3.62,5.69h0v-5.69h1.21v8h-1.15l-3.62-5.69h0v5.69h-1.21v-8h0Z" transform="translate(0 0.01)"/><g class="cls-2"><path class="cls-1" d="M64.3,121.74a49.26,49.26,0,0,1,.64,5.88,41,41,0,0,0,.88,7c0.76,3,3.75,5.18,6.39,7.08,0.49,0.35,1,.69,1.41,1,1.67,1.26,3.36,2.65,5.15,4.12,4.9,4,10,8.19,15.34,10.36a26.59,26.59,0,0,0,10,1.93A28.54,28.54,0,0,0,120.44,154a27.8,27.8,0,0,1,7.43-3.46c3.13-1.08,6.09-2.1,8.88-4.87,3.67-3.65,6.07-8.66,8.39-13.5,1.2-2.49,2.32-4.85,3.6-7,1-1.72,2.1-3.38,3.13-5,3.14-4.86,6.1-9.44,7.68-15.47S157.32,92.93,154,87.84c-1.08-1.63-2.09-3.18-2.93-4.7-4.71-8.53-11.6-14.05-18.42-14.76-3.85-.4-7.92-0.67-12.83-0.84a20.34,20.34,0,0,1-8.69-2.4c-0.69-.31-1.41-0.65-2.21-1a11.91,11.91,0,0,0-4.76-.9,34.91,34.91,0,0,0-5.89.69l-1.52.26c-1.32.22-2.68,0.37-4,.52a39.5,39.5,0,0,0-8.86,1.72C74.72,69.68,68,79.3,66.18,82.17L66,82.51c-4.22,6.59-7.86,12.28-7.86,20.29,0,4.87,1.51,7.78,3.11,10.86A28.19,28.19,0,0,1,64.3,121.74Zm2.05-39,0.22-.34C68.38,79.58,75,70.07,84,66.88a39.17,39.17,0,0,1,8.76-1.69c1.31-.15,2.68-0.31,4-0.52l1.53-.26a34.23,34.23,0,0,1,5.81-.68,11.44,11.44,0,0,1,4.57.86c0.79,0.34,1.51.67,2.2,1A20.62,20.62,0,0,0,119.77,68c4.9,0.17,9,.44,12.8.84,6.67,0.7,13.42,6.13,18.06,14.52,0.85,1.54,1.87,3.09,2.95,4.73,3.46,5.25,7,10.69,5.52,16.48-1.56,6-4.51,10.51-7.62,15.34-1,1.61-2.11,3.27-3.14,5-1.29,2.18-2.43,4.54-3.63,7-2.31,4.81-4.69,9.78-8.3,13.37-2.71,2.69-5.62,3.7-8.7,4.76a28.29,28.29,0,0,0-7.55,3.52,28.08,28.08,0,0,1-16,5.07,26.13,26.13,0,0,1-9.85-1.89c-5.31-2.15-10.35-6.29-15.22-10.29-1.79-1.48-3.48-2.87-5.16-4.13-0.44-.34-0.93-0.68-1.42-1-2.57-1.85-5.49-4-6.21-6.82a40.66,40.66,0,0,1-.87-6.92,49.47,49.47,0,0,0-.65-5.94,28.4,28.4,0,0,0-3.14-8.2c-1.57-3-3.06-5.89-3.06-10.65C58.56,94.93,62.17,89.3,66.35,82.76Z" transform="translate(0 0.01)"/><path class="cls-1" d="M66.8,121.15a46.73,46.73,0,0,1,.6,5.55,38.64,38.64,0,0,0,.83,6.61c0.72,2.86,3.54,4.9,6,6.69,0.46,0.33.91,0.65,1.33,1,1.57,1.19,3.17,2.5,4.85,3.89,4.62,3.8,9.4,7.73,14.48,9.78a25.11,25.11,0,0,0,9.46,1.82,26.93,26.93,0,0,0,15.4-4.87,26.35,26.35,0,0,1,7-3.26c3-1,5.75-2,8.38-4.6,3.46-3.44,5.73-8.17,7.92-12.74,1.13-2.35,2.19-4.57,3.4-6.61,1-1.63,2-3.19,3-4.7,3-4.59,5.76-8.92,7.25-14.6S154.61,94,151.44,89.15c-1-1.54-2-3-2.77-4.44-4.45-8.05-10.95-13.26-17.39-13.94-3.64-.38-7.48-0.63-12.11-0.8A19.09,19.09,0,0,1,111,67.71c-0.65-.3-1.33-0.61-2.08-0.93a11.22,11.22,0,0,0-4.49-.85,32.7,32.7,0,0,0-5.56.65l-1.43.25c-1.25.21-2.53,0.35-3.77,0.49a37.36,37.36,0,0,0-8.36,1.62C76.64,72,70.3,81.08,68.57,83.79l-0.21.32c-4,6.22-7.42,11.6-7.42,19.16,0,4.6,1.43,7.35,2.94,10.26A26.47,26.47,0,0,1,66.8,121.15Zm2-36.78L69,84.05c1.71-2.68,8-11.65,16.47-14.67a37.1,37.1,0,0,1,8.26-1.6c1.24-.14,2.53-0.29,3.79-0.5L98.93,67a32.48,32.48,0,0,1,5.48-.65,10.81,10.81,0,0,1,4.31.81c0.75,0.32,1.43.63,2.07,0.93a19.5,19.5,0,0,0,8.37,2.31c4.61,0.16,8.45.42,12.07,0.79,6.29,0.66,12.66,5.78,17,13.7,0.8,1.45,1.77,2.92,2.79,4.47,3.26,5,6.64,10.08,5.21,15.54-1.47,5.61-4.25,9.92-7.19,14.47-1,1.52-2,3.09-3,4.72-1.22,2.05-2.29,4.28-3.42,6.65-2.18,4.54-4.42,9.23-7.83,12.61-2.55,2.54-5.3,3.48-8.21,4.48a26.76,26.76,0,0,0-7.12,3.32A26.48,26.48,0,0,1,104.39,156a24.66,24.66,0,0,1-9.29-1.78c-5-2-9.77-5.93-14.36-9.71-1.69-1.39-3.29-2.7-4.87-3.9l-1.34-1c-2.43-1.75-5.18-3.73-5.86-6.43a38.15,38.15,0,0,1-.82-6.53,48.11,48.11,0,0,0-.61-5.61,26.77,26.77,0,0,0-3-7.74c-1.48-2.86-2.88-5.55-2.88-10C61.41,95.85,64.82,90.53,68.76,84.37Z" transform="translate(0 0.01)"/><path class="cls-1" d="M55,113.18c1.41,4.09,2.86,8.32,3.08,12.9,0.06,1.13.08,2.27,0.1,3.38,0.14,6.67.28,13,6.82,17.31A45.27,45.27,0,0,0,71.2,150a52.23,52.23,0,0,1,5.51,2.79,69.14,69.14,0,0,1,8.12,6.09l1.32,1.1c4.26,3.51,11.1,7.68,19.51,7.68,0.81,0,1.63,0,2.44-.12,8.13-.8,14.51-4.75,20.86-9.07,1.79-1.22,3.59-2.28,5.33-3.31,4.73-2.79,9.19-5.42,12.55-10.67a32.39,32.39,0,0,0,3.12-7c0.51-1.46,1-3,1.71-4.46a59.28,59.28,0,0,1,3.77-6.69c1-1.61,2-3.28,2.93-5,1.06-2,2.25-3.83,3.4-5.59,3.07-4.67,6-9.07,5.3-15.84-0.56-5.68-3.61-9.73-6.85-14-1.12-1.49-2.28-3-3.33-4.64-0.92-1.42-1.76-2.83-2.56-4.19-3.25-5.49-6.06-10.23-12.74-13-3.27-1.35-7-1.51-10.66-1.67l-1.18-.05c-0.53,0-1.07,0-1.62,0a17.38,17.38,0,0,1-4.62-.49,13.48,13.48,0,0,1-2.78-1.34,15.82,15.82,0,0,0-2.57-1.29A32.65,32.65,0,0,0,106.85,57c-2.11,0-4.16-.19-6.15-0.37s-4-.36-6.06-0.36c-7.37,0-13.5,2.19-21.17,7.54-5.73,4-9.76,7.75-12.7,11.8a31.85,31.85,0,0,0-2.94,5.31c-0.21.44-.42,0.89-0.64,1.33a37.32,37.32,0,0,1-1.9,3.31,26.36,26.36,0,0,0-2.56,4.83c-1.31,3.6-1.17,8.82-.61,12.51A59.08,59.08,0,0,0,55,113.18ZM53.19,90.56a25.88,25.88,0,0,1,2.51-4.74,37.7,37.7,0,0,0,1.93-3.35c0.22-.45.43-0.9,0.64-1.34a31.18,31.18,0,0,1,2.9-5.24c2.9-4,6.91-7.72,12.59-11.69,7.58-5.3,13.63-7.46,20.9-7.46,2,0,4.06.19,6,.36s4.06,0.37,6.19.37A32.14,32.14,0,0,1,118,59.65a15.68,15.68,0,0,1,2.5,1.25,14.11,14.11,0,0,0,2.88,1.38,17.79,17.79,0,0,0,4.75.51l1.6,0,1.19,0.06c3.59,0.16,7.31.32,10.51,1.64,6.53,2.69,9.31,7.36,12.52,12.78,0.81,1.36,1.65,2.78,2.57,4.21,1.05,1.63,2.22,3.17,3.35,4.67,3.19,4.24,6.21,8.24,6.76,13.79,0.65,6.6-2.2,10.94-5.23,15.54-1.16,1.77-2.36,3.6-3.43,5.63-0.87,1.66-1.91,3.32-2.91,4.93a58.92,58.92,0,0,0-3.8,6.74c-0.68,1.5-1.21,3-1.73,4.49a32,32,0,0,1-3.07,6.95c-3.31,5.16-7.72,7.76-12.4,10.52-1.74,1-3.55,2.09-5.35,3.32-6.3,4.29-12.61,8.2-20.64,9-0.79.08-1.6,0.12-2.39,0.12-8.27,0-15-4.12-19.21-7.58l-1.32-1.09A69.36,69.36,0,0,0,77,152.4a52,52,0,0,0-5.56-2.82,45,45,0,0,1-6.15-3.21c-6.34-4.2-6.48-10.38-6.61-16.93,0-1.11,0-2.25-.1-3.39-0.23-4.64-1.69-8.9-3.11-13a58.87,58.87,0,0,1-2.82-10.18C52,99.21,51.91,94.08,53.19,90.56Z" transform="translate(0 0.01)"/><path class="cls-1" d="M61.57,122.39a52.25,52.25,0,0,1,.68,6.25,43.46,43.46,0,0,0,.94,7.43c0.8,3.21,4,5.49,6.78,7.51,0.52,0.37,1,.74,1.49,1.1C73.23,146,75,147.47,76.92,149c5.19,4.27,10.57,8.69,16.28,11a28.23,28.23,0,0,0,10.63,2,30.28,30.28,0,0,0,17.31-5.47,29.61,29.61,0,0,1,7.89-3.68c3.32-1.15,6.46-2.23,9.41-5.16,3.9-3.87,6.44-9.18,8.9-14.32,1.27-2.65,2.47-5.15,3.83-7.44,1.09-1.83,2.22-3.59,3.32-5.29,3.33-5.15,6.48-10,8.15-16.42s-2.37-12.47-5.93-17.88c-1.15-1.73-2.22-3.37-3.11-5-5-9.05-12.3-14.9-19.54-15.66-4.08-.43-8.41-0.71-13.61-0.9-3.95-.14-6.27-1.2-9.22-2.55-0.74-.34-1.5-0.69-2.34-1a12.57,12.57,0,0,0-5-1,36.91,36.91,0,0,0-6.25.73L96,61.33c-1.4.23-2.84,0.4-4.23,0.56a42,42,0,0,0-9.4,1.82c-9.72,3.44-16.83,13.65-18.78,16.7l-0.23.36c-4.48,7-8.34,13-8.34,21.53,0,5.17,1.6,8.26,3.3,11.52A29.87,29.87,0,0,1,61.57,122.39ZM63.72,81L64,80.65c1.93-3,9-13.11,18.54-16.51a41.74,41.74,0,0,1,9.3-1.8c1.4-.16,2.84-0.32,4.26-0.56l1.62-.28a36.61,36.61,0,0,1,6.17-.72,12.13,12.13,0,0,1,4.86.92c0.84,0.36,1.6.71,2.33,1,3,1.37,5.36,2.45,9.4,2.59,5.19,0.18,9.51.47,13.58,0.89,7.09,0.74,14.25,6.51,19.18,15.42,0.9,1.64,2,3.28,3.13,5,3.68,5.58,7.48,11.35,5.86,17.5-1.66,6.32-4.78,11.16-8.09,16.28-1.1,1.71-2.24,3.47-3.33,5.3-1.37,2.31-2.57,4.82-3.85,7.48-2.45,5.1-5,10.38-8.81,14.19-2.88,2.86-6,3.93-9.24,5.05a30,30,0,0,0-8,3.73,29.81,29.81,0,0,1-17,5.39,27.74,27.74,0,0,1-10.45-2c-5.64-2.28-11-6.68-16.16-10.93-1.9-1.56-3.7-3-5.48-4.38l-1.5-1.1c-2.73-2-5.83-4.2-6.6-7.24a43.12,43.12,0,0,1-.92-7.35,52.87,52.87,0,0,0-.69-6.3,30.08,30.08,0,0,0-3.33-8.7c-1.67-3.22-3.24-6.25-3.24-11.31C55.45,93.93,59.28,87.94,63.72,81Z" transform="translate(0 0.01)"/><path class="cls-1" d="M107,109.39a6.41,6.41,0,0,1,.89,1.64c0.14,0.34.29,0.68,0.47,1,0.51,0.95,1.18,1.92,2.3,1.92h0.11a3.49,3.49,0,0,0,2.48-1.57c1-1.36,1.33-2.73.93-3.66a2.44,2.44,0,0,0-2.11-1.32,9.73,9.73,0,0,1-2-.56c-0.38-.14-0.77-0.28-1.18-0.4l-0.07,0a7,7,0,0,0-1.81-.34,1.32,1.32,0,0,0-1,.35c-0.77.83,0.35,2.17,0.89,2.81Zm-0.66-2.63a0.91,0.91,0,0,1,.68-0.2,6.73,6.73,0,0,1,1.68.32l0.08,0c0.4,0.11.78,0.25,1.15,0.39a10.34,10.34,0,0,0,2.09.58,2,2,0,0,1,1.75,1c0.33,0.78,0,2-.88,3.21a3.06,3.06,0,0,1-2.13,1.38c-0.94,0-1.5-.77-2-1.67a10.28,10.28,0,0,1-.45-1,6.88,6.88,0,0,0-1-1.76l-0.12-.14C106.76,108.42,105.82,107.3,106.31,106.76Z" transform="translate(0 0.01)"/><path class="cls-1" d="M103.16,110.25a9.43,9.43,0,0,1,2.11,3.59c0.95,2.29,1.92,4.67,4.95,4.67a6.58,6.58,0,0,0,.7,0c3.76-.41,6.8-4.05,6.79-8.11a9.49,9.49,0,0,1,.39-2.29,6,6,0,0,0,.14-3.86,2.68,2.68,0,0,0-2.77-1.37c-0.44,0-.89,0-1.32.06a9.74,9.74,0,0,1-1.92,0c-0.52-.08-1-0.19-1.5-0.29a14.23,14.23,0,0,0-2.94-.4,7.06,7.06,0,0,0-2,.28c-1.76.51-3.63,1.32-4.18,3.48S101.44,108.76,103.16,110.25Zm-1.08-4.17c0.48-1.93,2.14-2.65,3.85-3.14a6.55,6.55,0,0,1,1.85-.26,13.7,13.7,0,0,1,2.85.4c0.49,0.1,1,.21,1.52.29a9.94,9.94,0,0,0,2,0c0.43,0,.87-0.06,1.29-0.06,1.31,0,2,.33,2.34,1.1a5.69,5.69,0,0,1-.16,3.56,10.14,10.14,0,0,0-.4,2.41c0,3.83-2.84,7.26-6.37,7.64a6.18,6.18,0,0,1-.65,0c-2.71,0-3.59-2.13-4.52-4.38a9.82,9.82,0,0,0-2.24-3.77C101.88,108.51,101.58,108,102.07,106.08Z" transform="translate(0 0.01)"/><path class="cls-1" d="M82.93,106.59a21.25,21.25,0,0,0,1.2,6.6L84.37,114a38,38,0,0,0,1.79,5.11,14.3,14.3,0,0,1,.77,2.43,9.77,9.77,0,0,0,1.48,3.62c3.53,4.76,7.4,7.56,12.18,8.79a19.84,19.84,0,0,0,5,.59,36.69,36.69,0,0,0,8.47-1.15l1-.23c2.79-.65,5.68-1.31,7.9-3.43a10,10,0,0,0,1.76-2.53c0.22-.4.45-0.82,0.7-1.22a19.59,19.59,0,0,1,1.34-1.8,21.22,21.22,0,0,0,1.37-1.84,8.81,8.81,0,0,0,.74-1.61,8.47,8.47,0,0,1,.66-1.46,7.91,7.91,0,0,1,1.44-1.57,12.82,12.82,0,0,0,.95-0.93,15.23,15.23,0,0,0,2.47-4.45c0.22-.53.45-1.08,0.69-1.6,2.16-4.65,1.93-9.07-.69-12.81a17.89,17.89,0,0,0-1.76-2,13.48,13.48,0,0,1-1.74-2.06c-0.24-.39-0.44-0.75-0.63-1.1a6.49,6.49,0,0,0-3.2-3.29,16,16,0,0,0-6.22-1.45,13.35,13.35,0,0,1-5.92-1.44,26.35,26.35,0,0,0-6.32-1.92,12.35,12.35,0,0,0-2.39-.28,9.16,9.16,0,0,0-3.78,1,12.79,12.79,0,0,1-3.87.76,21.69,21.69,0,0,0-2.46.32,17.87,17.87,0,0,0-6.35,2.34c-3,1.93-4,5.33-4.86,8.07a19.84,19.84,0,0,1-1,2.54c-0.24.53-.48,1-0.68,1.54a9.27,9.27,0,0,0-.28,4.13C82.89,105.53,82.93,106.07,82.93,106.59ZM83.56,101c0.2-.5.42-1,0.67-1.51a21,21,0,0,0,1.06-2.6c1-3.39,2-6.12,4.67-7.82a17.22,17.22,0,0,1,6.19-2.27,21.43,21.43,0,0,1,2.41-.31,13,13,0,0,0,4-.79,8.64,8.64,0,0,1,3.6-.92,11.88,11.88,0,0,1,2.3.27,25.77,25.77,0,0,1,6.22,1.88,13.74,13.74,0,0,0,6.09,1.49,15.62,15.62,0,0,1,6.05,1.4,6,6,0,0,1,3,3.1c0.2,0.35.4,0.73,0.65,1.12a13.93,13.93,0,0,0,1.79,2.13,18,18,0,0,1,1.71,2c2.51,3.59,2.73,7.86.64,12.35-0.25.53-.48,1.08-0.7,1.62a14.83,14.83,0,0,1-2.39,4.32c-0.27.3-.58,0.59-0.91,0.9a8.23,8.23,0,0,0-1.52,1.67,9,9,0,0,0-.7,1.54,8.16,8.16,0,0,1-.7,1.53,20.48,20.48,0,0,1-1.34,1.79A20.44,20.44,0,0,0,125,125.7c-0.26.41-.49,0.83-0.72,1.25a9.41,9.41,0,0,1-1.67,2.42c-2.13,2-4.95,2.68-7.68,3.31l-1,.23a36.18,36.18,0,0,1-8.36,1.14,19.41,19.41,0,0,1-4.85-.58c-4.67-1.21-8.46-3.95-11.92-8.62a9.26,9.26,0,0,1-1.4-3.46,14.45,14.45,0,0,0-.8-2.5,37.19,37.19,0,0,1-1.77-5.05l-0.23-.78a20.79,20.79,0,0,1-1.19-6.47c0-.54,0-1.09-0.09-1.67A8.94,8.94,0,0,1,83.56,101Z" transform="translate(0 0.01)"/><path class="cls-1" d="M79.61,106.23A23.8,23.8,0,0,0,81,113.66l0.26,0.88a42.5,42.5,0,0,0,2,5.75,15.87,15.87,0,0,1,.88,2.73,11,11,0,0,0,1.66,4.07c4,5.35,8.32,8.5,13.69,9.89a22.5,22.5,0,0,0,5.59.66,41.17,41.17,0,0,0,9.53-1.3l1.1-.26c3.14-.73,6.39-1.48,8.88-3.86a11.12,11.12,0,0,0,2-2.84c0.25-.45.51-0.92,0.79-1.37a22.06,22.06,0,0,1,1.51-2,23.47,23.47,0,0,0,1.54-2.06,9.81,9.81,0,0,0,.83-1.81,10,10,0,0,1,.75-1.65,8.94,8.94,0,0,1,1.62-1.77c0.36-.34.74-0.69,1.06-1a17.07,17.07,0,0,0,2.78-5c0.25-.6.5-1.21,0.78-1.8,2.43-5.22,2.16-10.19-.77-14.39a20.05,20.05,0,0,0-2-2.29,15.13,15.13,0,0,1-2-2.32c-0.26-.43-0.49-0.84-0.71-1.24a7.23,7.23,0,0,0-3.59-3.7,18.06,18.06,0,0,0-7-1.63,15,15,0,0,1-6.67-1.63,29.37,29.37,0,0,0-7.11-2.15,13.63,13.63,0,0,0-2.69-.32,10.32,10.32,0,0,0-4.24,1.08,14.39,14.39,0,0,1-4.36.86,24.84,24.84,0,0,0-2.77.36,20.06,20.06,0,0,0-7.14,2.63c-3.34,2.16-4.52,6-5.46,9.07A23,23,0,0,1,80.59,98c-0.28.6-.54,1.16-0.76,1.73a10.49,10.49,0,0,0-.32,4.64C79.56,105,79.61,105.65,79.61,106.23Zm0.65-6.31c0.22-.56.48-1.12,0.75-1.71a23.14,23.14,0,0,0,1.19-2.92c1.17-3.82,2.31-6.9,5.27-8.81a19.42,19.42,0,0,1,7-2.56,24.09,24.09,0,0,1,2.71-.35,14.7,14.7,0,0,0,4.51-.89,9.73,9.73,0,0,1,4.06-1,13.33,13.33,0,0,1,2.6.31,29,29,0,0,1,7,2.12,15.44,15.44,0,0,0,6.85,1.67A17.57,17.57,0,0,1,129,87.33a6.81,6.81,0,0,1,3.38,3.5c0.22,0.4.45,0.81,0.73,1.26a15.55,15.55,0,0,0,2,2.4,19.87,19.87,0,0,1,1.93,2.23c2.83,4,3.08,8.86.73,13.93-0.28.6-.54,1.22-0.79,1.82a16.8,16.8,0,0,1-2.7,4.87c-0.3.34-.66,0.67-1,1a9.31,9.31,0,0,0-1.7,1.88,10.24,10.24,0,0,0-.78,1.73,9.13,9.13,0,0,1-.79,1.73,22.39,22.39,0,0,1-1.51,2,24.22,24.22,0,0,0-1.54,2.07c-0.3.47-.56,0.94-0.81,1.4a10.71,10.71,0,0,1-1.89,2.73c-2.4,2.29-5.58,3-8.66,3.74l-1.11.26a40.74,40.74,0,0,1-9.42,1.28,22.06,22.06,0,0,1-5.47-.65c-5.27-1.36-9.53-4.45-13.43-9.71a10.48,10.48,0,0,1-1.58-3.91,16.22,16.22,0,0,0-.9-2.81,41.94,41.94,0,0,1-2-5.69l-0.26-.88a23.36,23.36,0,0,1-1.33-7.29c0-.6-0.05-1.22-0.1-1.88A10,10,0,0,1,80.26,99.93Z" transform="translate(0 0.01)"/><path class="cls-1" d="M79.24,119.06a11.24,11.24,0,0,1,.41,3.13,14,14,0,0,0,.27,2.67,10.73,10.73,0,0,0,2.28,3.86l0.52,0.67c2.69,3.51,5.5,5.16,9.07,7.24l0.41,0.24c6.19,3.62,11.12,5.24,16,5.24a23.17,23.17,0,0,0,8.13-1.51,28.84,28.84,0,0,0,16.86-15.46,78.27,78.27,0,0,1,5-9.65c0.34-.54.69-1.09,1.05-1.64,1.66-2.56,3.39-5.2,3.84-8.23,1-6.6-3.31-11.32-7.47-15.88-0.71-.78-1.44-1.58-2.13-2.38l-0.62-.74a7.19,7.19,0,0,0-2.73-2.37,10.05,10.05,0,0,0-2.64-.61,11.71,11.71,0,0,1-2.35-.5,9.51,9.51,0,0,1-1.77-.94,9.1,9.1,0,0,0-2.21-1.1,14.21,14.21,0,0,0-3.51-.4,20.88,20.88,0,0,1-2.37-.17c-1.47-.22-3-0.56-4.41-0.89A40.47,40.47,0,0,0,104,78.47a24.88,24.88,0,0,0-7.3,1.15c-1.06.27-2.06,0.53-3,.73-5.32,1.05-9.56,4.15-12.94,9.46-0.49.76-1.08,1.51-1.65,2.24a15.44,15.44,0,0,0-2.72,4.36c-0.93,2.71-.72,5.79-0.43,8.72A66.51,66.51,0,0,0,79.24,119.06Zm-2.41-22.5a15,15,0,0,1,2.65-4.23,28.26,28.26,0,0,0,1.68-2.28c3.36-5.27,7.38-8.22,12.64-9.26,1-.2,2-0.46,3.07-0.73a27.08,27.08,0,0,1,6.59-1.14H104a40.23,40.23,0,0,1,6.77,1.14c1.45,0.33,3,.67,4.44.9a21.16,21.16,0,0,0,2.43.17,14.07,14.07,0,0,1,3.39.39,8.75,8.75,0,0,1,2.09,1,10.15,10.15,0,0,0,1.86,1,12.15,12.15,0,0,0,2.45.52,9.53,9.53,0,0,1,2.51.58,6.85,6.85,0,0,1,2.56,2.24c0.2,0.24.4,0.5,0.63,0.75,0.69,0.8,1.43,1.61,2.14,2.39,4.09,4.48,8.31,9.12,7.35,15.5-0.44,2.93-2.13,5.53-3.77,8-0.36.55-.71,1.1-1.05,1.64a78.51,78.51,0,0,0-5.06,9.7,28.38,28.38,0,0,1-16.6,15.22,22.7,22.7,0,0,1-8,1.48c-4.79,0-9.65-1.59-15.77-5.17l-0.4-.24c-3.66-2.14-6.31-3.69-8.94-7.12l-0.52-.67a10.38,10.38,0,0,1-2.19-3.67,13.61,13.61,0,0,1-.26-2.57,11.74,11.74,0,0,0-.43-3.26,66,66,0,0,1-3.25-13.83C76.15,102.21,75.94,99.18,76.84,96.56Z" transform="translate(0 0.01)"/><path class="cls-1" d="M98.74,114.54a5.93,5.93,0,0,1,1.77,3.3c0.54,1.93,1.28,3.4,3.09,4.35a10.55,10.55,0,0,0,4.85,1l0.78,0,0.67,0A11.74,11.74,0,0,0,120,117.9a13.35,13.35,0,0,0,1.46-3.9c0.1-.4.21-0.81,0.33-1.23a14.48,14.48,0,0,1,1.17-2.68,19,19,0,0,0,1.1-2.4,6.59,6.59,0,0,0-.46-5.72,7.44,7.44,0,0,0-5.58-3.24,15.7,15.7,0,0,0-2-.1h-1.53a13.56,13.56,0,0,1-2.36-.17c-0.58-.1-1.16-0.25-1.72-0.39a13.25,13.25,0,0,0-3.86-.55,13.86,13.86,0,0,0-8.16,2.92c-1.56,1.34-2,3.2-2.47,5-0.15.63-.32,1.28-0.52,1.9-0.48,1.44.1,2.81,0.73,4.09A10.69,10.69,0,0,0,98.74,114.54Zm-2.87-7.06c0.21-.63.38-1.29,0.53-1.93,0.45-1.8.87-3.5,2.32-4.75A13.39,13.39,0,0,1,106.6,98H107a13.74,13.74,0,0,1,3.38.54c0.56,0.14,1.15.29,1.75,0.4a14.07,14.07,0,0,0,2.44.17h1.53a15.19,15.19,0,0,1,1.94.1,7,7,0,0,1,5.25,3,6.12,6.12,0,0,1,.41,5.32,17.86,17.86,0,0,1-1.07,2.33,15.26,15.26,0,0,0-1.21,2.76c-0.12.43-.23,0.85-0.33,1.25a12.77,12.77,0,0,1-1.41,3.78,11.4,11.4,0,0,1-10.38,5.07l-0.78,0a10.15,10.15,0,0,1-4.65-.92c-1.67-.87-2.35-2.26-2.86-4.06a6.4,6.4,0,0,0-1.91-3.52,10.32,10.32,0,0,1-2.48-3C96,110,95.44,108.75,95.87,107.48Z" transform="translate(0 0.01)"/><path class="cls-1" d="M86.28,106.94a18.47,18.47,0,0,0,1.05,5.78l0.2,0.68a33,33,0,0,0,1.57,4.47,12.4,12.4,0,0,1,.67,2.11,8.65,8.65,0,0,0,1.3,3.18c3.09,4.17,6.47,6.61,10.65,7.69a17.46,17.46,0,0,0,4.35.52,31.92,31.92,0,0,0,7.4-1l0.86-.2c2.44-.56,5-1.15,6.91-3a8.72,8.72,0,0,0,1.54-2.21c0.19-.35.39-0.72,0.61-1.07a17.77,17.77,0,0,1,1.17-1.57,18.84,18.84,0,0,0,1.19-1.6,7.42,7.42,0,0,0,.65-1.41A7.48,7.48,0,0,1,127,118a6.77,6.77,0,0,1,1.25-1.36c0.28-.26.58-0.53,0.83-0.82a13.33,13.33,0,0,0,2.16-3.9c0.19-.46.39-0.94,0.6-1.4,1.9-4.07,1.69-7.95-.6-11.22a15.54,15.54,0,0,0-1.54-1.78,11.54,11.54,0,0,1-1.51-1.79c-0.21-.33-0.39-0.65-0.56-1a5.71,5.71,0,0,0-2.81-2.89,14.12,14.12,0,0,0-5.44-1.27,11.61,11.61,0,0,1-5.15-1.26,22.82,22.82,0,0,0-5.53-1.68,10.55,10.55,0,0,0-2.09-.25,8,8,0,0,0-3.31.84,11.09,11.09,0,0,1-3.37.66,19,19,0,0,0-2.15.28,15.64,15.64,0,0,0-5.56,2C89.59,93,88.68,96,87.94,98.35a17.33,17.33,0,0,1-.9,2.21c-0.21.46-.42,0.9-0.59,1.35a8.12,8.12,0,0,0-.25,3.62C86.24,106,86.28,106.49,86.28,106.94Zm0.61-4.87c0.17-.43.37-0.86,0.58-1.32a17.91,17.91,0,0,0,.93-2.27c0.91-3,1.78-5.33,4.06-6.81a15,15,0,0,1,5.4-2,18,18,0,0,1,2.1-.27,11.53,11.53,0,0,0,3.51-.69,7.54,7.54,0,0,1,3.13-.81,10.34,10.34,0,0,1,2,.24A22.42,22.42,0,0,1,114,89.8a12,12,0,0,0,5.33,1.3,13.59,13.59,0,0,1,5.28,1.23,5.25,5.25,0,0,1,2.6,2.69c0.17,0.31.35,0.64,0.57,1a12.09,12.09,0,0,0,1.57,1.87,15.55,15.55,0,0,1,1.49,1.73c2.76,3.95,1.83,8,.56,10.75-0.22.46-.42,0.95-0.61,1.41a12.93,12.93,0,0,1-2.08,3.77,10.26,10.26,0,0,1-.8.78,7.1,7.1,0,0,0-1.33,1.47,8,8,0,0,0-.61,1.35,7.38,7.38,0,0,1-.61,1.33,18.26,18.26,0,0,1-1.17,1.56,18.35,18.35,0,0,0-1.2,1.61c-0.23.36-.43,0.73-0.63,1.09a8.19,8.19,0,0,1-1.45,2.1c-1.85,1.77-4.31,2.34-6.69,2.89l-0.86.2a31.5,31.5,0,0,1-7.3,1,16.9,16.9,0,0,1-4.24-.5c-4.07-1.05-7.37-3.44-10.4-7.52a8.14,8.14,0,0,1-1.22-3,12.54,12.54,0,0,0-.7-2.19A32.75,32.75,0,0,1,88,113.28l-0.2-.68a18.18,18.18,0,0,1-1-5.64c0-.47,0-1-0.08-1.46A7.72,7.72,0,0,1,86.89,102.07Z" transform="translate(0 0.01)"/><path class="cls-1" d="M94.11,120.37a12.63,12.63,0,0,0,11.48,8.19c0.52,0,1,0,1.56,0,10.5,0,14.32-5.64,15.57-7.49l0.21-.3a13.52,13.52,0,0,0,1.4-2.84c0.18-.46.36-0.89,0.55-1.29,0.56-1.22,3.07-5.48,3.75-6.52,1.52-2.37,1.44-4.77,1.2-7.45-0.31-3.39-1.83-6.2-4.06-7.52a11.77,11.77,0,0,0-6.4-1.7,55.24,55.24,0,0,1-7.33-.77,11.76,11.76,0,0,1-2.76-.92,9.22,9.22,0,0,0-3.58-1,5,5,0,0,0-.79.06,43.62,43.62,0,0,0-5.14,1.19c-0.49.14-1,.26-1.47,0.38a19.27,19.27,0,0,0-2.91.88,5.63,5.63,0,0,0-2.82,2.07,9.25,9.25,0,0,0-1.09,2.35c-0.11.31-.22,0.62-0.35,0.93s-0.34.9-.5,1.34a20.86,20.86,0,0,1-.83,2.11,8.06,8.06,0,0,0-.94,3.71c-0.1,2.81,1.08,5.24,2.42,7.69A47.35,47.35,0,0,1,94.11,120.37Zm-4.8-14.49a7.68,7.68,0,0,1,.9-3.53,21.65,21.65,0,0,0,.85-2.16c0.16-.46.31-0.89,0.49-1.32s0.24-.63.35-0.95a8.74,8.74,0,0,1,1-2.24,5.18,5.18,0,0,1,2.62-1.9,19.22,19.22,0,0,1,2.85-.85c0.5-.12,1-0.24,1.48-0.38A43.21,43.21,0,0,1,105,91.36a4.7,4.7,0,0,1,.71-0.06,8.74,8.74,0,0,1,3.4.94,12.1,12.1,0,0,0,2.87.94,55,55,0,0,0,7.39.77,11.24,11.24,0,0,1,6.18,1.63c2.1,1.25,3.54,3.93,3.84,7.17,0.24,2.59.32,4.91-1.13,7.15-0.68,1-3.21,5.34-3.78,6.57-0.19.42-.37,0.85-0.56,1.32a13.25,13.25,0,0,1-1.35,2.74l-0.21.31c-1.22,1.8-4.94,7.28-15.19,7.28-0.5,0-1,0-1.53,0a12.17,12.17,0,0,1-11.06-7.88,48.12,48.12,0,0,0-2.88-6.89C90.36,110.93,89.21,108.57,89.3,105.88Z" transform="translate(0 0.01)"/><path class="cls-1" d="M71.59,121.28a14.39,14.39,0,0,1,.52,3.94,17.37,17.37,0,0,0,.34,3.33,13.41,13.41,0,0,0,2.85,4.82L76,134.21c3.36,4.4,6.9,6.46,11.37,9.07l0.51,0.3c7.76,4.54,13.94,6.56,20.05,6.56a29,29,0,0,0,10.18-1.9,36.16,36.16,0,0,0,21.14-19.38,97.68,97.68,0,0,1,6.31-12.11c0.43-.68.87-1.37,1.32-2.05,2.08-3.2,4.24-6.51,4.81-10.31,1.24-8.25-4.15-14.16-9.36-19.88-0.89-1-1.81-2-2.68-3-0.28-.32-0.53-0.63-0.78-0.94a8.94,8.94,0,0,0-3.41-3,12.72,12.72,0,0,0-3.29-.77,14.76,14.76,0,0,1-3-.63,12,12,0,0,1-2.23-1.18,11.31,11.31,0,0,0-2.76-1.37,18,18,0,0,0-4.39-.51,25.36,25.36,0,0,1-3-.21c-1.85-.28-3.72-0.71-5.53-1.12a50.87,50.87,0,0,0-8.59-1.44,31.22,31.22,0,0,0-9.15,1.43c-1.33.34-2.58,0.67-3.82,0.91C83,74.09,77.75,78,73.5,84.62a34.84,34.84,0,0,1-2.07,2.81A19.28,19.28,0,0,0,68,92.89c-1.16,3.39-.9,7.25-0.53,10.92C68.09,109.93,69.64,115.13,71.59,121.28ZM68.45,93a18.84,18.84,0,0,1,3.33-5.32,35.32,35.32,0,0,0,2.1-2.85c4.23-6.63,9.28-10.33,15.9-11.65C91,73,92.3,72.66,93.63,72.31a34,34,0,0,1,8.28-1.44l0.72,0a50.58,50.58,0,0,1,8.51,1.43c1.82,0.41,3.71.84,5.57,1.12a26.5,26.5,0,0,0,3,.22,17.7,17.7,0,0,1,4.27.49,11,11,0,0,1,2.65,1.32A12.54,12.54,0,0,0,129,76.69a15,15,0,0,0,3.06.65,12,12,0,0,1,3.17.73,8.6,8.6,0,0,1,3.23,2.82c0.25,0.31.51,0.62,0.79,0.94,0.87,1,1.79,2,2.68,3,5.14,5.64,10.45,11.47,9.24,19.5-0.55,3.69-2.68,7-4.74,10.12-0.45.69-.9,1.37-1.32,2.06a98.22,98.22,0,0,0-6.34,12.17,35.69,35.69,0,0,1-20.87,19.13,28.56,28.56,0,0,1-10,1.87c-6,0-12.14-2-19.82-6.5l-0.51-.3c-4.6-2.69-7.93-4.63-11.24-9l-0.66-.84a13.15,13.15,0,0,1-2.76-4.63,17,17,0,0,1-.33-3.25,14.77,14.77,0,0,0-.54-4.07c-1.94-6.13-3.48-11.31-4.09-17.37C67.58,100.15,67.32,96.34,68.45,93Z" transform="translate(0 0.01)"/><path class="cls-1" d="M109.35,109.94a2.37,2.37,0,0,1,0,.4,1.4,1.4,0,0,0,.3,1,1.13,1.13,0,0,0,.85.39,1.84,1.84,0,0,0,1.47-.91,1.44,1.44,0,0,0-.72-2.26,4.24,4.24,0,0,0-1.5-.4,0.82,0.82,0,0,0-.84.46,1.13,1.13,0,0,0,.22.93A2.08,2.08,0,0,1,109.35,109.94Zm0.43-1.33a3.89,3.89,0,0,1,1.31.35,1.2,1.2,0,0,1,.7.66,1.16,1.16,0,0,1-.19.94,1.38,1.38,0,0,1-1.07.69A0.68,0.68,0,0,1,110,111a1,1,0,0,1-.18-0.69,2.74,2.74,0,0,0,0-.48,2.1,2.1,0,0,0-.24-0.54,1.42,1.42,0,0,1-.21-0.52A0.37,0.37,0,0,1,109.78,108.61Z" transform="translate(0 0.01)"/><path class="cls-1" d="M105.18,109.13l0.54,0.42a5.2,5.2,0,0,1,1.73,3c0.25,0.84,1.23,3.57,3.27,3.57a3.45,3.45,0,0,0,2.36-1.2c1.4-1.39,4.2-6.36,3.24-8.7-0.4-1-1.39-1.39-2.91-1.17a6.85,6.85,0,0,1-1,.07,12,12,0,0,1-2.8-.42,17.51,17.51,0,0,0-2.49-.45l-0.51,0c-1.37,0-3.14.36-3.59,1.37C102.37,107,104.06,108.3,105.18,109.13Zm-1.73-3.37c0.33-.75,1.87-1.09,3.16-1.09l0.47,0a17.11,17.11,0,0,1,2.42.44,12.32,12.32,0,0,0,2.9.43,7.53,7.53,0,0,0,1.06-.07c1.29-.18,2.1.11,2.42,0.89,0.86,2.08-1.76,6.82-3.14,8.19a3,3,0,0,1-2,1.06c-1.36,0-2.35-1.67-2.82-3.24a5.63,5.63,0,0,0-1.88-3.21l-0.56-.43C104.4,108,102.95,106.89,103.45,105.77Z" transform="translate(0 0.01)"/><path class="cls-1" d="M69.08,120.61a44.65,44.65,0,0,1,.57,5.25,36.86,36.86,0,0,0,.79,6.25c0.68,2.71,3.35,4.63,5.72,6.34,0.44,0.31.86,0.62,1.25,0.92,1.49,1.13,3,2.37,4.59,3.68,4.37,3.6,8.9,7.31,13.7,9.26a23.74,23.74,0,0,0,9,1.72,25.52,25.52,0,0,0,14.57-4.61,24.87,24.87,0,0,1,6.63-3.09c2.8-1,5.44-1.87,7.93-4.35,3.28-3.26,5.42-7.73,7.49-12.06,1.07-2.23,2.07-4.33,3.22-6.25,0.91-1.54,1.87-3,2.79-4.45,2.8-4.34,5.45-8.44,6.86-13.82s-2-10.51-5-15.06c-1-1.46-1.87-2.83-2.62-4.19C142.33,78.53,136.18,73.6,130.08,73c-3.44-.36-7.07-0.6-11.45-0.75a18.07,18.07,0,0,1-7.74-2.14c-0.61-.28-1.26-0.58-2-0.88a10.63,10.63,0,0,0-4.26-.81A30.83,30.83,0,0,0,99.4,69L98,69.23c-1.18.19-2.39,0.33-3.56,0.47a35.29,35.29,0,0,0-7.92,1.54c-8.18,2.9-14.17,11.49-15.81,14.06l-0.19.3c-3.77,5.89-7,11-7,18.12,0,4.36,1.35,7,2.77,9.71A24.7,24.7,0,0,1,69.08,120.61ZM71,85.83l0.19-.31c1.62-2.53,7.53-11,15.57-13.86a35,35,0,0,1,7.81-1.51c1.18-.14,2.39-0.27,3.58-0.47l1.36-.23a30.4,30.4,0,0,1,5.18-.61,10.15,10.15,0,0,1,4.07.77c0.71,0.3,1.35.6,2,.88a18.53,18.53,0,0,0,7.92,2.18c4.37,0.15,8,.39,11.42.75,5.95,0.62,12,5.46,16.1,13,0.76,1.37,1.67,2.76,2.64,4.23,3.09,4.69,6.28,9.53,4.93,14.69-1.39,5.31-4,9.38-6.8,13.68-0.93,1.44-1.88,2.92-2.8,4.46-1.15,1.94-2.17,4.06-3.24,6.29-2.06,4.29-4.18,8.73-7.4,11.93-2.41,2.4-5,3.29-7.76,4.24A25.17,25.17,0,0,0,119,149a25,25,0,0,1-14.31,4.52,23.24,23.24,0,0,1-8.78-1.69c-4.74-1.92-9.23-5.61-13.58-9.18-1.6-1.31-3.11-2.56-4.61-3.69-0.4-.3-0.83-0.61-1.26-0.93-2.3-1.65-4.9-3.53-5.53-6.07a36.23,36.23,0,0,1-.77-6.17,45.16,45.16,0,0,0-.58-5.31,25.39,25.39,0,0,0-2.8-7.33C65.33,110.5,64,108,64,103.71,64,96.69,67.23,91.66,71,85.83Z" transform="translate(0 0.01)"/><path class="cls-1" d="M76.46,119.87a12.49,12.49,0,0,1,.45,3.43,14.9,14.9,0,0,0,.3,2.91,11.74,11.74,0,0,0,2.48,4.21c0.2,0.25.39,0.49,0.57,0.73,2.93,3.83,6,5.63,9.91,7.91l0.44,0.26c6.76,4,12.15,5.72,17.48,5.72a25.33,25.33,0,0,0,8.88-1.65,31.5,31.5,0,0,0,18.42-16.89,85,85,0,0,1,5.49-10.54c0.37-.6.76-1.19,1.15-1.79,1.82-2.79,3.7-5.68,4.19-9,1.08-7.2-3.62-12.35-8.16-17.33-0.77-.85-1.57-1.73-2.33-2.6-0.24-.28-0.46-0.55-0.68-0.81a7.84,7.84,0,0,0-3-2.58,10.88,10.88,0,0,0-2.87-.67,12.8,12.8,0,0,1-2.58-.54,10.57,10.57,0,0,1-1.94-1,9.9,9.9,0,0,0-2.41-1.2,15.72,15.72,0,0,0-3.83-.44,22,22,0,0,1-2.59-.19c-1.61-.24-3.24-0.61-4.82-1a44.41,44.41,0,0,0-7.48-1.25,27.36,27.36,0,0,0-8,1.25c-1.15.3-2.24,0.58-3.32,0.79-5.81,1.15-10.43,4.53-14.13,10.33a30.17,30.17,0,0,1-1.81,2.45,16.8,16.8,0,0,0-3,4.76c-1,3-.79,6.32-0.46,9.52A72.74,72.74,0,0,0,76.46,119.87ZM73.79,95.29a16.4,16.4,0,0,1,2.89-4.62,30.76,30.76,0,0,0,1.83-2.49c3.68-5.77,8.07-9,13.82-10.12,1.09-.22,2.19-0.5,3.35-0.8A29.73,29.73,0,0,1,102.89,76l0.63,0a44,44,0,0,1,7.4,1.24c1.59,0.36,3.23.73,4.85,1a22.77,22.77,0,0,0,2.65.19,15.26,15.26,0,0,1,3.71.42A9.44,9.44,0,0,1,124.43,80a11,11,0,0,0,2,1.07,13.26,13.26,0,0,0,2.67.57,10.5,10.5,0,0,1,2.75.64,7.49,7.49,0,0,1,2.8,2.45c0.22,0.27.44,0.54,0.69,0.82,0.76,0.88,1.56,1.76,2.34,2.61,4.47,4.9,9.09,10,8,17-0.48,3.21-2.33,6.05-4.12,8.8-0.39.6-.78,1.2-1.15,1.8a85.8,85.8,0,0,0-5.52,10.6,31.06,31.06,0,0,1-18.15,16.64,24.84,24.84,0,0,1-8.72,1.62c-5.24,0-10.56-1.74-17.24-5.65l-0.44-.26c-4-2.34-6.9-4-9.77-7.79l-0.57-.73a11.39,11.39,0,0,1-2.4-4,14.65,14.65,0,0,1-.29-2.82,12.9,12.9,0,0,0-.47-3.55,72.2,72.2,0,0,1-3.56-15.12C73,101.46,72.81,98.15,73.79,95.29Z" transform="translate(0 0.01)"/><path class="cls-1" d="M95.77,117.07a26.28,26.28,0,0,0,2.93,5.09c2.05,2.6,5.68,4.09,10,4.09a18.19,18.19,0,0,0,2.57-.18c5.71-.81,10.76-4.81,12.26-9.71,0.18-.57.31-1.16,0.44-1.73a13,13,0,0,1,1.07-3.25c0.21-.39.43-0.78,0.65-1.18a14.47,14.47,0,0,0,1.81-4.11A8.44,8.44,0,0,0,121.74,96a9.66,9.66,0,0,0-3.42-.5c-0.56,0-1.14,0-1.7,0s-1.12,0-1.67,0a9,9,0,0,1-3.37-.54,15.07,15.07,0,0,0-5.72-1.18,17.11,17.11,0,0,0-4.49.65,13.38,13.38,0,0,0-4.57,2,9.9,9.9,0,0,0-2.43,2.36c-0.56.82-1.07,3.33-1.48,5.35-0.19.94-.35,1.75-0.49,2.23a6.9,6.9,0,0,0,1.1,6.45A31,31,0,0,1,95.77,117.07Zm-2.92-10.48c0.14-.5.31-1.31,0.49-2.26,0.38-1.87.89-4.44,1.4-5.18a9.39,9.39,0,0,1,2.32-2.25,13,13,0,0,1,4.42-2,16.66,16.66,0,0,1,4.37-.63,14.43,14.43,0,0,1,5.55,1.15A9.4,9.4,0,0,0,115,96c0.56,0,1.13,0,1.69,0s1.12,0,1.68,0a9.23,9.23,0,0,1,3.26.48c4.31,1.57,6.34,5.16,5.42,9.6a14,14,0,0,1-1.75,4c-0.23.4-.45,0.79-0.66,1.19a13.27,13.27,0,0,0-1.11,3.37c-0.13.56-.26,1.14-0.43,1.69-1.43,4.66-6.43,8.6-11.88,9.38a18.2,18.2,0,0,1-2.5.18c-4.13,0-7.63-1.43-9.59-3.91a26.1,26.1,0,0,1-2.87-5,31.62,31.62,0,0,0-2.3-4.22A6.48,6.48,0,0,1,92.86,106.58Z" transform="translate(0 0.01)"/><path class="cls-1" d="M74.37,120.47a13.32,13.32,0,0,1,.48,3.65,16.07,16.07,0,0,0,.32,3.09,12.46,12.46,0,0,0,2.64,4.47l0.61,0.77c3.11,4.07,6.39,6,10.53,8.41l0.47,0.27c7.19,4.21,12.92,6.08,18.58,6.08a26.87,26.87,0,0,0,9.44-1.76,33.5,33.5,0,0,0,19.58-18,90.37,90.37,0,0,1,5.84-11.21c0.4-.63.81-1.27,1.22-1.9,1.93-3,3.93-6,4.46-9.55,1.15-7.65-3.85-13.13-8.67-18.43-0.82-.9-1.68-1.84-2.48-2.77-0.26-.3-0.49-0.59-0.72-0.86A8.32,8.32,0,0,0,133.5,80a11.7,11.7,0,0,0-3.06-.71,13.65,13.65,0,0,1-2.75-.58,11.1,11.1,0,0,1-2.07-1.09,10.39,10.39,0,0,0-2.56-1.27,16.63,16.63,0,0,0-4.07-.47,23.8,23.8,0,0,1-2.76-.2c-1.71-.26-3.44-0.65-5.12-1a47.09,47.09,0,0,0-8-1.33,29,29,0,0,0-8.48,1.33c-1.22.32-2.38,0.62-3.53,0.85-6.17,1.22-11.08,4.81-15,11a31.56,31.56,0,0,1-1.92,2.6,17.83,17.83,0,0,0-3.15,5.06c-1.08,3.14-.83,6.72-0.49,10.12C71.14,110,72.56,114.77,74.37,120.47ZM71.5,94.33a17.44,17.44,0,0,1,3.08-4.92,32.57,32.57,0,0,0,2-2.65C80.44,80.62,85.12,77.2,91.24,76c1.16-.23,2.32-0.53,3.56-0.85a31.61,31.61,0,0,1,7.67-1.33l0.67,0A46.88,46.88,0,0,1,111,75.14c1.69,0.38,3.43.78,5.16,1a23.84,23.84,0,0,0,2.81.2,16.34,16.34,0,0,1,4,.45,10,10,0,0,1,2.44,1.22,11.82,11.82,0,0,0,2.15,1.14,13.85,13.85,0,0,0,2.84.6,11,11,0,0,1,2.93.68,7.94,7.94,0,0,1,3,2.61c0.23,0.28.47,0.58,0.73,0.88,0.81,0.93,1.66,1.87,2.49,2.77,4.76,5.22,9.67,10.61,8.56,18-0.51,3.42-2.48,6.44-4.39,9.36-0.42.64-.83,1.28-1.23,1.91a90.34,90.34,0,0,0-5.87,11.27A33,33,0,0,1,117.27,145a26.45,26.45,0,0,1-9.27,1.73c-5.57,0-11.23-1.85-18.35-6l-0.47-.27c-4.26-2.49-7.34-4.29-10.4-8.29l-0.61-.78a12.18,12.18,0,0,1-2.55-4.29,15.78,15.78,0,0,1-.31-3,13.76,13.76,0,0,0-.5-3.77c-1.8-5.68-3.22-10.47-3.79-16.09C70.69,100.9,70.46,97.38,71.5,94.33Z" transform="translate(0 0.01)"/><path class="cls-1" d="M100.93,113a10.78,10.78,0,0,1,1.72,2.61l0.11,0.25a8.41,8.41,0,0,0,2.31,3.58,7.24,7.24,0,0,0,4.81,1.58,11.83,11.83,0,0,0,7.36-2.61c2.76-2.4,3-5.59,3.19-9,0-.67.09-1.36,0.16-2,0.26-2.6-.34-4.54-1.79-5.77a5.1,5.1,0,0,0-3.44-1c-0.39,0-.77,0-1.17,0s-0.76,0-1.13,0h-0.14a21.5,21.5,0,0,1-2.76-.27,20.42,20.42,0,0,0-2.89-.27,10.2,10.2,0,0,0-1.12.06c-3.67.41-7.39,2.82-7.44,7.28a7.08,7.08,0,0,0,1.36,4.4C100.35,112.26,100.64,112.62,100.93,113Zm5.26-12.33a9.57,9.57,0,0,1,1.07-.06,19.42,19.42,0,0,1,2.83.27,21.24,21.24,0,0,0,2.82.27h0.15c0.38,0,.77,0,1.15,0l1.14,0a4.68,4.68,0,0,1,3.14.89c1.33,1.12,1.88,2.92,1.63,5.36-0.07.69-.11,1.39-0.16,2.06-0.22,3.28-.42,6.37-3,8.65a11.34,11.34,0,0,1-7.06,2.5,6.78,6.78,0,0,1-4.5-1.46,8,8,0,0,1-2.19-3.41l-0.11-.25a11.22,11.22,0,0,0-1.79-2.72c-0.28-.35-0.57-0.7-0.85-1.09a6.52,6.52,0,0,1-1.27-4.12C99.21,103.28,102.73,101,106.19,100.64Z" transform="translate(0 0.01)"/><path class="cls-1" d="M54,127.19c0.06,1.22.08,2.45,0.11,3.64,0.15,7.2.3,14,7.35,18.67a48.94,48.94,0,0,0,6.7,3.5,56.15,56.15,0,0,1,5.94,3,74.18,74.18,0,0,1,8.76,6.57l1.43,1.19c4.6,3.78,12,8.29,21,8.29,0.88,0,1.76,0,2.63-.13,8.77-.87,15.65-5.13,22.5-9.79,1.94-1.32,3.88-2.46,5.75-3.57,5.1-3,9.91-5.85,13.55-11.51a34.78,34.78,0,0,0,3.37-7.6c0.56-1.58,1.13-3.21,1.85-4.81a63.61,63.61,0,0,1,4.07-7.22c1.08-1.74,2.2-3.54,3.15-5.35a70.61,70.61,0,0,1,3.68-6c3.31-5,6.43-9.79,5.71-17.08-0.6-6.12-3.9-10.49-7.39-15.12-1.21-1.61-2.46-3.27-3.59-5-1-1.53-1.9-3.05-2.77-4.52-3.51-5.92-6.54-11-13.74-14-3.54-1.46-7.59-1.63-11.51-1.81l-1.27-.06c-0.57,0-1.15,0-1.74,0a18.75,18.75,0,0,1-5-.53,14.5,14.5,0,0,1-3-1.44A17.65,17.65,0,0,0,118.85,55a35.21,35.21,0,0,0-12.2-2.38c-2.28,0-4.49-.2-6.64-0.4s-4.31-.39-6.54-0.39c-8,0-14.57,2.35-22.83,8.14-6.18,4.32-10.53,8.37-13.7,12.73a34.21,34.21,0,0,0-3.17,5.73c-0.23.48-.45,1-0.69,1.44A39.9,39.9,0,0,1,51,83.49a28.82,28.82,0,0,0-2.76,5.21c-1.41,3.88-1.26,9.51-.65,13.49a64,64,0,0,0,3.06,11.07C52.2,117.68,53.77,122.25,54,127.19Zm-5.3-38.33a28.3,28.3,0,0,1,2.71-5.12,40.33,40.33,0,0,0,2.08-3.62l0.69-1.45A33.87,33.87,0,0,1,57.32,73c3.14-4.32,7.46-8.34,13.59-12.62,8.18-5.72,14.72-8.05,22.57-8.05,2.21,0,4.39.2,6.49,0.39s4.38,0.4,6.68.4a34.75,34.75,0,0,1,12,2.36,17,17,0,0,1,2.7,1.35,15.15,15.15,0,0,0,3.1,1.49,19,19,0,0,0,5.12.55c0.58,0,1.16,0,1.73,0L132.61,59c3.88,0.17,7.89.35,11.35,1.77,7.06,2.9,10.05,8,13.51,13.81,0.87,1.47,1.77,3,2.78,4.54,1.14,1.75,2.39,3.42,3.61,5,3.45,4.57,6.7,8.9,7.3,14.89,0.7,7.13-2.38,11.82-5.64,16.78-1.25,1.91-2.55,3.88-3.7,6.07-0.94,1.8-2.06,3.59-3.14,5.32a63.84,63.84,0,0,0-4.1,7.27c-0.73,1.62-1.31,3.26-1.87,4.85a34.7,34.7,0,0,1-3.32,7.5c-3.57,5.57-8.34,8.38-13.39,11.36-1.88,1.11-3.83,2.26-5.77,3.58-6.8,4.63-13.62,8.85-22.28,9.71-0.85.09-1.72,0.13-2.58,0.13-8.93,0-16.22-4.45-20.75-8.18l-1.43-1.18a74.41,74.41,0,0,0-8.81-6.61,56.62,56.62,0,0,0-6-3,48.6,48.6,0,0,1-6.64-3.47c-6.85-4.54-7-11.22-7.15-18.29,0-1.19-.05-2.43-0.11-3.65-0.24-5-1.82-9.61-3.35-14.06a63.47,63.47,0,0,1-3-11C47.48,98.2,47.33,92.66,48.71,88.86Z" transform="translate(0 0.01)"/><path class="cls-1" d="M24,135.92a15.11,15.11,0,0,0-1.1,5.14A14.55,14.55,0,0,0,24.17,146a16.77,16.77,0,0,1,1.3,4.52c0.09,0.94.14,1.84,0.18,2.71a16.74,16.74,0,0,0,1.45,7.21c2,3.94,5.92,6.07,9.71,8.13a51.22,51.22,0,0,1,4.58,2.7A63.84,63.84,0,0,0,50,176a72.57,72.57,0,0,1,7.47,4,113.45,113.45,0,0,1,16.42,12.36c4.79,4.43,9.29,8.15,16,8.8,1.22,0.12,2.55.18,4.06,0.18,1.3,0,2.61,0,3.89-.08s2.57-.08,3.86-0.08a31.53,31.53,0,0,1,7.87.84,13.85,13.85,0,0,0,3.4.44c3.86,0,6.92-1.8,10.16-3.7,1.37-.81,2.8-1.64,4.35-2.39,2.68-1.29,5.24-2.8,7.72-4.26s5.06-3,7.78-4.29a57.21,57.21,0,0,0,9.74-6.38c1.87-1.41,3.8-2.88,5.86-4.21,1.61-1,3.3-2.07,4.93-3.07,9.44-5.77,19.21-11.75,20.8-23.33,0.89-6.52,2.32-11.84,6.39-16.54a32.51,32.51,0,0,1,2.79-2.74,29.77,29.77,0,0,0,3-3,16.09,16.09,0,0,0,2.79-5.39,28.13,28.13,0,0,1,1.11-2.79,17.45,17.45,0,0,1,2.5-3.52,18,18,0,0,0,2.68-3.82c1.34-2.89,1.13-5.56.91-8.4,0-.64-0.1-1.3-0.13-2-0.42-8.27-1.43-12.87-4.32-19.72a129.51,129.51,0,0,0-8.62-17.54,50,50,0,0,0-6.1-7.42,43.39,43.39,0,0,1-6.69-8.46c-2.86-5.19-4.27-7.3-8.15-11.22a24.91,24.91,0,0,0-17.87-7.18,35.16,35.16,0,0,0-4.68.47,39.92,39.92,0,0,1-5.48.53,10.53,10.53,0,0,1-2.65-.29c-1.32-.34-3.9-2.54-6.17-4.48a28.42,28.42,0,0,0-5-3.8,30,30,0,0,0-9.06-2,48.55,48.55,0,0,1-6.63-1.06,35.61,35.61,0,0,1-5.71-2,30.87,30.87,0,0,0-6.76-2.13,19.31,19.31,0,0,0-3.63-.3c-8.85,0-23,3.84-28.54,5.9C61,25.33,56.12,28.61,48.62,34.68,42,40.05,14.14,70.11,14.7,84.7c0.29,7.57,1.84,12.76,4,19.27a38,38,0,0,1,1.45,8.31c0.34,3.42.69,7,2.21,10.2l0.5,1.06c1.27,2.65,2.37,4.95,2.18,8.1A16.86,16.86,0,0,1,24,135.92Zm-0.7-12.57c-0.17-.35-0.34-0.7-0.5-1.06-1.48-3.18-1.83-6.67-2.17-10.05a38.59,38.59,0,0,0-1.47-8.42c-2.14-6.47-3.68-11.63-4-19.14C14.61,70.24,42.31,40.38,48.91,35c7.47-6,12.33-9.3,21.46-12.66,5.56-2,19.59-5.87,28.38-5.87a18.89,18.89,0,0,1,3.54.29A30.52,30.52,0,0,1,109,18.9a35.7,35.7,0,0,0,5.78,2A48.21,48.21,0,0,0,121.43,22a29.64,29.64,0,0,1,8.93,2,28.35,28.35,0,0,1,4.9,3.73c2.43,2.07,4.94,4.21,6.36,4.58a11,11,0,0,0,2.77.31,40.33,40.33,0,0,0,5.54-.54,35,35,0,0,1,4.65-.47,24.44,24.44,0,0,1,17.51,7c3.84,3.88,5.24,6,8.08,11.11a43.83,43.83,0,0,0,6.76,8.56,49.6,49.6,0,0,1,6,7.35,129.32,129.32,0,0,1,8.59,17.47c2.87,6.78,3.88,11.35,4.29,19.56,0,0.68.08,1.33,0.13,2,0.21,2.77.41,5.39-.87,8.17a17.72,17.72,0,0,1-2.61,3.72,18.1,18.1,0,0,0-2.56,3.62A29.26,29.26,0,0,0,198.8,123a15.72,15.72,0,0,1-2.71,5.25,29.69,29.69,0,0,1-3,3A32.82,32.82,0,0,0,190.3,134c-4.15,4.79-5.6,10.17-6.5,16.78-1.56,11.36-11.23,17.27-20.58,23-1.64,1-3.33,2-4.94,3.08-2.08,1.35-4,2.81-5.89,4.23a57.07,57.07,0,0,1-9.66,6.33c-2.74,1.32-5.32,2.84-7.82,4.31s-5,3-7.69,4.24c-1.57.76-3,1.6-4.39,2.41-3.32,2-6.19,3.64-9.93,3.64a13.41,13.41,0,0,1-3.29-.43,31.92,31.92,0,0,0-8-.85c-1.29,0-2.61,0-3.87.08s-2.58.08-3.87,0.08c-1.49,0-2.81-.06-4-0.18-6.52-.64-11-4.31-15.69-8.68A113.93,113.93,0,0,0,57.7,179.6a73.26,73.26,0,0,0-7.52-4,63.56,63.56,0,0,1-8.52-4.72A52,52,0,0,0,37,168.11c-3.73-2-7.59-4.13-9.52-7.94a16.33,16.33,0,0,1-1.4-7c0-.88-0.09-1.79-0.18-2.74a17.17,17.17,0,0,0-1.33-4.65A14,14,0,0,1,23.35,141a14.68,14.68,0,0,1,1.07-5,17.5,17.5,0,0,0,1.08-4.4C25.7,128.4,24.53,125.94,23.28,123.34Z" transform="translate(0 0.01)"/><path class="cls-1" d="M30.91,143.05l-0.27,1.43c-1.09,5.68-1.81,9.43,3.13,14.26,4.13,4,9.69,6.43,15.5,8.74,8.2,3.25,14.56,8.17,21.29,13.37,1.72,1.33,3.5,2.71,5.32,4.06a40.77,40.77,0,0,0,16,7.19,61.9,61.9,0,0,1,6,1.92c3.85,1.37,7.82,2.77,11.53,2.77h0c5,0,10.45-2.15,16.61-6.54,5-3.56,9.91-6.72,16-10.24a158.92,158.92,0,0,0,15.68-10c1.32-1,2.68-1.94,4.13-2.94,4.65-3.23,9.47-6.58,12.43-11.34,3.3-5.31,4.87-11.41,6.39-17.31l0.11-.43c1.63-6.32,5.48-10.9,9.39-14.9,0.56-.57,1.15-1.16,1.76-1.76,4.14-4.1,8.83-8.74,8.9-14.88,0-4.37-1.33-9.42-2.55-13.88-0.4-1.45-.77-2.82-1.08-4.12a15,15,0,0,0-3.2-5.88A30.59,30.59,0,0,1,192.1,80a23.16,23.16,0,0,1-1.8-3.9,21,21,0,0,0-2.2-4.54,30.38,30.38,0,0,0-3-3.49,35,35,0,0,1-2.5-2.83,32.47,32.47,0,0,1-2.38-3.79c-0.56-1-1.14-2-1.8-3a55.4,55.4,0,0,1-3.7-6.72,47.84,47.84,0,0,0-4.31-7.56c-4.16-5.56-10.51-6.2-16.12-6.77-0.71-.07-1.54-0.1-2.54-0.1s-2.14,0-3.29.07-2.39.08-3.58,0.08c-2.56,0-5.79-.17-8-1.48a8.6,8.6,0,0,1-2.64-2.85,10.57,10.57,0,0,0-2.35-2.73,7.84,7.84,0,0,0-5-1.38l-1.22,0-1.25,0c-0.58,0-1.05,0-1.51-.06a41.89,41.89,0,0,1-15.58-5A17.75,17.75,0,0,0,99,21.57a21.53,21.53,0,0,0-8.18,1.92c-3.67,1.49-7.15,1.75-10.82,2-1.87.14-3.81,0.28-5.87,0.6-4.81.73-9.53,3.82-13.94,6.91a104.91,104.91,0,0,0-18.5,16.9c-1.44,1.65-3.09,3.33-4.69,5a68.72,68.72,0,0,0-8.14,9.35,50.67,50.67,0,0,0-6.74,14.33,37.82,37.82,0,0,0-.29,17,48.25,48.25,0,0,0,3,8.93c0.68,1.64,1.39,3.34,2,5.1C29.92,118.67,33.2,130.71,30.91,143.05Zm-3.66-33.64c-0.61-1.78-1.32-3.48-2-5.13a47.5,47.5,0,0,1-3-8.84,37.39,37.39,0,0,1,.28-16.74A50.12,50.12,0,0,1,29.2,64.5a68.66,68.66,0,0,1,8.08-9.28c1.6-1.63,3.25-3.32,4.71-5A104.38,104.38,0,0,1,60.4,33.42c4.37-3.06,9-6.12,13.75-6.84,2-.31,4-0.46,5.83-0.6,3.72-.28,7.23-0.54,11-2.06A21,21,0,0,1,99,22a17.32,17.32,0,0,1,8.21,2.33,42.32,42.32,0,0,0,15.76,5.07c0.47,0,1,.07,1.55.07l1.26,0,1.21,0a7.29,7.29,0,0,1,4.71,1.29,10.28,10.28,0,0,1,2.25,2.62,9.1,9.1,0,0,0,2.78,3c2.3,1.37,5.6,1.55,8.23,1.55,1.2,0,2.42,0,3.6-.08s2.23-.08,3.27-0.08,1.79,0,2.49.1c5.51,0.55,11.75,1.18,15.79,6.58a47.76,47.76,0,0,1,4.27,7.49,56,56,0,0,0,3.73,6.77c0.66,1,1.23,2,1.78,3a33.07,33.07,0,0,0,2.41,3.84,35.5,35.5,0,0,0,2.53,2.87,29.62,29.62,0,0,1,2.94,3.44,20.6,20.6,0,0,1,2.15,4.44,23.69,23.69,0,0,0,1.84,4,31.38,31.38,0,0,0,1.89,2.65,14.61,14.61,0,0,1,3.12,5.7c0.32,1.31.69,2.68,1.09,4.13,1.21,4.43,2.58,9.45,2.53,13.75-0.06,5.95-4.68,10.52-8.76,14.56-0.6.6-1.2,1.19-1.76,1.77-4,4.05-7.85,8.69-9.51,15.11l-0.11.43c-1.51,5.87-3.07,11.93-6.33,17.18-2.91,4.68-7.68,8-12.3,11.2-1.38,1-2.81,2-4.14,3a157.14,157.14,0,0,1-15.63,10c-6.06,3.53-11,6.7-16,10.27-6.08,4.34-11.43,6.45-16.34,6.46l0,0.23v-0.23c-3.62,0-7.56-1.4-11.37-2.75A63.22,63.22,0,0,0,92,191.65a40.4,40.4,0,0,1-15.87-7.11c-1.82-1.35-3.6-2.73-5.32-4.06-6.75-5.23-13.14-10.16-21.4-13.44-5.77-2.29-11.28-4.67-15.35-8.64-4.77-4.65-4.06-8.31-3-13.84,0.09-.46.18-0.94,0.27-1.43C33.67,130.69,30.38,118.57,27.25,109.41Z" transform="translate(0 0.01)"/><path class="cls-1" d="M27.62,131a16.66,16.66,0,0,1-1,4.15,14.52,14.52,0,0,0-1.06,5,14,14,0,0,0,1.25,4.74A16.19,16.19,0,0,1,28,149.22c0.09,0.91.13,1.78,0.17,2.63a16.24,16.24,0,0,0,1.41,7c1.93,3.82,5.74,5.89,9.42,7.89a49,49,0,0,1,4.44,2.62A61.88,61.88,0,0,0,51.8,174a71,71,0,0,1,7.24,3.9,110.22,110.22,0,0,1,15.92,12c4.64,4.3,9,7.9,15.48,8.54,1.19,0.12,2.48.17,3.94,0.17,1.26,0,2.54,0,3.77-.08s2.49-.08,3.74-0.08a30.48,30.48,0,0,1,7.63.81,13.49,13.49,0,0,0,3.3.43c3.74,0,6.71-1.74,9.86-3.59,1.33-.78,2.71-1.59,4.22-2.31,2.6-1.25,5.09-2.71,7.49-4.13s4.91-2.89,7.55-4.16a55.29,55.29,0,0,0,9.45-6.19c1.81-1.37,3.69-2.79,5.69-4.08,1.56-1,3.2-2,4.78-3,9.16-5.6,18.64-11.39,20.17-22.63,0.86-6.33,2.25-11.48,6.2-16a31,31,0,0,1,2.7-2.66,29,29,0,0,0,2.94-2.93,15.63,15.63,0,0,0,2.7-5.23,28.66,28.66,0,0,1,1.07-2.7,16.85,16.85,0,0,1,2.42-3.41,17.3,17.3,0,0,0,2.6-3.71c1.29-2.8,1.09-5.4.88-8.15,0-.62-0.1-1.26-0.13-1.91-0.4-8-1.38-12.49-4.2-19.13a125.46,125.46,0,0,0-8.37-17,48.42,48.42,0,0,0-5.91-7.2,42,42,0,0,1-6.49-8.21c-2.77-5-4.15-7.08-7.91-10.88a24.15,24.15,0,0,0-17.33-7,34.45,34.45,0,0,0-4.54.46,38.73,38.73,0,0,1-5.31.52,10.23,10.23,0,0,1-2.56-.28c-1.28-.33-3.78-2.47-6-4.34a27.62,27.62,0,0,0-4.87-3.69,29,29,0,0,0-8.78-2,46.93,46.93,0,0,1-6.43-1,34.19,34.19,0,0,1-5.53-1.9,29.85,29.85,0,0,0-6.56-2.07,18.76,18.76,0,0,0-3.52-.29c-8.58,0-22.26,3.73-27.68,5.72C62.53,27.86,57.78,31,50.5,36.94c-6.44,5.21-33.44,34.36-32.9,48.51,0.28,7.34,1.78,12.38,3.87,18.69a37,37,0,0,1,1.41,8.06c0.33,3.31.67,6.74,2.14,9.9l0.49,1C26.74,125.69,27.81,127.91,27.62,131Zm-1.69-8.05-0.49-1c-1.44-3.08-1.77-6.47-2.1-9.74A37.55,37.55,0,0,0,21.92,104c-2.08-6.27-3.57-11.28-3.85-18.56-0.54-14,26.32-42.95,32.72-48.13,7.23-5.86,12-9,20.81-12.28,5.39-2,19-5.69,27.52-5.69a18.23,18.23,0,0,1,3.43.28,29.53,29.53,0,0,1,6.47,2,34.52,34.52,0,0,0,5.6,1.92,47.22,47.22,0,0,0,6.48,1,28.62,28.62,0,0,1,8.65,1.92,27.88,27.88,0,0,1,4.75,3.61c2.35,2,4.79,4.08,6.17,4.44a10.66,10.66,0,0,0,2.68.3,39.7,39.7,0,0,0,5.38-.52,34.12,34.12,0,0,1,4.51-.46h0a23.67,23.67,0,0,1,17,6.82c3.72,3.76,5.08,5.78,7.83,10.78a42.42,42.42,0,0,0,6.56,8.3,48.1,48.1,0,0,1,5.86,7.13,125.17,125.17,0,0,1,8.33,16.94c2.79,6.58,3.76,11,4.16,19,0,0.66.08,1.29,0.13,1.92,0.21,2.69.4,5.23-.84,7.91a17.11,17.11,0,0,1-2.53,3.61,17.36,17.36,0,0,0-2.49,3.51,28,28,0,0,0-1.09,2.75,15.28,15.28,0,0,1-2.62,5.09,28.83,28.83,0,0,1-2.89,2.88,31.17,31.17,0,0,0-2.74,2.69c-4,4.65-5.43,9.87-6.31,16.28-1.51,11-10.88,16.75-20,22.29-1.59,1-3.23,2-4.79,3-2,1.3-3.9,2.73-5.72,4.1a55.11,55.11,0,0,1-9.37,6.14c-2.66,1.28-5.16,2.76-7.58,4.18s-4.87,2.87-7.45,4.11c-1.53.73-2.91,1.55-4.25,2.34-3.23,1.89-6,3.52-9.62,3.52a13.08,13.08,0,0,1-3.19-.41,31.07,31.07,0,0,0-7.74-.82c-1.26,0-2.53,0-3.76.08s-2.5.08-3.75,0.08c-1.45,0-2.72-.06-3.9-0.17-6.32-.62-10.63-4.18-15.21-8.41a110.67,110.67,0,0,0-16-12A72,72,0,0,0,52,173.55,62,62,0,0,1,43.75,169a50.68,50.68,0,0,0-4.49-2.65c-3.62-2-7.36-4-9.23-7.69a15.81,15.81,0,0,1-1.35-6.81c0-.85-0.08-1.74-0.17-2.65a16.63,16.63,0,0,0-1.29-4.51A13.51,13.51,0,0,1,26,140.08a14.18,14.18,0,0,1,1-4.83,16.91,16.91,0,0,0,1-4.27C28.28,127.82,27.14,125.44,25.93,122.91Z" transform="translate(0 0.01)"/><path class="cls-1" d="M19,137.46a15.73,15.73,0,0,0-1.16,5.43,15.43,15.43,0,0,0,1.36,5.17,17.65,17.65,0,0,1,1.37,4.78c0.1,1,.15,1.95.19,2.87,0.12,2.61.24,5.08,1.53,7.62,2.1,4.16,6.25,6.41,10.27,8.6a53.49,53.49,0,0,1,4.85,2.86,67.53,67.53,0,0,0,9.08,5,76.76,76.76,0,0,1,7.9,4.25,120.25,120.25,0,0,1,17.37,13.07c5.06,4.68,9.83,8.61,16.87,9.31,1.29,0.13,2.69.19,4.29,0.19,1.38,0,2.76,0,4.11-.09s2.72-.09,4.08-0.09a33.27,33.27,0,0,1,8.33.88,14.63,14.63,0,0,0,3.6.46c4.07,0,7.31-1.9,10.74-3.91,1.45-.85,3-1.73,4.6-2.53,2.84-1.37,5.54-3,8.16-4.5s5.35-3.15,8.24-4.54a60.68,60.68,0,0,0,10.3-6.75c2-1.5,4-3,6.2-4.46,1.71-1.1,3.49-2.19,5.22-3.25,10-6.11,20.31-12.42,22-24.66,0.95-6.9,2.46-12.52,6.77-17.5a33.74,33.74,0,0,1,2.94-2.9,31.07,31.07,0,0,0,3.2-3.2,17,17,0,0,0,2.95-5.7A30,30,0,0,1,205.5,121a18.47,18.47,0,0,1,2.65-3.73,18.88,18.88,0,0,0,2.83-4c1.41-3.05,1.19-5.88,1-8.88-0.05-.68-0.1-1.37-0.14-2.08-0.44-8.74-1.51-13.62-4.57-20.85a137.32,137.32,0,0,0-9.12-18.55A53,53,0,0,0,191.66,55a45.76,45.76,0,0,1-7.08-9c-3-5.49-4.52-7.71-8.62-11.86a26.33,26.33,0,0,0-18.89-7.59,37.12,37.12,0,0,0-4.95.5,42.79,42.79,0,0,1-5.8.57,11.09,11.09,0,0,1-2.81-.31c-1.4-.36-4.13-2.69-6.54-4.74-2.12-1.81-4.13-3.52-5.3-4a31.75,31.75,0,0,0-9.57-2.14,50.49,50.49,0,0,1-7-1.13,37.6,37.6,0,0,1-6-2.07A32.67,32.67,0,0,0,101.9,11a20.28,20.28,0,0,0-3.84-.31c-9.35,0-24.27,4.06-30.18,6.24C58.16,20.49,53,24,45,30.39,38,36.07,8.59,67.85,9.19,83.28c0.31,8,1.94,13.49,4.22,20.38a40.7,40.7,0,0,1,1.53,8.8c0.36,3.61.73,7.35,2.33,10.78l0.53,1.13c1.34,2.81,2.5,5.23,2.3,8.57A18.16,18.16,0,0,1,19,137.46Zm-0.77-13.3L17.7,123c-1.57-3.36-1.94-7.06-2.29-10.63a40.88,40.88,0,0,0-1.56-8.9C11.58,96.66,10,91.2,9.65,83.26,9.06,68,38.36,36.4,45.35,30.75c7.9-6.39,13-9.84,22.7-13.4,5.88-2.17,20.72-6.21,30-6.21a19.69,19.69,0,0,1,3.75.31,32.21,32.21,0,0,1,7.06,2.23A37.83,37.83,0,0,0,115,15.77a51.69,51.69,0,0,0,7.07,1.14A31.31,31.31,0,0,1,131.5,19,30.33,30.33,0,0,1,136.68,23c2.57,2.19,5.22,4.45,6.72,4.84a11.55,11.55,0,0,0,2.92.32,42.67,42.67,0,0,0,5.86-.57,37,37,0,0,1,4.91-.5,25.84,25.84,0,0,1,18.53,7.45c4.06,4.11,5.55,6.31,8.55,11.76a46.3,46.3,0,0,0,7.15,9,52.35,52.35,0,0,1,6.4,7.78,136.34,136.34,0,0,1,9.09,18.48c3,7.18,4.1,12,4.54,20.69,0,0.72.09,1.41,0.14,2.1,0.23,2.94.44,5.71-.92,8.65a18.49,18.49,0,0,1-2.77,3.94,19,19,0,0,0-2.71,3.82,30.37,30.37,0,0,0-1.19,3,16.67,16.67,0,0,1-2.86,5.56,31,31,0,0,1-3.16,3.15,34,34,0,0,0-3,2.94c-4.38,5.07-5.92,10.76-6.87,17.74-1.65,12-11.88,18.28-21.77,24.33-1.73,1.06-3.52,2.15-5.23,3.26-2.2,1.42-4.25,3-6.23,4.48a59.94,59.94,0,0,1-10.23,6.7c-2.9,1.4-5.63,3-8.27,4.56S131,199.6,128.17,201c-1.66.8-3.18,1.69-4.64,2.54-3.52,2.06-6.56,3.85-10.5,3.85a14.15,14.15,0,0,1-3.48-.45,33.83,33.83,0,0,0-8.44-.9c-1.37,0-2.76,0-4.1.09s-2.73.09-4.09,0.09c-1.58,0-3-.06-4.25-0.19-6.9-.68-11.6-4.56-16.6-9.18a120.27,120.27,0,0,0-17.43-13.12,77.22,77.22,0,0,0-8-4.27,67.53,67.53,0,0,1-9-5,53.84,53.84,0,0,0-4.9-2.88c-3.95-2.15-8-4.37-10.07-8.4-1.24-2.46-1.36-4.87-1.48-7.44,0-.93-0.09-1.89-0.19-2.89a18.26,18.26,0,0,0-1.4-4.91,14.79,14.79,0,0,1-1.33-5,15.56,15.56,0,0,1,1.14-5.27A18.46,18.46,0,0,0,20.58,133C20.79,129.51,19.55,126.91,18.23,124.16Z" transform="translate(0 0.01)"/><path class="cls-1" d="M219.44,84.37a5.61,5.61,0,0,0-1-2.56c-0.6-1-2.46-2-2.83-2.77-0.63-1.29-.15-2.24-0.3-3.21a1.91,1.91,0,0,0-.46-0.92c-1.83-2.15-4.08-4.19-3.35-7.09-0.74-.35-1.52-0.66-2.27-1,0.79-2.23-.29-4.92-1.64-6.86-3.08-4.46-8.9-7.43-11.48-12.35-0.78-1.5-.09-2.53-1-3.8-0.8-1.1-2.23-1.21-3.18-2-1.29-1.11-4.64-4.49-5.14-6a5,5,0,0,1-.26-1.6,6.76,6.76,0,0,1-2.62-4.31,11.19,11.19,0,0,1-2.15-2.39,8.28,8.28,0,0,1-.69-1.3c-1.94-.38-3-2-4.63-3.17s-4.13-.55-6-1.26c-4-1.47-4.63,4.78-7.77,2-0.44-.39.84-1.67,0.62-2.39-1.53-5.06-10.65-5.1-14.78-8.33-1.06-.83-0.71-1.86-2-2.51-0.88-.46-2.71,0-3.74-0.35-0.81-.31-1.32-1.07-2.07-1.22a0.33,0.33,0,0,0-.17,0,8.63,8.63,0,0,1-2.68.54,2.5,2.5,0,0,0-1.26-.12c-0.41.27,0.17,1.2-.24,1.45-3,1.81-5.81-.31-9.19-1.87a0.59,0.59,0,0,1-.31-0.7c0.2-.44,1-0.66,1-1-0.31-2.33-2.84-3.44-4.74-4.65-2.06-1.3-3.9-.81-6.14-0.72-4.66.19-8.28-2.12-12.33-1.87-1.52.1-4.32,0.16-6.24,0.48s-3.47,2.32-5.6,2.61S88.37,1.85,86.4,1.57a4.7,4.7,0,0,0-1.61-.06c-1,.22-3.2.19-2.83,1.12,0.18,0.44-.89.16-1.44,0.69a18.69,18.69,0,0,1-6.72,3.85c-2.61,1-5.31,2.94-7.93,1.89l-0.57.2C63.84,9.79,62.46,8.78,61,9c-3.75.53-5.32,5.5-10.74,4a3.74,3.74,0,0,0-.55-0.25,2.26,2.26,0,0,0-1.09.61c-1.15.69-2.28,1.42-3.44,2.08h0a4.85,4.85,0,0,1-1,.83c-0.45.52-.87,1.07-1.33,1.57a12,12,0,0,1-3.17,2.54c-0.51.27-1.26,0.19-1.61,0.66-1.83,2.4-1.14,5.94-3.24,8.06C33.26,30.73,31,30.66,29.68,32a1.17,1.17,0,0,0-.13.57A6.37,6.37,0,0,1,27.36,36a7.21,7.21,0,0,1-3,3.76c-1,.6-2.36.23-3.14,0.93-2.42,2.17-3.26,5.37-6.26,5.67a5.18,5.18,0,0,1-1.47,1.8,15.26,15.26,0,0,1-1,2.35c-0.9,1.6-3.11,2-3.67,3.76-0.62,2,1.33,3.94,1.18,6a7.3,7.3,0,0,1-4.75,6.56,7.58,7.58,0,0,1-2.47,3.79,5.65,5.65,0,0,1-1.61,2.3,2.12,2.12,0,0,1-.27.21l0,0.05-0.1.19,0,0.06a9.61,9.61,0,0,1-.65,2.36L0,76.37a25.28,25.28,0,0,1,2.39,5.22,9.78,9.78,0,0,1,0,5.83l0.36-.08c0.65,2.93-.88,4.05,0,6.7C3.25,95.74,6,97.49,6.19,98.79c0.13,0.83-1.7,2.27-1.93,3.34s1,2,.9,3a3.71,3.71,0,0,1-1.23,2.74c0.29,1.6.51,3.2,0.64,4.81L4.83,113A8.26,8.26,0,0,1,6,118.49a7.26,7.26,0,0,1,1.52,3c0.42,0.48.79,1,1.18,1.52,1.8,2.4.94,6-.15,8.44-0.19.43-.51,0.77-0.68,1.19-0.06.13-.43,1-0.53,1.21a2,2,0,0,0-.44,1c0.15,0.7,1.12.79,1.45,1.43,0.44,0.84.39,2.66,0.79,3.24a21.11,21.11,0,0,0,2.67,2.12c0.32,1.91-2.8,1.6-3.33,3.54-0.64,2.35,3.8,5.69,2,7.84a6.1,6.1,0,0,1,.09,1,2,2,0,0,0,1.12.38,1.88,1.88,0,0,1-1,.73,6,6,0,0,1-.35,1.9c-0.13.49-.55,1.12-0.22,1.5,1.83,2,4.17,3.47,3.51,6.17,1.73,1.36,1.6,4,3,5.64a1.18,1.18,0,0,0,.57.16,8,8,0,0,1,2.64,1.5,6.59,6.59,0,0,1,3.88,3,7,7,0,0,1,.93,3,8.93,8.93,0,0,1,5.28,3c2,2.08,5.53,1.28,5.93,4.42,0,0.29-.76.15-0.8,0.47a0.82,0.82,0,0,0,.44.52,14.39,14.39,0,0,0,1.91,1.68c0.72,0.45,1.64.48,2.41,1l0.32,0.23a6.92,6.92,0,0,1,1.53.41c0.47-.17.92-0.35,1.36-0.53a6.74,6.74,0,0,1-.24,1.09,7.12,7.12,0,0,1,1.36,1.06c0.44,0,1.61.19,1.85,0.2l2.12,0c3.9,0,6.6,3.37,6.87,6.77,0.16,0.13.32,0.25,0.48,0.39,0.86,0.74,1,2.26,2,2.94,0.76,0.5,1.75,0,2.42.09,2.77,0.43,6.35,3.5,8.92,1.89-2.25,4.19,9,6.46,11.52,7.84l0.56,0.32a6.55,6.55,0,0,1,2.51,1.47l0.23,0a20.06,20.06,0,0,0,3.81.24,6.56,6.56,0,0,0,1.13-.36,7.23,7.23,0,0,1,5.67.93,5.5,5.5,0,0,0,1.19,1c0.91,0.3,1.92-.17,2.88-0.12s1.85,0.27,2.79.23c0.63,0,1.26-.19,1.92-0.21,0.43,0,.84.07,1.26,0.09a17.59,17.59,0,0,0,2.64.24c3.08-.4,5.61-2.53,8.61-2.18,1.16,0,2.18.66,3.29,0.71,4.55,0.19,7-1.7,10.78-3.49a2.52,2.52,0,0,0,.59-0.81,8.52,8.52,0,0,1,2.54-1.94c0.28-.15,2-1.22.53-0.09a7.56,7.56,0,0,1,6.52-1.69,7,7,0,0,1,2.22-1,7.2,7.2,0,0,1,1.87-4.06,10.8,10.8,0,0,1,3.19-2.46,10.24,10.24,0,0,1,1.15-.81,7.34,7.34,0,0,1,6.51-3.36,7.49,7.49,0,0,1,3.35-.73,6.89,6.89,0,0,1,2.79-1.54,7,7,0,0,1,4.24.2c0.23-.11.47-0.21,0.71-0.29,1.35-1.6,2.15-3.4,3.5-5.09,2.23-2.81,4.51-2.22,6.93-3.77,1-.65,1.46-2.23,2.3-3,0.47-.43,1.15.92,1.8,0.32,0.5-.46.39-1.43,0.82-1.8a17.58,17.58,0,0,0,5.23-7c1.42-3.44,3-3,5.1-5.38a15.12,15.12,0,0,0,1.29-2.4c0.89-1.51,1.85-3,2.75-4.48,0.35-.59.71-1.17,1-1.78,0.15-.28.24-0.44,0.28-0.53s0.05-.14.09-0.21a22.56,22.56,0,0,1,3.11-5.45q1-1.28,2-2.53l0.44-.53c0.07-.09.13-0.21,0.23-0.36s0.28-.28.31-0.36a2.14,2.14,0,0,0-.16-1.14,17.5,17.5,0,0,1-.46-5.28c0.48-4.43,2.76-7.36,6.35-9.8l0.34-.23,0.14-1a7.38,7.38,0,0,1,3.17-4.1c0.26-.19,1.59-1.2.72-0.52l1.15-.89,2-1.56q0.67-1.66,1.4-3.3a3.81,3.81,0,0,1,.42-1.9c0.48-.94-1.44-3.35-1-4.35,0.7-1.61-.74-2.61-0.77-4.18s1-2.78,1.15-3.6c0.26-2.09-.41-3.07,1.71-5.74,1.39-1.74-3.34-5.46-1.39-6.93,0.5-.37,1.65-2.74,2.18-3a0.51,0.51,0,0,0,.18-0.5A29.81,29.81,0,0,1,219.44,84.37ZM211,113.19a18.94,18.94,0,0,1-2.83,4,18.32,18.32,0,0,0-2.65,3.73,30.45,30.45,0,0,0-1.17,2.95,17,17,0,0,1-2.95,5.7,31.27,31.27,0,0,1-3.2,3.2,34.18,34.18,0,0,0-2.94,2.9c-4.31,5-5.82,10.6-6.77,17.5-1.68,12.24-12,18.56-22,24.66-1.73,1.06-3.52,2.15-5.22,3.25-2.18,1.41-4.23,3-6.2,4.46a60.75,60.75,0,0,1-10.3,6.75c-2.88,1.39-5.6,3-8.24,4.54s-5.33,3.13-8.16,4.5c-1.65.79-3.15,1.68-4.6,2.53-3.43,2-6.67,3.91-10.74,3.91a14.49,14.49,0,0,1-3.6-.46,33.41,33.41,0,0,0-8.33-.88c-1.36,0-2.75,0-4.08.09s-2.73.09-4.11,0.09c-1.6,0-3-.06-4.29-0.19-7-.69-11.81-4.62-16.87-9.31a119.89,119.89,0,0,0-17.37-13.07,76.76,76.76,0,0,0-7.9-4.25,67.87,67.87,0,0,1-9.08-5,52.44,52.44,0,0,0-4.85-2.86c-4-2.18-8.16-4.44-10.26-8.6-1.29-2.55-1.41-5-1.53-7.62,0-.92-0.09-1.88-0.19-2.87a17.68,17.68,0,0,0-1.37-4.78,15.27,15.27,0,0,1-1.36-5.17A15.82,15.82,0,0,1,19,137.46a18.14,18.14,0,0,0,1.11-4.52c0.2-3.34-1-5.76-2.3-8.57l-0.53-1.13c-1.6-3.43-2-7.17-2.33-10.78a40.74,40.74,0,0,0-1.53-8.8C11.14,96.77,9.5,91.28,9.19,83.28,8.59,67.85,38,36.07,45.05,30.39,53,24,58.17,20.49,67.89,16.91c5.91-2.18,20.82-6.24,30.18-6.24a20.32,20.32,0,0,1,3.84.31,32.49,32.49,0,0,1,7.15,2.26,37.6,37.6,0,0,0,6,2.07,50.49,50.49,0,0,0,7,1.13,31.73,31.73,0,0,1,9.57,2.14c1.18,0.49,3.18,2.2,5.3,4,2.41,2.05,5.14,4.38,6.54,4.74a11.09,11.09,0,0,0,2.81.31,42.79,42.79,0,0,0,5.8-.57,37.12,37.12,0,0,1,4.95-.5A26.33,26.33,0,0,1,176,34.16c4.1,4.15,5.6,6.37,8.62,11.86a45.9,45.9,0,0,0,7.08,9,53,53,0,0,1,6.45,7.85,137.25,137.25,0,0,1,9.12,18.55c3.06,7.24,4.13,12.11,4.57,20.85,0,0.71.09,1.4,0.14,2.08C212.18,107.31,212.4,110.14,211,113.19Z" transform="translate(0 0.01)"/><path class="cls-1" d="M21.37,136.73A15.44,15.44,0,0,0,20.24,142a15,15,0,0,0,1.32,5,17.27,17.27,0,0,1,1.34,4.66c0.1,1,.14,1.9.19,2.8,0.12,2.54.23,4.95,1.49,7.43,2.05,4.05,6.09,6.25,10,8.37a52.31,52.31,0,0,1,4.72,2.78,65.82,65.82,0,0,0,8.84,4.9,74.46,74.46,0,0,1,7.7,4.14,117,117,0,0,1,16.92,12.73c4.93,4.56,9.57,8.39,16.43,9.06,1.26,0.12,2.63.19,4.19,0.19,1.34,0,2.69,0,4-.09s2.65-.09,4-0.09a32.63,32.63,0,0,1,8.11.86,14.14,14.14,0,0,0,3.5.45c4,0,7.13-1.85,10.47-3.81,1.42-.83,2.88-1.69,4.48-2.46,2.76-1.33,5.4-2.88,8-4.39s5.21-3.07,8-4.42a58.92,58.92,0,0,0,10-6.57c1.92-1.46,3.91-3,6-4.34,1.66-1.07,3.4-2.14,5.08-3.17,9.73-5.95,19.79-12.1,21.42-24,0.92-6.73,2.39-12.2,6.59-17a32.69,32.69,0,0,1,2.87-2.82,30.89,30.89,0,0,0,3.12-3.12,16.63,16.63,0,0,0,2.87-5.56,29.59,29.59,0,0,1,1.14-2.87,17.9,17.9,0,0,1,2.57-3.63,18.49,18.49,0,0,0,2.76-3.94c1.37-3,1.16-5.73.94-8.65-0.05-.66-0.1-1.34-0.14-2-0.43-8.52-1.47-13.26-4.46-20.31A133.08,133.08,0,0,0,195.85,64a51.44,51.44,0,0,0-6.28-7.65,44.78,44.78,0,0,1-6.9-8.72c-2.95-5.35-4.4-7.51-8.4-11.56a25.65,25.65,0,0,0-18.4-7.39,36.37,36.37,0,0,0-4.82.49,41.36,41.36,0,0,1-5.65.55,10.85,10.85,0,0,1-2.73-.3c-1.36-.35-4-2.62-6.36-4.62a29.1,29.1,0,0,0-5.17-3.91,30.87,30.87,0,0,0-9.33-2.08,49.51,49.51,0,0,1-6.83-1.1,36.68,36.68,0,0,1-5.89-2,31.76,31.76,0,0,0-7-2.2,19.77,19.77,0,0,0-3.74-.31c-9.11,0-23.65,4-29.4,6.08-9.47,3.49-14.52,6.87-22.25,13.13C39.92,38,11.23,68.92,11.81,84c0.3,7.8,1.9,13.15,4.11,19.85a39.49,39.49,0,0,1,1.49,8.57c0.35,3.52.71,7.16,2.27,10.51l0.52,1.1c1.31,2.74,2.44,5.1,2.24,8.35A17.62,17.62,0,0,1,21.37,136.73Zm-0.73-13-0.52-1.09c-1.53-3.27-1.89-6.87-2.23-10.35a39.81,39.81,0,0,0-1.52-8.67c-2.21-6.67-3.79-12-4.09-19.72C11.7,69.06,40.24,38.3,47,32.79c7.69-6.23,12.71-9.58,22.11-13,5.73-2.11,20.18-6.05,29.24-6.05A19.24,19.24,0,0,1,102,14a31.38,31.38,0,0,1,6.87,2.17,36.87,36.87,0,0,0,6,2,49.73,49.73,0,0,0,6.89,1.11,30.43,30.43,0,0,1,9.2,2,29.45,29.45,0,0,1,5,3.84c2.5,2.13,5.08,4.33,6.55,4.72a11.28,11.28,0,0,0,2.85.31,41.38,41.38,0,0,0,5.71-.56,35.93,35.93,0,0,1,4.79-.48h0a25.17,25.17,0,0,1,18,7.25c4,4,5.4,6.15,8.32,11.45a45.07,45.07,0,0,0,7,8.81,51.15,51.15,0,0,1,6.23,7.57,133,133,0,0,1,8.85,18c3,7,4,11.7,4.42,20.15,0,0.7.09,1.38,0.14,2,0.22,2.86.43,5.56-.9,8.42a18.15,18.15,0,0,1-2.69,3.84,18.66,18.66,0,0,0-2.64,3.73,29.25,29.25,0,0,0-1.16,2.92,16.18,16.18,0,0,1-2.79,5.41,30.55,30.55,0,0,1-3.07,3.07,33.72,33.72,0,0,0-2.9,2.86c-4.27,4.94-5.77,10.48-6.7,17.29-1.6,11.71-11.57,17.8-21.2,23.69-1.69,1-3.43,2.1-5.09,3.17-2.15,1.39-4.14,2.9-6.07,4.36a58.56,58.56,0,0,1-10,6.53c-2.82,1.36-5.48,2.93-8.05,4.44s-5.18,3-7.92,4.37c-1.62.78-3.09,1.65-4.52,2.48-3.43,2-6.39,3.75-10.23,3.75a13.93,13.93,0,0,1-3.39-.44,33,33,0,0,0-8.22-.87c-1.33,0-2.69,0-4,.09s-2.65.09-4,.09c-1.54,0-2.9-.06-4.14-0.18-6.72-.66-11.29-4.44-16.16-8.94a117.45,117.45,0,0,0-17-12.78,75.77,75.77,0,0,0-7.74-4.17,65.91,65.91,0,0,1-8.78-4.86,52.36,52.36,0,0,0-4.77-2.81C31,167.8,27,165.64,25,161.71a16.84,16.84,0,0,1-1.44-7.24c0-.91-0.09-1.85-0.19-2.82A17.71,17.71,0,0,0,22,146.87,14.36,14.36,0,0,1,20.71,142a15.08,15.08,0,0,1,1.1-5.13,17.84,17.84,0,0,0,1.11-4.53C23.13,129,21.92,126.45,20.64,123.77Z" transform="translate(0 0.01)"/><path class="cls-1" d="M48.93,128.93c0.06,1.36.09,2.73,0.12,4.06,0.17,8,.33,15.58,8.18,20.77a54.56,54.56,0,0,0,7.47,3.9A62.65,62.65,0,0,1,71.33,161a83.07,83.07,0,0,1,9.76,7.32l1.6,1.32c5.11,4.21,13.33,9.23,23.43,9.23,1,0,2,0,2.93-.15,9.77-1,17.43-5.71,25.06-10.9,2.16-1.47,4.32-2.74,6.41-4,5.68-3.35,11-6.51,15.08-12.82a38.7,38.7,0,0,0,3.75-8.46c0.62-1.76,1.26-3.58,2.06-5.36a71.1,71.1,0,0,1,4.54-8c1.21-1.94,2.46-3.94,3.52-6,1.27-2.42,2.71-4.61,4.1-6.72,3.69-5.6,7.16-10.9,6.36-19-0.67-6.81-4.34-11.68-8.23-16.84-1.35-1.79-2.74-3.64-4-5.58-1.11-1.71-2.11-3.4-3.08-5-3.9-6.59-7.28-12.29-15.29-15.58-3.93-1.62-8.44-1.82-12.81-2l-1.42-.06c-0.64,0-1.29,0-1.94-.05a20.79,20.79,0,0,1-5.57-.59,16.24,16.24,0,0,1-3.36-1.61,19.18,19.18,0,0,0-3.09-1.54,39.14,39.14,0,0,0-13.58-2.65c-2.54,0-5-.23-7.4-0.44S95.36,45,92.88,45C84,45,76.65,47.66,67.45,54.1c-6.88,4.81-11.73,9.31-15.26,14.18a37.77,37.77,0,0,0-3.52,6.38c-0.25.53-.5,1.07-0.77,1.6a44.5,44.5,0,0,1-2.29,4,31.75,31.75,0,0,0-3.07,5.8c-1.57,4.32-1.4,10.59-.73,15a71.21,71.21,0,0,0,3.41,12.33C46.91,118.33,48.66,123.42,48.93,128.93ZM43,86.21a31.5,31.5,0,0,1,3-5.71,44.53,44.53,0,0,0,2.31-4c0.26-.54.52-1.08,0.77-1.61a37.75,37.75,0,0,1,3.48-6.31c3.5-4.82,8.31-9.29,15.15-14.07,9.12-6.38,16.41-9,25.16-9,2.46,0,4.89.22,7.23,0.44s4.88,0.44,7.44.44A38.73,38.73,0,0,1,121,49a18.91,18.91,0,0,1,3,1.51,16.89,16.89,0,0,0,3.45,1.66,21.21,21.21,0,0,0,5.7.61c0.65,0,1.29,0,1.93.05l1.42,0.06c4.32,0.19,8.79.39,12.65,2,7.87,3.24,11.21,8.87,15.07,15.39,1,1.64,2,3.34,3.09,5.06,1.27,2,2.67,3.81,4,5.61,3.84,5.1,7.47,9.92,8.13,16.6,0.79,8-2.65,13.18-6.29,18.71A78.8,78.8,0,0,0,169,123c-1.05,2-2.29,4-3.5,5.93A70.52,70.52,0,0,0,161,137c-0.81,1.8-1.46,3.63-2.08,5.4a38.42,38.42,0,0,1-3.7,8.36c-4,6.21-9.3,9.35-14.93,12.67-2.1,1.24-4.26,2.52-6.43,4-7.58,5.16-15.18,9.87-24.84,10.83-1,.09-1.92.14-2.88,0.14-10,0-18.08-5-23.13-9.12L81.38,168a83.1,83.1,0,0,0-9.81-7.36,63.23,63.23,0,0,0-6.68-3.39,54.2,54.2,0,0,1-7.4-3.86c-7.65-5.06-7.81-12.51-8-20.4,0-1.33-.06-2.71-0.12-4.07-0.27-5.57-2-10.7-3.73-15.65A70.79,70.79,0,0,1,42.26,101C41.6,96.63,41.44,90.45,43,86.21Z" transform="translate(0 0.01)"/><path class="cls-1" d="M46.31,139.87l-0.21,1.2c-0.81,4.6-1.4,7.93,2.69,11.94,3.42,3.35,8,5.31,12.75,7.2,6.72,2.65,12,6.72,17.49,11,1.42,1.1,2.88,2.24,4.38,3.35a32.94,32.94,0,0,0,13.18,5.9,49.18,49.18,0,0,1,4.92,1.55c3.11,1.1,6.34,2.23,9.34,2.23H111c4.11,0,8.54-1.88,13.54-5.62,4-3,8-5.71,12.94-8.7a129.42,129.42,0,0,0,12.72-8.49c1.07-.84,2.17-1.65,3.34-2.49,3.78-2.75,7.69-5.59,10.07-9.61,2.65-4.47,3.88-9.59,5.07-14.54l0.09-.37c1.27-5.29,4.37-9.15,7.53-12.54,0.45-.49.93-1,1.42-1.48,3.35-3.47,7.15-7.4,7.15-12.56,0-3.66-1.17-7.88-2.2-11.6-0.34-1.21-.65-2.35-0.92-3.44a12.62,12.62,0,0,0-2.67-4.91,25.66,25.66,0,0,1-1.54-2.17,19.6,19.6,0,0,1-1.5-3.24,17.85,17.85,0,0,0-1.84-3.79,24.54,24.54,0,0,0-2.47-2.9,29.84,29.84,0,0,1-2.06-2.35,27.39,27.39,0,0,1-2-3.15c-0.46-.82-0.95-1.68-1.5-2.49a47.23,47.23,0,0,1-3.07-5.58,40.23,40.23,0,0,0-3.59-6.31c-3.46-4.64-8.66-5.12-13.25-5.55-0.51,0-1.08-.07-1.76-0.07-0.95,0-1.95,0-3,.09s-2.22.1-3.31,0.1c-2.88,0-4.77-.36-6.12-1.17A7.11,7.11,0,0,1,129.89,47a8.73,8.73,0,0,0-2-2.27A6.14,6.14,0,0,0,124,43.59l-1.17,0a19.48,19.48,0,0,1-2.24,0,33.61,33.61,0,0,1-12.75-4.07A14.37,14.37,0,0,0,101,37.6a17.08,17.08,0,0,0-6.8,1.67,27.12,27.12,0,0,1-8.81,1.78c-1.53.13-3.11,0.27-4.79,0.55-3.94.66-7.77,3.28-11.35,5.91a86.41,86.41,0,0,0-15,14.31c-1.17,1.4-2.5,2.81-3.78,4.19a57.11,57.11,0,0,0-6.57,7.9A43.17,43.17,0,0,0,38.53,86a32.51,32.51,0,0,0-.09,14.21A41,41,0,0,0,41,107.64c0.57,1.37,1.16,2.78,1.67,4.25C45.3,119.48,48.07,129.52,46.31,139.87Zm-7.4-39.78a32,32,0,0,1,.09-14,42.52,42.52,0,0,1,5.33-11.93,56.8,56.8,0,0,1,6.52-7.83c1.29-1.38,2.63-2.81,3.8-4.21a86.09,86.09,0,0,1,14.9-14.23c3.54-2.6,7.32-5.19,11.15-5.83,1.66-.28,3.23-0.41,4.76-0.55a27.56,27.56,0,0,0,9-1.82A16.66,16.66,0,0,1,101,38.06a13.93,13.93,0,0,1,6.59,1.88,34.07,34.07,0,0,0,12.93,4.12,19.61,19.61,0,0,0,2.3,0L124,44a5.73,5.73,0,0,1,3.67,1,8.53,8.53,0,0,1,1.85,2.16,7.63,7.63,0,0,0,2.31,2.49c1.43,0.85,3.39,1.24,6.36,1.24,1.1,0,2.24-.05,3.33-0.1s2.05-.09,3-0.09c0.66,0,1.22,0,1.71.07,4.49,0.42,9.59.89,12.92,5.36a40,40,0,0,1,3.55,6.23,48,48,0,0,0,3.11,5.64c0.54,0.8,1,1.65,1.48,2.46a28.09,28.09,0,0,0,2,3.2,30.28,30.28,0,0,0,2.1,2.38A24.54,24.54,0,0,1,173.8,79a17.52,17.52,0,0,1,1.79,3.69A19.85,19.85,0,0,0,177.12,86a26.27,26.27,0,0,0,1.57,2.21,12.29,12.29,0,0,1,2.59,4.74c0.27,1.1.59,2.24,0.92,3.45,1,3.7,2.18,7.89,2.18,11.48,0,5-3.73,8.82-7,12.23-0.49.51-1,1-1.43,1.49-3.2,3.43-6.35,7.34-7.65,12.74l-0.09.37c-1.19,4.92-2.41,10-5,14.41-2.33,3.94-6.2,6.75-9.94,9.47-1.12.82-2.28,1.66-3.36,2.51a129,129,0,0,1-12.68,8.46c-4.92,3-8.92,5.69-13,8.73-4.92,3.68-9.26,5.48-13.27,5.53h-0.12c-2.92,0-6.1-1.12-9.18-2.21a49.63,49.63,0,0,0-5-1.57,32.55,32.55,0,0,1-13-5.81c-1.5-1.12-3-2.26-4.37-3.35-5.56-4.32-10.82-8.4-17.6-11.08-4.73-1.87-9.24-3.81-12.6-7.1-3.92-3.84-3.38-6.9-2.56-11.53,0.07-.39.14-0.79,0.21-1.2,1.78-10.44-1-20.56-3.65-28.21-0.51-1.48-1.1-2.9-1.68-4.28A40.76,40.76,0,0,1,38.91,100.08Z" transform="translate(0 0.01)"/><path class="cls-1" d="M52.08,128.06c0.06,1.29.09,2.59,0.12,3.85,0.16,7.6.31,14.79,7.77,19.72a51.63,51.63,0,0,0,7.09,3.7,59.66,59.66,0,0,1,6.29,3.19,79.16,79.16,0,0,1,9.26,6.95l1.51,1.25c4.85,4,12.65,8.76,22.24,8.76,0.93,0,1.86,0,2.78-.14,9.27-.92,16.54-5.42,23.77-10.35,2-1.39,4.1-2.6,6.08-3.77,5.39-3.18,10.48-6.18,14.31-12.16a37,37,0,0,0,3.56-8c0.59-1.67,1.19-3.4,2-5.09a66.6,66.6,0,0,1,4.31-7.63c1.15-1.84,2.33-3.74,3.34-5.65a74.32,74.32,0,0,1,3.89-6.38c3.5-5.32,6.8-10.34,6-18-0.64-6.47-4.12-11.09-7.8-16-1.28-1.7-2.6-3.45-3.8-5.29-1.05-1.62-2-3.23-2.92-4.78-3.71-6.26-6.9-11.66-14.52-14.79-3.73-1.54-8-1.73-12.16-1.91l-1.35-.06c-0.61,0-1.23,0-1.84-.05a19.64,19.64,0,0,1-5.28-.56,15.54,15.54,0,0,1-3.18-1.53,18.29,18.29,0,0,0-2.94-1.47,37.19,37.19,0,0,0-12.89-2.52c-2.41,0-4.75-.21-7-0.42s-4.55-.42-6.91-0.42c-8.4,0-15.39,2.49-24.13,8.6-6.53,4.56-11.13,8.84-14.48,13.46a36.18,36.18,0,0,0-3.35,6.06q-0.36.76-.73,1.52a42.26,42.26,0,0,1-2.17,3.78A30.07,30.07,0,0,0,46,87.38c-1.49,4.1-1.33,10.05-.69,14.25a67.45,67.45,0,0,0,3.24,11.7C50.17,118,51.83,122.83,52.08,128.06ZM46.45,87.54a29.78,29.78,0,0,1,2.87-5.42,41.81,41.81,0,0,0,2.19-3.82l0.73-1.53a35.58,35.58,0,0,1,3.3-6c3.32-4.57,7.88-8.81,14.37-13.35,8.65-6,15.56-8.52,23.87-8.52,2.33,0,4.64.21,6.86,0.41s4.63,0.42,7.06.42a36.74,36.74,0,0,1,12.73,2.49,17.72,17.72,0,0,1,2.86,1.43,15.71,15.71,0,0,0,3.28,1.57,20,20,0,0,0,5.4.58c0.62,0,1.23,0,1.83.05l1.35,0.06c4.1,0.18,8.34.37,12,1.87,7.46,3.07,10.63,8.41,14.29,14.6,0.92,1.56,1.88,3.17,2.93,4.8,1.2,1.85,2.53,3.62,3.81,5.32,3.65,4.84,7.09,9.41,7.72,15.74,0.75,7.54-2.52,12.5-6,17.75-1.32,2-2.69,4.1-3.91,6.42-1,1.9-2.18,3.79-3.32,5.62a67.11,67.11,0,0,0-4.34,7.69c-0.77,1.71-1.38,3.44-2,5.12a36.5,36.5,0,0,1-3.51,7.93c-3.77,5.89-8.82,8.87-14.15,12-2,1.17-4.05,2.39-6.1,3.79-7.19,4.89-14.4,9.36-23.56,10.27a27.3,27.3,0,0,1-2.73.14c-9.45,0-17.15-4.7-21.94-8.65l-1.51-1.25a79.12,79.12,0,0,0-9.31-7,60.52,60.52,0,0,0-6.34-3.21,51.36,51.36,0,0,1-7-3.66c-7.25-4.8-7.4-11.86-7.56-19.35,0-1.26-.06-2.57-0.12-3.86-0.26-5.29-1.93-10.15-3.54-14.85a67,67,0,0,1-3.22-11.62C45.15,97.42,45,91.55,46.45,87.54Z" transform="translate(0 0.01)"/><path class="cls-1" d="M34.23,142.23c-0.09.47-.17,0.92-0.26,1.37-1,5.24-1.74,9,3,13.66,4,3.86,9.29,6.16,14.86,8.37,7.86,3.11,13.95,7.82,20.4,12.8,1.65,1.27,3.36,2.59,5.1,3.89a39.16,39.16,0,0,0,15.37,6.89A60,60,0,0,1,98.46,191c3.69,1.31,7.5,2.66,11,2.66h0c4.81,0,10-2.05,15.93-6.27,4.78-3.41,9.49-6.43,15.29-9.81a151.53,151.53,0,0,0,15-9.56c1.26-.95,2.57-1.85,3.95-2.81,4.46-3.1,9.08-6.3,11.92-10.86,3.16-5.08,4.67-10.93,6.12-16.57l0.1-.4c1.56-6.05,5.24-10.43,9-14.26,0.54-.55,1.11-1.11,1.68-1.68,4-3.93,8.47-8.37,8.53-14.25,0-4.18-1.27-9-2.44-13.29-0.38-1.39-.74-2.7-1-3.94a14.38,14.38,0,0,0-3.07-5.63,28.86,28.86,0,0,1-1.79-2.5A22.12,22.12,0,0,1,187,78.12a20.31,20.31,0,0,0-2.11-4.35A28.81,28.81,0,0,0,182,70.42a34.17,34.17,0,0,1-2.39-2.71,30.58,30.58,0,0,1-2.28-3.63c-0.53-.95-1.09-1.93-1.73-2.87a53.38,53.38,0,0,1-3.54-6.43A45.72,45.72,0,0,0,168,47.54c-4-5.33-10.08-5.94-15.45-6.48C151.82,41,151,41,150.07,41s-2,0-3.15.07-2.29.08-3.43,0.08c-2.45,0-5.54-.16-7.65-1.42A8.23,8.23,0,0,1,133.32,37a10,10,0,0,0-2.26-2.61A7.53,7.53,0,0,0,126.26,33l-1.17,0-1.19,0c-0.55,0-1,0-1.44-.06a40.16,40.16,0,0,1-14.93-4.8,17,17,0,0,0-8.07-2.28,20.59,20.59,0,0,0-7.85,1.83c-3.52,1.43-6.85,1.68-10.36,1.94-1.8.14-3.65,0.27-5.62,0.57-4.61.7-9.13,3.66-13.37,6.62A100.46,100.46,0,0,0,44.52,53.08c-1.39,1.58-3,3.19-4.49,4.75a66.22,66.22,0,0,0-7.8,8.94A48.53,48.53,0,0,0,25.77,80.5a36.19,36.19,0,0,0-.27,16.23,46.71,46.71,0,0,0,2.91,8.55c0.66,1.57,1.33,3.19,1.91,4.88C33.29,118.89,36.43,130.42,34.23,142.23ZM30.75,110c-0.58-1.7-1.26-3.33-1.92-4.91a45.19,45.19,0,0,1-2.89-8.46,35.75,35.75,0,0,1,.27-16A48.05,48.05,0,0,1,32.61,67a65.52,65.52,0,0,1,7.74-8.88c1.53-1.56,3.12-3.18,4.51-4.77A99.9,99.9,0,0,1,62.51,37.28c4.19-2.94,8.66-5.85,13.17-6.55,2-.3,3.8-0.44,5.59-0.57,3.56-.27,6.92-0.52,10.51-2a20.18,20.18,0,0,1,7.67-1.8,16.58,16.58,0,0,1,7.86,2.23,40.61,40.61,0,0,0,15.1,4.85c0.44,0,.92.06,1.49,0.06l1.21,0,1.15,0a7,7,0,0,1,4.51,1.23,9.73,9.73,0,0,1,2.15,2.5,8.72,8.72,0,0,0,2.67,2.86c2.21,1.32,5.37,1.49,7.89,1.49,1.15,0,2.32,0,3.45-.08s2.14-.07,3.13-0.07a23.61,23.61,0,0,1,2.39.1c5.27,0.53,11.26,1.13,15.12,6.3A45.49,45.49,0,0,1,171.66,55a53.69,53.69,0,0,0,3.58,6.48c0.63,0.92,1.18,1.9,1.71,2.83A30.87,30.87,0,0,0,179.26,68a34.17,34.17,0,0,0,2.42,2.75A28.33,28.33,0,0,1,184.5,74a19.82,19.82,0,0,1,2.06,4.25,22.43,22.43,0,0,0,1.76,3.8,29.48,29.48,0,0,0,1.81,2.54,14,14,0,0,1,3,5.46c0.3,1.25.66,2.57,1,4,1.15,4.24,2.47,9,2.42,13.16-0.06,5.69-4.48,10.06-8.39,13.93-0.58.57-1.15,1.14-1.69,1.69-3.79,3.88-7.52,8.32-9.11,14.47l-0.1.4c-1.45,5.62-2.94,11.42-6.07,16.45-2.79,4.48-7.36,7.65-11.79,10.73-1.32.92-2.69,1.87-4,2.82a150.41,150.41,0,0,1-15,9.53c-5.81,3.38-10.53,6.41-15.32,9.83-5.83,4.15-10.95,6.18-15.66,6.18v0c-3.47,0-7.24-1.34-10.89-2.63-2-.72-4-1.4-5.8-1.85a38.67,38.67,0,0,1-15.2-6.8c-1.74-1.3-3.44-2.61-5.1-3.89C66,173,59.92,168.32,52,165.18c-5.53-2.19-10.81-4.47-14.7-8.27-4.56-4.45-3.89-7.95-2.87-13.24l0.26-1.37C36.9,130.4,33.75,118.79,30.75,110Z" transform="translate(0 0.01)"/><path class="cls-1" d="M41.35,139.51c-0.08.43-.16,0.84-0.24,1.24-0.91,4.77-1.57,8.21,2.73,12.41,3.58,3.5,8.4,5.59,13.44,7.6,7.1,2.82,12.61,7.09,18.44,11.6,1.49,1.16,3,2.35,4.62,3.53a35.31,35.31,0,0,0,13.91,6.24c1.63,0.4,3.37,1,5.2,1.66,3.34,1.19,6.79,2.41,10,2.41h0c4.35,0,9.07-1.86,14.42-5.69,4.33-3.09,8.59-5.83,13.83-8.89A136.84,136.84,0,0,0,151.3,163c1.14-.86,2.32-1.68,3.57-2.55,4-2.81,8.22-5.72,10.79-9.86,2.86-4.61,4.22-9.91,5.54-15l0.1-.37c1.41-5.48,4.74-9.45,8.13-12.93,0.49-.5,1-1,1.52-1.52,3.59-3.56,7.66-7.6,7.72-12.94,0-3.8-1.15-8.19-2.21-12.06-0.35-1.26-.67-2.44-0.94-3.58A13.07,13.07,0,0,0,182.73,87a26.48,26.48,0,0,1-1.61-2.26,20.27,20.27,0,0,1-1.56-3.38,18.35,18.35,0,0,0-1.91-3.95,25.88,25.88,0,0,0-2.59-3,31.51,31.51,0,0,1-2.16-2.45,28.59,28.59,0,0,1-2.06-3.29c-0.48-.86-1-1.75-1.56-2.6a48.87,48.87,0,0,1-3.2-5.83,41.6,41.6,0,0,0-3.74-6.57c-3.61-4.84-9.13-5.4-14-5.89-0.62-.06-1.34-0.09-2.21-0.09s-1.85,0-2.85.06-2.07.07-3.1,0.07c-2.22,0-5-.15-6.91-1.28A7.44,7.44,0,0,1,131,44a9.22,9.22,0,0,0-2-2.37,6.81,6.81,0,0,0-4.35-1.2l-1.06,0-1.08,0c-0.5,0-.91,0-1.3-0.06a36.24,36.24,0,0,1-13.5-4.35A15.4,15.4,0,0,0,100.36,34a18.66,18.66,0,0,0-7.1,1.67,29.41,29.41,0,0,1-9.37,1.76c-1.62.12-3.31,0.25-5.09,0.52-4.18.64-8.27,3.32-12.1,6a90.93,90.93,0,0,0-16,14.68C49.4,60.1,48,61.56,46.59,63a60.23,60.23,0,0,0-7.06,8.12,44.11,44.11,0,0,0-5.85,12.45,33,33,0,0,0-.25,14.73A42.1,42.1,0,0,0,36.06,106c0.6,1.43,1.21,2.9,1.73,4.43C40.49,118.36,43.33,128.81,41.35,139.51ZM38.23,110.3c-0.52-1.54-1.14-3-1.73-4.45a41,41,0,0,1-2.61-7.67,32.47,32.47,0,0,1,.24-14.52,43.61,43.61,0,0,1,5.78-12.32,59.45,59.45,0,0,1,7-8C48.31,61.88,49.74,60.41,51,59a90.63,90.63,0,0,1,16-14.6c3.79-2.66,7.83-5.31,11.9-5.93,1.77-.27,3.44-0.4,5.05-0.52a29.75,29.75,0,0,0,9.51-1.79,18.2,18.2,0,0,1,6.93-1.63,15,15,0,0,1,7.1,2,36.68,36.68,0,0,0,13.67,4.4c0.4,0,.83.06,1.35,0.06l1.09,0,1,0A6.27,6.27,0,0,1,128.68,42a8.81,8.81,0,0,1,1.94,2.26,8,8,0,0,0,2.42,2.6c2,1.2,4.87,1.35,7.15,1.35,1,0,2.1,0,3.12-.07s1.94-.06,2.84-0.06a21.07,21.07,0,0,1,2.16.09c4.77,0.48,10.17,1,13.66,5.7a41.18,41.18,0,0,1,3.7,6.5,49.3,49.3,0,0,0,3.23,5.88c0.57,0.84,1.06,1.72,1.54,2.57a28.13,28.13,0,0,0,2.1,3.34,31.33,31.33,0,0,0,2.19,2.49,25.86,25.86,0,0,1,2.54,3,18.07,18.07,0,0,1,1.86,3.85A20,20,0,0,0,180.72,85a27.08,27.08,0,0,0,1.64,2.3,12.66,12.66,0,0,1,2.7,4.94c0.28,1.14.6,2.33,0.94,3.59,1,3.85,2.23,8.2,2.19,11.93-0.05,5.15-4.05,9.12-7.58,12.61-0.52.52-1,1-1.52,1.53-3.44,3.52-6.81,7.55-8.25,13.13l-0.1.38c-1.31,5.09-2.66,10.35-5.48,14.9-2.52,4.06-6.65,6.94-10.65,9.72-1.2.83-2.44,1.7-3.59,2.56a137,137,0,0,1-13.54,8.64c-5.25,3.06-9.52,5.81-13.86,8.91-5.27,3.76-9.9,5.6-14.15,5.6v0c-3.14,0-6.54-1.21-9.85-2.39a54.82,54.82,0,0,0-5.25-1.68,34.91,34.91,0,0,1-13.74-6.17C79,174.34,77.5,173.15,76,172c-5.86-4.54-11.39-8.82-18.56-11.67-5-2-9.77-4.05-13.29-7.49-4.12-4-3.51-7.19-2.59-12l0.24-1.24C43.81,128.79,40.95,118.26,38.23,110.3Z" transform="translate(0 0.01)"/><path class="cls-1" d="M37.77,140.78l-0.25,1.3c-1,5-1.66,8.6,2.87,13,3.78,3.68,8.86,5.86,14.17,8,7.49,3,13.3,7.44,19.45,12.18,1.57,1.21,3.2,2.47,4.87,3.7a37.32,37.32,0,0,0,14.66,6.55A56.6,56.6,0,0,1,99,187.25c3.52,1.24,7.15,2.53,10.54,2.53h0c4.59,0,9.56-2,15.19-6,4.56-3.25,9.06-6.12,14.58-9.33a144.1,144.1,0,0,0,14.33-9.1c1.2-.9,2.45-1.77,3.77-2.68,4.26-2.95,8.66-6,11.37-10.34,3-4.84,4.45-10.4,5.84-15.77l0.1-.39c1.49-5.75,5-9.92,8.57-13.57l1.6-1.6c3.79-3.74,8.08-8,8.14-13.57,0-4-1.22-8.59-2.33-12.65-0.36-1.32-.7-2.57-1-3.75a13.68,13.68,0,0,0-2.93-5.36,28.1,28.1,0,0,1-1.7-2.38,21.23,21.23,0,0,1-1.64-3.54,19.15,19.15,0,0,0-2-4.14,27.68,27.68,0,0,0-2.73-3.19,32.76,32.76,0,0,1-2.28-2.58,29.4,29.4,0,0,1-2.17-3.45c-0.51-.9-1-1.83-1.65-2.73a51.41,51.41,0,0,1-3.38-6.12,43.62,43.62,0,0,0-3.95-6.9c-3.81-5.08-9.61-5.66-14.74-6.17-0.65-.06-1.41-0.1-2.32-0.1s-2,0-3,.07-2.19.07-3.27,0.07c-2.34,0-5.28-.15-7.29-1.35a7.87,7.87,0,0,1-2.4-2.59,9.74,9.74,0,0,0-2.16-2.49,7.2,7.2,0,0,0-4.57-1.26l-1.11,0-1.14,0c-0.53,0-1,0-1.37-.06a38.32,38.32,0,0,1-14.24-4.57A16.3,16.3,0,0,0,100,30.09a19.7,19.7,0,0,0-7.48,1.75,31.1,31.1,0,0,1-9.89,1.85c-1.72.13-3.49,0.26-5.36,0.55-4.4.67-8.71,3.48-12.75,6.31a95.65,95.65,0,0,0-16.92,15.4c-1.32,1.51-2.83,3-4.28,4.52A62.7,62.7,0,0,0,35.86,69,46.23,46.23,0,0,0,29.7,82a34.39,34.39,0,0,0-.26,15.45,44,44,0,0,0,2.78,8.14c0.62,1.49,1.27,3,1.82,4.65C36.87,118.58,39.86,129.54,37.77,140.78Zm-3.31-30.66c-0.56-1.62-1.2-3.17-1.83-4.67a43.13,43.13,0,0,1-2.75-8.05,33.94,33.94,0,0,1,.26-15.24,45.67,45.67,0,0,1,6.1-12.93,62.5,62.5,0,0,1,7.38-8.45c1.46-1.49,3-3,4.3-4.54A95.32,95.32,0,0,1,64.76,40.92c4-2.79,8.25-5.57,12.56-6.23,1.86-.28,3.62-0.41,5.33-0.54a31.42,31.42,0,0,0,10-1.88A19.23,19.23,0,0,1,100,30.56a15.86,15.86,0,0,1,7.49,2.12,38.8,38.8,0,0,0,14.41,4.62c0.43,0,.88.06,1.42,0.06l1.15,0,1.1,0a6.64,6.64,0,0,1,4.3,1.17,9.27,9.27,0,0,1,2.05,2.38,8.38,8.38,0,0,0,2.55,2.73c2.1,1.26,5.13,1.41,7.53,1.41,1.1,0,2.21,0,3.29-.07s2-.07,3-0.07a22.6,22.6,0,0,1,2.27.1c5,0.5,10.73,1.08,14.42,6a43.06,43.06,0,0,1,3.9,6.82,51.06,51.06,0,0,0,3.41,6.17c0.6,0.88,1.12,1.8,1.63,2.7a30.16,30.16,0,0,0,2.21,3.5,32.25,32.25,0,0,0,2.31,2.61,27,27,0,0,1,2.69,3.13,18.74,18.74,0,0,1,2,4,21.43,21.43,0,0,0,1.68,3.62A28.75,28.75,0,0,0,186.46,86a13.37,13.37,0,0,1,2.85,5.19c0.29,1.19.63,2.44,1,3.77,1.1,4,2.35,8.61,2.31,12.52-0.06,5.41-4.27,9.57-8,13.25-0.55.54-1.1,1.08-1.61,1.6-3.62,3.69-7.18,7.92-8.69,13.78l-0.1.39c-1.38,5.34-2.81,10.87-5.78,15.64-2.66,4.26-7,7.28-11.24,10.2-1.26.88-2.57,1.78-3.78,2.69a144.63,144.63,0,0,1-14.28,9.07c-5.53,3.21-10,6.1-14.62,9.35-5.56,4-10.44,5.87-14.93,5.88v0c-3.31,0-6.91-1.27-10.39-2.51A57.24,57.24,0,0,0,93.66,185a36.89,36.89,0,0,1-14.49-6.48c-1.66-1.23-3.29-2.49-4.86-3.7-6.18-4.76-12-9.26-19.56-12.24-5.27-2.08-10.31-4.25-14-7.87C36.37,150.53,37,147.2,38,142.17l0.25-1.3C40.34,129.52,37.32,118.48,34.46,110.13Z" transform="translate(0 0.01)"/></g><path class="cls-1" d="M19,137.46a15.75,15.75,0,0,0-1.16,5.43,15.43,15.43,0,0,0,1.36,5.17,17.65,17.65,0,0,1,1.37,4.78c0.1,1,.15,1.95.19,2.87,0.12,2.61.24,5.08,1.53,7.62,2.1,4.16,6.25,6.41,10.26,8.6a53.49,53.49,0,0,1,4.85,2.86,67.53,67.53,0,0,0,9.08,5,76.76,76.76,0,0,1,7.9,4.25,120.25,120.25,0,0,1,17.37,13.07c5.06,4.68,9.83,8.61,16.87,9.31,1.29,0.13,2.69.19,4.29,0.19,1.38,0,2.76,0,4.11-.09s2.72-.09,4.08-0.09a33.32,33.32,0,0,1,8.33.88,14.63,14.63,0,0,0,3.6.46c4.07,0,7.31-1.9,10.74-3.91,1.45-.85,3-1.73,4.6-2.53,2.84-1.37,5.54-3,8.16-4.5s5.35-3.15,8.24-4.54a60.68,60.68,0,0,0,10.3-6.75c2-1.5,4-3,6.2-4.46,1.71-1.1,3.49-2.19,5.22-3.25,10-6.11,20.31-12.42,22-24.66,0.95-6.9,2.46-12.52,6.77-17.5a33.74,33.74,0,0,1,2.94-2.9,31.07,31.07,0,0,0,3.2-3.2,17,17,0,0,0,2.95-5.7A30,30,0,0,1,205.5,121a18.47,18.47,0,0,1,2.65-3.73,18.88,18.88,0,0,0,2.83-4c1.41-3.05,1.19-5.88,1-8.88-0.05-.68-0.1-1.37-0.14-2.08-0.44-8.74-1.51-13.62-4.57-20.85a137.32,137.32,0,0,0-9.12-18.55A53,53,0,0,0,191.66,55a45.76,45.76,0,0,1-7.08-9c-3-5.49-4.52-7.71-8.62-11.86a26.33,26.33,0,0,0-18.89-7.59,37.12,37.12,0,0,0-4.95.5,42.79,42.79,0,0,1-5.8.57,11.09,11.09,0,0,1-2.81-.31c-1.4-.36-4.13-2.69-6.54-4.74-2.12-1.81-4.13-3.52-5.3-4a31.75,31.75,0,0,0-9.57-2.14,50.49,50.49,0,0,1-7-1.13,37.6,37.6,0,0,1-6-2.07A32.67,32.67,0,0,0,101.9,11a20.28,20.28,0,0,0-3.84-.31c-9.35,0-24.27,4.06-30.18,6.24C58.16,20.49,53,24,45,30.39,38,36.07,8.59,67.85,9.19,83.28c0.31,8,1.94,13.49,4.22,20.38a40.76,40.76,0,0,1,1.53,8.8c0.36,3.61.73,7.35,2.33,10.78l0.53,1.13c1.34,2.81,2.51,5.23,2.3,8.57A18.12,18.12,0,0,1,19,137.46Zm-0.77-13.3L17.7,123c-1.57-3.36-1.94-7.06-2.29-10.63a40.7,40.7,0,0,0-1.56-8.9C11.58,96.66,10,91.2,9.65,83.26,9.06,68,38.36,36.4,45.35,30.75c7.9-6.39,13-9.84,22.7-13.4,5.88-2.17,20.72-6.21,30-6.21a19.69,19.69,0,0,1,3.75.31,32.21,32.21,0,0,1,7.06,2.23A37.83,37.83,0,0,0,115,15.77a51.69,51.69,0,0,0,7.07,1.14A31.31,31.31,0,0,1,131.5,19,30.33,30.33,0,0,1,136.68,23c2.57,2.19,5.22,4.45,6.72,4.84a11.55,11.55,0,0,0,2.92.32,42.67,42.67,0,0,0,5.86-.57,37,37,0,0,1,4.91-.5,25.84,25.84,0,0,1,18.53,7.45c4.06,4.11,5.55,6.31,8.55,11.76a46.3,46.3,0,0,0,7.15,9,52.35,52.35,0,0,1,6.4,7.78,136.34,136.34,0,0,1,9.09,18.48c3,7.18,4.1,12,4.54,20.69,0,0.72.09,1.41,0.14,2.1,0.23,2.94.44,5.71-.92,8.65a18.49,18.49,0,0,1-2.77,3.94,19,19,0,0,0-2.71,3.82,30.37,30.37,0,0,0-1.19,3,16.67,16.67,0,0,1-2.86,5.56,31,31,0,0,1-3.16,3.15,34,34,0,0,0-3,2.94c-4.38,5.07-5.92,10.76-6.87,17.74-1.65,12-11.88,18.28-21.77,24.33-1.73,1.06-3.52,2.15-5.23,3.26-2.2,1.42-4.25,3-6.23,4.48a59.94,59.94,0,0,1-10.23,6.7c-2.9,1.4-5.63,3-8.27,4.56S131,199.6,128.17,201c-1.66.8-3.18,1.69-4.64,2.54-3.52,2.07-6.56,3.85-10.5,3.85a14.15,14.15,0,0,1-3.48-.45,33.88,33.88,0,0,0-8.44-.9c-1.37,0-2.76,0-4.1.09s-2.73.09-4.09,0.09c-1.58,0-3-.06-4.25-0.19-6.9-.68-11.6-4.56-16.6-9.18a120.2,120.2,0,0,0-17.43-13.12,77.22,77.22,0,0,0-8-4.27,67.53,67.53,0,0,1-9-5,53.84,53.84,0,0,0-4.9-2.88c-3.95-2.15-8-4.37-10.07-8.4-1.24-2.46-1.36-4.87-1.48-7.44,0-.93-0.09-1.89-0.19-2.9a18.19,18.19,0,0,0-1.4-4.91,14.79,14.79,0,0,1-1.33-5,15.51,15.51,0,0,1,1.14-5.27A18.46,18.46,0,0,0,20.58,133C20.79,129.51,19.55,126.91,18.23,124.16Z" transform="translate(0 0.01)"/><path class="cls-1" d="M219.44,84.37a5.61,5.61,0,0,0-1-2.56c-0.6-1-2.46-2-2.83-2.77-0.63-1.29-.15-2.24-0.3-3.21a1.91,1.91,0,0,0-.46-0.92c-1.83-2.15-4.08-4.19-3.35-7.09-0.74-.35-1.52-0.66-2.27-1,0.79-2.23-.29-4.92-1.64-6.86-3.08-4.46-8.9-7.43-11.48-12.35-0.78-1.5-.09-2.53-1-3.8-0.8-1.1-2.23-1.21-3.18-2-1.29-1.11-4.64-4.49-5.14-6a5,5,0,0,1-.26-1.6,6.76,6.76,0,0,1-2.62-4.31,11.19,11.19,0,0,1-2.15-2.39,8.28,8.28,0,0,1-.69-1.3c-1.94-.38-3-2-4.63-3.17s-4.13-.55-6-1.26c-4-1.47-4.63,4.78-7.77,2-0.44-.39.84-1.67,0.62-2.39-1.53-5.06-10.65-5.1-14.78-8.33-1.06-.83-0.71-1.86-2-2.51-0.88-.46-2.71,0-3.74-0.35-0.81-.31-1.32-1.07-2.07-1.22a0.33,0.33,0,0,0-.17,0,8.63,8.63,0,0,1-2.68.54,2.5,2.5,0,0,0-1.26-.12c-0.41.27,0.17,1.2-.24,1.45-3,1.81-5.81-.31-9.19-1.87a0.59,0.59,0,0,1-.31-0.7c0.2-.44,1-0.66,1-1-0.31-2.33-2.84-3.44-4.74-4.65-2.06-1.3-3.9-.81-6.14-0.72-4.66.19-8.28-2.12-12.33-1.87-1.52.1-4.32,0.16-6.24,0.48s-3.47,2.32-5.6,2.61S88.37,1.85,86.4,1.57a4.7,4.7,0,0,0-1.61-.06c-1,.22-3.2.19-2.83,1.12,0.18,0.44-.89.16-1.44,0.69a18.69,18.69,0,0,1-6.72,3.85c-2.61,1-5.31,2.94-7.93,1.89l-0.57.2C63.84,9.79,62.46,8.78,61,9c-3.75.53-5.32,5.5-10.74,4a3.74,3.74,0,0,0-.55-0.25,2.26,2.26,0,0,0-1.09.61c-1.15.69-2.28,1.42-3.44,2.08h0a4.85,4.85,0,0,1-1,.83c-0.45.52-.87,1.07-1.33,1.57a12,12,0,0,1-3.17,2.54c-0.51.27-1.26,0.19-1.61,0.66-1.83,2.4-1.14,5.94-3.24,8.06C33.26,30.73,31,30.66,29.68,32a1.17,1.17,0,0,0-.13.57A6.37,6.37,0,0,1,27.36,36a7.2,7.2,0,0,1-3,3.76c-1,.6-2.36.23-3.14,0.93-2.42,2.17-3.26,5.37-6.26,5.67a5.18,5.18,0,0,1-1.47,1.8,15.35,15.35,0,0,1-1,2.35c-0.9,1.6-3.11,2-3.67,3.76-0.62,2,1.33,3.94,1.18,6a7.3,7.3,0,0,1-4.75,6.56,7.62,7.62,0,0,1-2.48,3.79,5.65,5.65,0,0,1-1.61,2.3,2.05,2.05,0,0,1-.27.21l0,0.05-0.1.19,0,0.05a9.61,9.61,0,0,1-.65,2.36c0,0.2-.07.39-0.11,0.59a25.33,25.33,0,0,1,2.39,5.22,9.78,9.78,0,0,1,0,5.83l0.36-.07c0.65,2.93-.88,4.05,0,6.7C3.25,95.74,6,97.49,6.19,98.79c0.13,0.83-1.7,2.27-1.93,3.34s1,2,.9,3a3.71,3.71,0,0,1-1.23,2.74c0.29,1.6.51,3.2,0.64,4.81L4.83,113A8.26,8.26,0,0,1,6,118.49a7.26,7.26,0,0,1,1.52,3c0.42,0.48.8,1,1.18,1.52,1.8,2.4.94,6-.15,8.44-0.19.43-.5,0.77-0.68,1.19-0.06.13-.43,1-0.53,1.21a2,2,0,0,0-.44,1c0.15,0.7,1.12.79,1.45,1.43,0.44,0.84.39,2.66,0.79,3.24a20.76,20.76,0,0,0,2.67,2.12c0.32,1.91-2.8,1.6-3.33,3.54-0.64,2.35,3.8,5.69,2,7.84a6,6,0,0,1,.09,1,1.94,1.94,0,0,0,1.12.38,1.88,1.88,0,0,1-1,.73,5.92,5.92,0,0,1-.35,1.9c-0.13.49-.55,1.12-0.22,1.5,1.83,2,4.17,3.47,3.51,6.17,1.73,1.36,1.6,4,3,5.64a1.19,1.19,0,0,0,.57.16,8,8,0,0,1,2.64,1.5,6.6,6.6,0,0,1,3.88,3,7.06,7.06,0,0,1,.93,3,8.94,8.94,0,0,1,5.28,3c2,2.08,5.53,1.28,5.92,4.42,0,0.29-.76.15-0.79,0.47a0.82,0.82,0,0,0,.44.52,14.45,14.45,0,0,0,1.91,1.68c0.72,0.45,1.64.48,2.41,1l0.32,0.23a6.92,6.92,0,0,1,1.53.41c0.47-.17.92-0.35,1.36-0.53a6.72,6.72,0,0,1-.24,1.09,7.12,7.12,0,0,1,1.36,1.06c0.44,0,1.61.19,1.85,0.2l2.12,0c3.9,0,6.6,3.37,6.87,6.77,0.16,0.13.33,0.25,0.48,0.39,0.86,0.75,1,2.26,2,2.94,0.76,0.5,1.75,0,2.42.09,2.77,0.43,6.35,3.5,8.92,1.89-2.25,4.19,9,6.46,11.52,7.83l0.56,0.32a6.53,6.53,0,0,1,2.51,1.47l0.23,0a20.15,20.15,0,0,0,3.81.24,6.52,6.52,0,0,0,1.13-.36,7.22,7.22,0,0,1,5.67.93,5.49,5.49,0,0,0,1.19,1c0.91,0.3,1.92-.17,2.88-0.12s1.85,0.27,2.8.23c0.63,0,1.26-.19,1.92-0.21,0.43,0,.84.07,1.26,0.09a17.46,17.46,0,0,0,2.64.24c3.08-.4,5.61-2.53,8.61-2.18,1.16,0,2.18.66,3.29,0.71,4.55,0.19,7-1.7,10.78-3.49a2.53,2.53,0,0,0,.59-0.81,8.56,8.56,0,0,1,2.54-1.94c0.28-.15,2-1.22.54-0.09a7.56,7.56,0,0,1,6.52-1.69,6.94,6.94,0,0,1,2.22-1,7.21,7.21,0,0,1,1.87-4.06,10.8,10.8,0,0,1,3.19-2.46,10.43,10.43,0,0,1,1.15-.81,7.35,7.35,0,0,1,6.51-3.36,7.48,7.48,0,0,1,3.35-.73,6.89,6.89,0,0,1,2.79-1.54,7,7,0,0,1,4.24.2c0.23-.11.47-0.21,0.71-0.29,1.35-1.6,2.15-3.4,3.5-5.09,2.23-2.81,4.51-2.22,6.93-3.77,1-.65,1.46-2.23,2.3-3,0.48-.43,1.15.92,1.8,0.32,0.5-.46.39-1.43,0.82-1.8a17.58,17.58,0,0,0,5.23-7c1.42-3.44,3-3,5.1-5.38a15.12,15.12,0,0,0,1.29-2.4c0.89-1.51,1.85-3,2.75-4.48,0.35-.59.71-1.17,1-1.78,0.15-.28.24-0.44,0.28-0.53s0.06-.14.09-0.21a22.56,22.56,0,0,1,3.11-5.45q1-1.28,2-2.53l0.44-.53c0.07-.09.13-0.21,0.23-0.36s0.28-.28.31-0.36a2.12,2.12,0,0,0-.16-1.14,17.5,17.5,0,0,1-.46-5.28c0.48-4.43,2.76-7.36,6.36-9.8l0.34-.23,0.14-1a7.38,7.38,0,0,1,3.17-4.1c0.26-.19,1.59-1.2.72-0.52l1.15-.89,2-1.56q0.67-1.66,1.4-3.3a3.81,3.81,0,0,1,.42-1.9c0.48-.94-1.44-3.35-1-4.35,0.7-1.61-.74-2.61-0.77-4.18s1-2.78,1.15-3.6c0.26-2.09-.41-3.07,1.71-5.74,1.39-1.74-3.34-5.46-1.39-6.93,0.5-.37,1.65-2.74,2.19-3a0.51,0.51,0,0,0,.18-0.51A29.71,29.71,0,0,1,219.44,84.37ZM211,113.19a18.94,18.94,0,0,1-2.83,4,18.32,18.32,0,0,0-2.65,3.73,30.45,30.45,0,0,0-1.17,2.95,17,17,0,0,1-2.95,5.7,31.27,31.27,0,0,1-3.2,3.2,34.18,34.18,0,0,0-2.94,2.9c-4.31,5-5.82,10.6-6.77,17.5-1.68,12.24-12,18.56-22,24.66-1.73,1.06-3.52,2.15-5.22,3.25-2.18,1.41-4.23,3-6.2,4.46a60.75,60.75,0,0,1-10.3,6.75c-2.88,1.39-5.6,3-8.24,4.54s-5.33,3.13-8.16,4.5c-1.65.79-3.15,1.68-4.6,2.53-3.43,2-6.67,3.91-10.74,3.91a14.49,14.49,0,0,1-3.6-.46,33.41,33.41,0,0,0-8.33-.88c-1.36,0-2.75,0-4.08.09s-2.73.09-4.11,0.09c-1.6,0-3-.06-4.29-0.19-7-.69-11.81-4.62-16.87-9.31a119.89,119.89,0,0,0-17.37-13.07,76.76,76.76,0,0,0-7.9-4.25,67.87,67.87,0,0,1-9.08-5,52.44,52.44,0,0,0-4.85-2.86c-4-2.18-8.16-4.44-10.26-8.6-1.29-2.55-1.41-5-1.53-7.62,0-.92-0.09-1.88-0.19-2.87a17.68,17.68,0,0,0-1.37-4.78,15.27,15.27,0,0,1-1.36-5.17A15.87,15.87,0,0,1,19,137.46a18.14,18.14,0,0,0,1.11-4.52c0.2-3.34-1-5.76-2.3-8.57l-0.53-1.13c-1.6-3.43-2-7.17-2.33-10.78a40.79,40.79,0,0,0-1.53-8.8C11.14,96.77,9.5,91.28,9.19,83.28,8.59,67.85,38,36.07,45.05,30.39,53,24,58.17,20.49,67.89,16.91c5.91-2.18,20.82-6.24,30.18-6.24a20.32,20.32,0,0,1,3.84.31,32.49,32.49,0,0,1,7.15,2.26,37.6,37.6,0,0,0,6,2.07,50.49,50.49,0,0,0,7,1.13,31.73,31.73,0,0,1,9.57,2.14c1.18,0.49,3.18,2.2,5.3,4,2.41,2.05,5.14,4.38,6.54,4.74a11.09,11.09,0,0,0,2.81.31,42.79,42.79,0,0,0,5.8-.57,37.12,37.12,0,0,1,4.95-.5A26.33,26.33,0,0,1,176,34.16c4.1,4.15,5.6,6.37,8.62,11.86a45.9,45.9,0,0,0,7.08,9,53,53,0,0,1,6.45,7.85,137.25,137.25,0,0,1,9.12,18.55c3.06,7.24,4.13,12.11,4.57,20.85,0,0.71.09,1.4,0.14,2.08C212.18,107.31,212.4,110.14,211,113.19Z" transform="translate(0 0.01)"/><path class="cls-1" d="M29.62,95.26H23.77V92.38H38.7v2.88H32.85v18.48H29.61V95.26h0Z" transform="translate(0 0.01)"/><path class="cls-1" d="M43.24,92.38h8.34a6.29,6.29,0,0,1,4.35,1.41,6.15,6.15,0,0,1-2,10.47l5,9.48H55l-4.41-9.12H46.48v9.12H43.24V92.38h0Zm3.24,9.36h4.89A3.31,3.31,0,0,0,55,98.35a2.89,2.89,0,0,0-1.08-2.43,3.61,3.61,0,0,0-2.37-.66H46.48v6.48h0Z" transform="translate(0 0.01)"/><path class="cls-1" d="M63.79,92.38H77.43v3.06H67v6.09h8.88v2.88H67v6.27H77.44v3.06H63.79V92.38Z" transform="translate(0 0.01)"/><path class="cls-1" d="M82.72,92.38H96.37v3.06H86v6.09h8.88v2.88H86v6.27H96.37v3.06H82.72V92.38Z" transform="translate(0 0.01)"/><path class="cls-1" d="M113.35,104.41h-8.46v9.33h-3.24V92.38h3.24v9.15h8.46V92.38h3.24v21.36h-3.24v-9.33Z" transform="translate(0 0.01)"/><path class="cls-1" d="M123.55,96a7.75,7.75,0,0,1,13.38,0c0.69,1.26.93,1.89,0.93,7s-0.24,5.76-.93,7a7.75,7.75,0,0,1-13.38,0c-0.69-1.26-.93-1.89-0.93-7S122.86,97.3,123.55,96Zm3.39,13.08a4.27,4.27,0,0,0,6.6,0c0.84-1.08,1.08-1.68,1.08-6.06s-0.24-5-1.08-6.06a4.27,4.27,0,0,0-6.6,0c-0.84,1.08-1.08,1.68-1.08,6.06S126.1,108,126.94,109.12Z" transform="translate(0 0.01)"/><path class="cls-1" d="M143.5,92.38h3.24v13.77a4.36,4.36,0,1,0,8.7,0V92.38h3.24v14.13a7.59,7.59,0,0,1-15.18,0V92.38Z" transform="translate(0 0.01)"/><path class="cls-1" d="M165.3,108.55a9.85,9.85,0,0,0,6.06,2.13c2.64,0,4.23-1.2,4.23-3a2.79,2.79,0,0,0-2.79-2.88c-1-.12-1.71-0.24-2.82-0.39-3.69-.51-5.67-2.91-5.67-6,0-3.66,2.55-6.24,7-6.24a12.53,12.53,0,0,1,6.93,2.22l-1.8,2.67a10,10,0,0,0-5.28-1.65c-2,0-3.57,1-3.57,3.06,0,1.2.87,2.4,3,2.73,0.57,0.09,1.38.21,2.4,0.33,4,0.48,5.85,3.24,5.85,6.15,0,3.93-2.91,6.21-7.5,6.21a12,12,0,0,1-8.16-2.94Z" transform="translate(0 0.01)"/><path class="cls-1" d="M184.51,92.38h13.65v3.06H187.75v6.09h8.88v2.88h-8.88v6.27h10.41v3.06H184.51V92.38Z" transform="translate(0 0.01)"/></g></svg>