<?xml version="1.0" encoding="utf-8"?>
<!-- Generator: Adobe Illustrator 15.1.0, SVG Export Plug-In . SVG Version: 6.00 Build 0)  -->
<!DOCTYPE svg PUBLIC "-//W3C//DTD SVG 1.1//EN" "http://www.w3.org/Graphics/SVG/1.1/DTD/svg11.dtd">
<svg version="1.1" id="Layer_1" xmlns="http://www.w3.org/2000/svg" xmlns:xlink="http://www.w3.org/1999/xlink" x="0px" y="0px"
	 width="294.086px" height="81.924px" viewBox="0 0 294.086 81.924" enable-background="new 0 0 294.086 81.924"
	 xml:space="preserve">
<g>
	<g>
		<path d="M52.13,48.023c-1.132,5.381-5.178,8.293-10.112,8.293c-4.529,0-7.646-2.67-9.021-5.178
			c-0.93-1.699-1.253-2.549-1.253-9.466s0.323-7.767,1.253-9.466c1.375-2.508,4.491-5.178,9.021-5.178
			c5.462,0,9.224,3.843,10.112,8.535h-4.611c-0.687-2.225-2.75-4.166-5.501-4.166c-2.063,0-3.56,0.971-4.449,2.104
			c-1.133,1.456-1.456,2.265-1.456,8.171c0,5.905,0.323,6.714,1.456,8.171c0.89,1.133,2.386,2.104,4.449,2.104
			c2.428,0,4.289-1.336,5.501-3.924H52.13z"/>
		<path d="M64.173,29.698c1.148-1.272,3.077-2.669,6.32-2.669c3.242,0,5.172,1.396,6.321,2.669c1.601,1.765,2.258,3.489,2.258,7.963
			c0,4.516-0.657,6.239-2.258,8.005c-1.149,1.271-3.079,2.668-6.321,2.668c-3.243,0-5.172-1.396-6.32-2.668
			c-1.603-1.766-2.259-3.489-2.259-8.005C61.914,33.187,62.57,31.462,64.173,29.698z M73.859,32.735
			c-0.615-0.862-1.93-1.519-3.366-1.519s-2.75,0.656-3.365,1.519c-0.78,1.108-1.027,1.93-1.027,4.926
			c0,3.038,0.247,3.858,1.027,4.967c0.615,0.862,1.929,1.519,3.365,1.519s2.751-0.656,3.366-1.519
			c0.78-1.108,1.025-1.929,1.025-4.925C74.885,34.665,74.64,33.843,73.859,32.735z"/>
		<path d="M91.602,27.271h10.071c3.803,0,6.917,1.699,8.777,4.855c1.416,2.426,1.537,3.519,1.537,9.546
			c0,6.472-0.323,7.604-1.617,9.628c-1.699,2.668-4.692,4.771-8.979,4.771h-9.789V27.271z M95.97,51.947h5.219
			c2.467,0,4.207-0.85,5.339-2.508c0.971-1.457,1.092-2.266,1.092-7.605c0-5.178-0.121-6.432-1.294-8.009
			c-1.335-1.82-2.791-2.427-5.137-2.427H95.97V51.947z"/>
		<path d="M125.17,27.271h18.403v4.127h-14.035v8.211h11.974v3.883h-11.974v8.455h14.035v4.125H125.17V27.271z"/>
		<path d="M156.109,49.074c2.185,1.74,5.097,2.873,8.171,2.873c3.56,0,5.703-1.617,5.703-4.004c0-2.023-1.173-3.561-3.762-3.885
			c-1.294-0.162-2.305-0.322-3.803-0.525c-4.975-0.688-7.645-3.924-7.645-8.09c0-4.936,3.438-8.414,9.385-8.414
			c3.56,0,6.715,1.254,9.344,2.994l-2.427,3.6c-2.104-1.335-4.571-2.225-7.119-2.225c-2.67,0-4.813,1.375-4.813,4.125
			c0,1.619,1.173,3.236,4.085,3.682c0.769,0.121,1.861,0.283,3.236,0.445c5.38,0.646,7.887,4.369,7.887,8.293
			c0,5.297-3.923,8.373-10.112,8.373c-4.247,0-7.969-1.295-11.002-3.965L156.109,49.074z"/>
		<path d="M187.048,27.271h4.369v28.801h-4.369V27.271z"/>
		<path d="M214.914,40.216h10.233v5.865c0,5.703-4.53,10.234-10.273,10.234c-4.53,0-7.646-2.67-9.021-5.178
			c-0.931-1.699-1.254-2.549-1.254-9.466s0.323-7.767,1.254-9.466c1.375-2.508,4.49-5.178,9.021-5.178
			c5.461,0,9.223,3.843,10.112,8.535h-4.611c-0.688-2.225-2.751-4.166-5.501-4.166c-2.063,0-3.56,0.971-4.45,2.104
			c-1.132,1.456-1.455,2.265-1.455,8.171c0,5.905,0.323,6.714,1.455,8.171c0.891,1.133,2.387,2.104,4.45,2.104
			c3.316,0,5.905-2.508,5.905-6.107v-1.498h-5.865V40.216z"/>
		<path d="M238.331,27.271h4.125l13.025,20.469h0.081V27.271h4.368v28.801h-4.126l-13.025-20.467h-0.08v20.467h-4.368V27.271z"/>
		<rect x="62.811" y="52.263" width="15.333" height="3.809"/>
	</g>
	<polygon points="0,4.596 0,78.539 129.31,78.539 129.31,76.539 2,76.539 2,6.596 129.31,6.596 129.31,4.596 	"/>
	<polygon points="162.977,4.596 162.977,6.596 292.086,6.596 292.086,76.539 162.977,76.539 162.977,78.539 294.086,78.539 
		294.086,4.596 	"/>
	<g>
		<polygon points="131.866,1.509 134.931,1.509 134.931,11.192 136.628,11.192 136.628,1.509 139.694,1.509 139.694,0 131.866,0 		
			"/>
		<polygon points="147.81,4.793 143.377,4.793 143.377,0 141.679,0 141.679,11.192 143.377,11.192 143.377,6.304 147.81,6.304 
			147.81,11.192 149.507,11.192 149.507,0 147.81,0 		"/>
		<polygon points="152.656,11.192 159.809,11.192 159.809,9.587 154.354,9.587 154.354,6.304 159.008,6.304 159.008,4.793 
			154.354,4.793 154.354,1.603 159.809,1.603 159.809,0 152.656,0 		"/>
	</g>
	<g>
		<polygon points="133.666,70.733 131.968,70.733 131.968,81.924 139.12,81.924 139.12,80.321 133.666,80.321 		"/>
		<path d="M144.407,70.733l-4.071,11.191h1.792l0.864-2.5h4.244l0.865,2.5h1.792l-4.071-11.191H144.407z M143.479,77.917
			l1.619-4.889h0.031l1.619,4.889H143.479z"/>
		<path d="M157.884,76.171V76.14c1.305-0.582,1.65-1.479,1.65-2.406c0-1.76-1.132-3.001-3.317-3.001h-4.338v11.191h4.716
			c1.683,0,3.112-1.241,3.112-3.176C159.707,77.618,159.109,76.454,157.884,76.171z M153.576,72.242h2.453
			c1.227,0,1.807,0.738,1.807,1.603c0,0.881-0.58,1.604-1.807,1.604h-2.453V72.242z M156.186,80.321h-2.609v-3.364h2.609
			c1.258,0,1.824,0.802,1.824,1.683C158.01,79.519,157.443,80.321,156.186,80.321z"/>
	</g>
</g>
</svg>
