<?xml version="1.0" encoding="utf-8"?>
<!-- Generator: Adobe Illustrator 15.1.0, SVG Export Plug-In . SVG Version: 6.00 Build 0)  -->
<!DOCTYPE svg PUBLIC "-//W3C//DTD SVG 1.1//EN" "http://www.w3.org/Graphics/SVG/1.1/DTD/svg11.dtd">
<svg version="1.1" id="Layer_1" xmlns="http://www.w3.org/2000/svg" xmlns:xlink="http://www.w3.org/1999/xlink" x="0px" y="0px"
	 width="90.006px" height="90.006px" viewBox="0 0 90.006 90.006" enable-background="new 0 0 90.006 90.006" xml:space="preserve">
<g>
	<g>
		<g>
			<path fill="#DC0000" d="M46.968,79.034c0,0.906-0.736,1.648-1.643,1.648c-0.904,0-1.646-0.742-1.646-1.648
				c0-0.91,0.742-1.646,1.646-1.646C46.231,77.388,46.968,78.124,46.968,79.034z"/>
			<path fill="#DC0000" d="M47.263,55.979c0,1.086-0.881,1.973-1.971,1.973c-1.088,0-1.965-0.887-1.965-1.973
				c0-1.084,0.877-1.961,1.965-1.961C46.382,54.019,47.263,54.896,47.263,55.979z"/>
			<path fill="#DC0000" d="M45.325,32.446c0,0.91-0.736,1.643-1.646,1.643c-0.908,0-1.643-0.732-1.643-1.643
				c0-0.905,0.734-1.646,1.643-1.646C44.589,30.8,45.325,31.541,45.325,32.446z"/>
			<path fill="#DC0000" d="M48.29,36.784c0,0.91-0.734,1.65-1.645,1.65c-0.906,0-1.645-0.74-1.645-1.65
				c0-0.905,0.734-1.645,1.645-1.645C47.556,35.14,48.29,35.879,48.29,36.784z"/>
		</g>
		<path fill="#DC0000" d="M69.548,55.882l-0.004-0.027c-0.006-0.062-0.018-0.121-0.023-0.186c-0.062-0.453-0.121-0.867-0.168-1.186
			c-0.021-0.158-0.039-0.322-0.068-0.481c-0.014-0.078-0.021-0.134-0.021-0.134l-0.009,0.002
			c-1.66-8.897-8.219-16.281-16.938-18.937v-21.92c1.647-0.035,2.978-1.564,2.978-3.425c0-1.886-1.364-3.424-3.041-3.424H38.138
			c-1.676,0-3.041,1.538-3.041,3.424c0,1.86,1.326,3.39,2.977,3.425v21.921c-8.545,2.602-15.004,9.749-16.828,18.401l-0.018-0.005
			c0,0-0.027,0.167-0.072,0.435c-0.053,0.291-0.1,0.582-0.143,0.875c-0.229,1.402-0.555,3.492-0.555,3.994
			c0,13.607,11.123,24.393,24.734,24.393c13.612,0,24.676-10.43,24.676-24.041C69.868,58.414,69.706,57.058,69.548,55.882z
			 M33.263,69.222c-1.932,0-3.5-1.562-3.5-3.5c0-1.938,1.568-3.509,3.5-3.509c1.939,0,3.512,1.57,3.512,3.509
			C36.775,67.659,35.202,69.222,33.263,69.222z M49.79,62.047c-1.424,0-2.576-1.151-2.576-2.575c0-1.42,1.152-2.576,2.576-2.576
			s2.578,1.156,2.578,2.576C52.368,60.896,51.214,62.047,49.79,62.047z M62.286,62.487c-0.832,0-1.506-0.68-1.506-1.512
			c0-0.83,0.674-1.507,1.506-1.507c0.834,0,1.508,0.677,1.508,1.507C63.794,61.808,63.12,62.487,62.286,62.487z M63.872,52.608
			c-0.168,0.201-0.414,0.507-0.578,0.561c-0.102-0.054-0.355-0.359-0.523-0.561c-0.676-0.807-1.805-2.161-3.986-2.161
			s-3.316,1.354-3.988,2.161c-0.17,0.203-0.418,0.507-0.566,0.561c-0.105-0.054-0.354-0.357-0.521-0.561
			c-0.676-0.807-1.803-2.161-3.986-2.161c-2.183,0-3.309,1.354-3.988,2.161c-0.164,0.203-0.418,0.507-0.564,0.561
			c-0.1-0.054-0.354-0.357-0.52-0.557c-0.674-0.811-1.805-2.165-3.984-2.165c-2.184,0-3.311,1.358-3.984,2.165
			c-0.166,0.199-0.412,0.503-0.557,0.557c-0.102-0.054-0.354-0.357-0.521-0.557c-0.674-0.807-1.809-2.165-3.99-2.165
			c-2.178,0-3.305,1.354-3.982,2.165c-0.162,0.199-0.418,0.503-0.559,0.557c-0.105-0.054-0.357-0.357-0.521-0.557
			c-0.467-0.555-1.156-1.365-2.244-1.819c2.449-6.726,8.072-12.038,15.18-13.929l0.832-0.217V10.772h-2.174
			c-0.381,0-0.799-0.487-0.799-1.185c0-0.7,0.418-1.182,0.799-1.182h14.111c0.375,0,0.8,0.479,0.8,1.182
			c0,0.697-0.425,1.185-0.8,1.185h-2.178v25.875l0.834,0.217c7.11,1.891,12.737,7.212,15.188,13.938
			C65.019,51.259,64.333,52.06,63.872,52.608z"/>
	</g>
	<path fill="#DC0000" d="M45.003,90.006C20.188,90.006,0,69.817,0,45.003C0,20.188,20.188,0,45.003,0
		c24.814,0,45.003,20.188,45.003,45.003C90.006,69.817,69.817,90.006,45.003,90.006z M45.003,1C20.739,1,1,20.74,1,45.003
		c0,24.264,19.739,44.003,44.003,44.003c24.264,0,44.003-19.739,44.003-44.003C89.006,20.74,69.267,1,45.003,1z"/>
</g>
</svg>
