<?xml version="1.0" encoding="utf-8"?>
<!-- Generator: Adobe Illustrator 15.1.0, SVG Export Plug-In . SVG Version: 6.00 Build 0)  -->
<!DOCTYPE svg PUBLIC "-//W3C//DTD SVG 1.1//EN" "http://www.w3.org/Graphics/SVG/1.1/DTD/svg11.dtd">
<svg version="1.1" id="Layer_1" xmlns="http://www.w3.org/2000/svg" xmlns:xlink="http://www.w3.org/1999/xlink" x="0px" y="0px"
	 width="90.006px" height="90.006px" viewBox="0 0 90.006 90.006" enable-background="new 0 0 90.006 90.006" xml:space="preserve">
<g>
	<defs>
		<circle id="SVGID_1_" cx="45.003" cy="46.002" r="39.088"/>
	</defs>
	<clipPath id="SVGID_2_">
		<use xlink:href="#SVGID_1_"  overflow="visible"/>
	</clipPath>
	<g clip-path="url(#SVGID_2_)">
		<polygon fill-rule="evenodd" clip-rule="evenodd" fill="#FFFFFF" points="32.44,89.614 58.376,90.241 60.048,59.604 30.13,59.604 
					"/>
		<g>
			<path fill-rule="evenodd" clip-rule="evenodd" fill="#FFFFFF" d="M51.528,41.13c0,0,0,0.001-0.002,0.002
				C51.528,41.131,51.528,41.13,51.528,41.13z"/>
			<path fill-rule="evenodd" clip-rule="evenodd" fill="#FFFFFF" d="M52.235,50.041c0.072-2.643,0.158-5.813-1.385-8.479
				c-1.205,0.529-2.641,0.072-3.307-1.097l-2.576-4.525c-0.711-1.249-0.275-2.839,0.975-3.552c1.248-0.711,2.84-0.275,3.551,0.975
				l2.576,4.525c0.533,0.936,0.422,2.062-0.191,2.867l0,0c1.826,3.029,1.732,6.59,1.658,9.321c-0.006,0.191-0.01,0.375-0.014,0.559
				h15.783c0.076-1.42,0.125-2.816-0.061-4.231c-0.277-2.116-1.312-4.73-3.033-5.633c-0.848-0.445-1.877-0.75-2.814-1.137
				c-1.93-0.795-3.842-1.525-5.74-2.274c-0.986-0.388-2.041-0.658-2.926-1.083c-1.186-0.57-1.719-2.053-2.924-2.545
				c-0.574-2.648,1.156-3.889,1.301-6.174c0.178-0.11,0.287,0.232,0.596,0.163c1.053-0.734,1.135-2.8,1.57-4.333
				c0.246-0.869,0.711-1.573,0.162-2.111c-0.115-0.182-0.664-0.067-0.758-0.108c1.285-3.948-0.016-8.088-2.111-10.234
				c-2.01-2.058-5.209-2.585-8.936-2.763c0.715-0.143,1.412-0.137,1.895-0.162c0.73-0.037,0.449-0.016,0.109-0.054
				c-1.617-0.18-3.451,0.016-4.496,0.542c0.004-0.183,0.527-0.511,0.271-0.434c-0.934,0.455-1.801,0.979-2.111,2.058
				c-1.232,0.069-2.227,0.663-2.654,1.354c0.172-0.119,0.336-0.244,0.596-0.271c-0.629,0.455-1.275,1.467-1.082,2.383
				c0.018-0.127,0.055-0.233,0.162-0.271c-0.805,2.391-0.348,5.788,0.379,7.906c-0.266-0.02-0.586,0.006-0.758,0.163
				c-0.781,0.71,0.113,2.589,0.324,3.141c0.406,1.067,0.588,2.747,1.354,3.195c0.211,0.118,0.463-0.043,0.541,0
				c0.055,1.402,1.084,2.556,1.355,3.628c0.229,0.906-0.062,1.842-0.109,2.87c-1.133,0.315-1.752,1.521-2.707,2.112
				c-0.855,0.529-2.057,0.912-3.141,1.354c-1.08,0.439-2.197,0.879-3.25,1.246c-2.238,0.777-4.637,1.287-6.281,2.707
				c-2.061,1.78-2.348,5.172-2.379,8.997h30.57C52.224,50.441,52.229,50.244,52.235,50.041z"/>
		</g>
		<rect x="14.337" y="53.816" fill-rule="evenodd" clip-rule="evenodd" fill="#FFFFFF" width="61.334" height="4.631"/>
	</g>
</g>
<path fill="#FFFFFF" d="M45.003,90.006C20.188,90.006,0,69.818,0,45.003C0,20.188,20.188,0,45.003,0s45.003,20.188,45.003,45.003
	C90.006,69.818,69.817,90.006,45.003,90.006z M45.003,1C20.739,1,1,20.74,1,45.003c0,24.263,19.739,44.003,44.003,44.003
	s44.003-19.74,44.003-44.003C89.006,20.74,69.267,1,45.003,1z"/>
</svg>
