<?xml version="1.0" encoding="utf-8"?>
<!-- Generator: Adobe Illustrator 15.1.0, SVG Export Plug-In . SVG Version: 6.00 Build 0)  -->
<!DOCTYPE svg PUBLIC "-//W3C//DTD SVG 1.1//EN" "http://www.w3.org/Graphics/SVG/1.1/DTD/svg11.dtd">
<svg version="1.1" id="Layer_1" xmlns="http://www.w3.org/2000/svg" xmlns:xlink="http://www.w3.org/1999/xlink" x="0px" y="0px"
	 width="90.006px" height="90.006px" viewBox="0 0 90.006 90.006" enable-background="new 0 0 90.006 90.006" xml:space="preserve">
<g>
	<path fill="#EEB51C" d="M74.379,17.365c0,0-9.76-0.422-19.632,5.286c-5.73,3.386-19.067,20.486-19.067,20.486l-9.549-0.084
		l-5.745,6.929l8.365,2.027c0,0-0.127,0.973,0.169,1.268c-0.549,0.888-1.119,2.304-1.605,3.296c0.508,1.985,4.521,6.719,7.689,7.688
		c1.268-0.338,2.915-1.141,3.633-1.436c0.297,0.295,1.184,0.253,1.184,0.253l1.774,8.28l7.013-5.576c0,0,0.043-7.943,0-9.887
		c3.041-2.239,16.99-12.729,21.311-20.253C74.526,27.612,74.379,17.365,74.379,17.365z M57.563,38.6
		c-2.41,0-4.364-1.954-4.364-4.365c0-2.411,1.954-4.364,4.364-4.364c2.412,0,4.365,1.954,4.365,4.364
		C61.931,36.646,59.978,38.6,57.563,38.6z"/>
	<path fill="#EEB51C" d="M18.865,72.837c0,0-1.057-10.012,5.873-15.209l0.59,0.93c-3.759,5.154-2.745,10.688-2.745,10.688
		s5.366,0.888,10.52-2.872l0.972,0.633C29.258,73.81,18.865,72.837,18.865,72.837z"/>
	<path fill="#EEB51C" d="M45.003,90.006C20.188,90.006,0,69.817,0,45.003C0,20.188,20.188,0,45.003,0
		c24.814,0,45.003,20.188,45.003,45.003C90.006,69.817,69.817,90.006,45.003,90.006z M45.003,1C20.739,1,1,20.74,1,45.003
		c0,24.264,19.739,44.003,44.003,44.003c24.264,0,44.003-19.739,44.003-44.003C89.006,20.74,69.267,1,45.003,1z"/>
</g>
</svg>
