<?xml version="1.0" encoding="utf-8"?>
<!-- Generator: Adobe Illustrator 15.1.0, SVG Export Plug-In . SVG Version: 6.00 Build 0)  -->
<!DOCTYPE svg PUBLIC "-//W3C//DTD SVG 1.1//EN" "http://www.w3.org/Graphics/SVG/1.1/DTD/svg11.dtd">
<svg version="1.1" id="Layer_1" xmlns="http://www.w3.org/2000/svg" xmlns:xlink="http://www.w3.org/1999/xlink" x="0px" y="0px"
	 width="90.006px" height="90.006px" viewBox="0 0 90.006 90.006" enable-background="new 0 0 90.006 90.006" xml:space="preserve">
<g>
	<g>
		<defs>
			<path id="SVGID_1_" d="M83.67,44.231c0,5.822-1.713,18.542-3.996,23.507c-6.182,13.442-19.568,19.167-35.332,19.167
				c-15.287,0-30.742-9.212-37.166-22c-2.648-5.271-1.68-14.373-1.68-20.674c0-21.588,17.5-39.088,39.086-39.088
				C66.17,5.144,83.67,22.644,83.67,44.231z"/>
		</defs>
		<clipPath id="SVGID_2_">
			<use xlink:href="#SVGID_1_"  overflow="visible"/>
		</clipPath>
		<path clip-path="url(#SVGID_2_)" fill="#FFFFFF" d="M71.176,75.421c-0.166-1.096-1.586-10.385-1.586-10.385L53.457,43.749
			l-0.721,0.895l14.508,19.082l-3.871,2.891L49.598,48.54l-3.871,4.807l14.369,18.898c0,0,8.883,3.876,9.752,4.201
			C70.717,76.771,71.344,76.517,71.176,75.421z M67.047,73.918l-5.74-2.483l7.348-5.718l0.916,6.38L67.047,73.918z"/>
		<polygon clip-path="url(#SVGID_2_)" fill="#FFFFFF" points="16.289,4.837 20.305,1.986 44.895,34.329 45.549,33.31 20.234,-0.095 
			10.564,7.102 38.66,44.054 42.096,38.696 		"/>
		<g clip-path="url(#SVGID_2_)">
			<path fill="#FFFFFF" d="M39.271,45.595c0,0,13.727-20.819,19.412-28.704c5.689-7.884,26.5-32.48,36.193-45.168
				c0.91,1.409,2.811,2.606,4.074,2.89c-3.742,4.9-25.922,40.874-31.93,49.433c-6.01,8.559-20.545,26.6-20.545,26.6
				s-2.803,0.046-4.857-1.523C39.564,47.551,39.271,45.595,39.271,45.595z"/>
			<path fill="#FFFFFF" d="M38.348,46.863c1.111,3.235,4.752,5.165,7.139,4.942c-2.014,2.639-5.207,7.021-6.959,9.094
				c-2.16,0.48-5.137-1.537-5.871-4.146C34.109,54.626,36.826,48.856,38.348,46.863z"/>
			<path fill="#FFFFFF" d="M31.592,57.477c-1.994,0.267-3.375,1.515-4.775,3.345c-1.398,1.832-4.383,8.419-10.176,9.193
				c-2.281,0.306-2.908,0.879-2.908,0.879s2.102,3.394,8.045,3.758c5.947,0.365,8.572-0.445,12.814-3.43
				c4.24-2.984,3.037-6.916,3.566-8.727c-1.613,0.216-2.695,0.07-4.621-1.315S31.592,57.477,31.592,57.477z"/>
		</g>
	</g>
	<path fill="#FFFFFF" d="M45.003,90.006C20.188,90.006,0,69.817,0,45.002C0,20.188,20.188,0,45.003,0s45.003,20.188,45.003,45.002
		C90.006,69.817,69.817,90.006,45.003,90.006z M45.003,1C20.739,1,1,20.739,1,45.002c0,24.264,19.739,44.004,44.003,44.004
		s44.003-19.74,44.003-44.004C89.006,20.739,69.267,1,45.003,1z"/>
</g>
</svg>
