<?xml version="1.0" encoding="utf-8"?>
<!-- Generator: Adobe Illustrator 15.1.0, SVG Export Plug-In . SVG Version: 6.00 Build 0)  -->
<!DOCTYPE svg PUBLIC "-//W3C//DTD SVG 1.1//EN" "http://www.w3.org/Graphics/SVG/1.1/DTD/svg11.dtd">
<svg version="1.1" id="Layer_1" xmlns="http://www.w3.org/2000/svg" xmlns:xlink="http://www.w3.org/1999/xlink" x="0px" y="0px"
	 width="90.006px" height="90.006px" viewBox="0 0 90.006 90.006" enable-background="new 0 0 90.006 90.006" xml:space="preserve">
<g>
	<g>
		<defs>
			<path id="SVGID_1_" d="M83.396,46.002c0,21.587-17.5,39.089-39.088,39.089S5.221,67.59,5.221,46.002
				c0-13.909,7.266-26.12,18.207-33.049c3.326-2.106-0.266-4.382,3.639-5.41c3.188-0.839,28.801-0.25,32.25-0.25
				c8.096,0,0.605,2.081,6.844,6.294C76.559,20.612,83.396,32.509,83.396,46.002z"/>
		</defs>
		<clipPath id="SVGID_2_">
			<use xlink:href="#SVGID_1_"  overflow="visible"/>
		</clipPath>
		<g clip-path="url(#SVGID_2_)">
			<polygon fill-rule="evenodd" clip-rule="evenodd" fill="#FFFFFF" points="58.877,16.567 58.877,30.214 39.914,30.214 
				39.199,30.972 39.199,33.743 54.941,33.743 61.266,40.423 61.266,33.743 65.199,33.743 65.199,16.567 			"/>
			<path fill-rule="evenodd" clip-rule="evenodd" fill="#FFFFFF" d="M24.676,39.517c0.658,0,1.316,0,1.977,0
				c7.514,0.889,11.824,3.494,12.469,11.1c0.08,0.914-0.031,2.035,0.229,3.119c0.426,1.775,2.031,2.727,2.812,4.258
				c0,0.201,0,0.404,0,0.607c-0.385,0.629-1.145,0.883-1.9,1.141c0.164,0.869,0.615,1.934-0.457,2.129
				c0.084,0.379,0.424,0.512,0.383,0.838c-0.053,0.389-0.717,0.598-0.762,1.139c-0.043,0.518,0.34,1.035,0.379,1.521
				c0.283,3.408-3.498,2.023-5.852,2.965c-0.668,0.266-1.535,0.756-1.75,1.369c-0.463,1.322,0.172,2.973,0,4.105
				c-0.109,0.729-0.5,1.398-0.457,2.053c0.133,1.969,2.105,3.066,3.117,4.334c1.248,1.564,1.877,3.559,3.193,4.865
				c-9.58,0-19.16,0-28.74,0c0-0.15,0-0.303,0-0.455c1.359-4.277,3.451-7.668,5.398-11.252c1.902-3.506,4.148-7.25,4.029-12.623
				c-0.469-0.789-1.334-1.26-1.902-1.977c-1.146-1.457-2.285-3.604-2.658-5.854c-0.561-3.371,0.195-7.406,1.9-9.354
				C18.018,41.335,21.035,39.997,24.676,39.517z"/>
			<path fill-rule="evenodd" clip-rule="evenodd" fill="#FFFFFF" d="M66.256,39.517c-0.65,0-1.299,0-1.947,0
				c-7.4,0.876-11.645,3.441-12.279,10.932c-0.078,0.9,0.029,2.004-0.229,3.072c-0.416,1.748-1.998,2.686-2.77,4.193
				c0,0.199,0,0.398,0,0.598c0.381,0.619,1.129,0.869,1.873,1.123c-0.162,0.857-0.605,1.906,0.449,2.098
				c-0.08,0.375-0.418,0.504-0.375,0.824c0.051,0.385,0.705,0.59,0.75,1.123c0.041,0.51-0.336,1.02-0.375,1.498
				c-0.277,3.357,3.445,1.992,5.766,2.92c0.654,0.262,1.51,0.744,1.723,1.348c0.457,1.303-0.168,2.93,0,4.043
				c0.107,0.719,0.492,1.377,0.447,2.021c-0.129,1.939-2.072,3.021-3.066,4.27c-1.229,1.541-1.85,3.506-3.146,4.793
				c9.436,0,18.869,0,28.305,0c0-0.148,0-0.299,0-0.449c-1.338-4.213-3.398-7.551-5.316-11.082
				c-1.873-3.453-4.088-7.139-3.967-12.432c0.461-0.777,1.316-1.24,1.871-1.947c1.129-1.436,2.254-3.547,2.621-5.766
				c0.551-3.318-0.193-7.292-1.873-9.211C72.812,41.308,69.838,39.99,66.256,39.517z"/>
			<path fill="#FFFFFF" d="M27.559,30.214h4.742v8.045l7.613-8.045h18.963V9.528H27.559V30.214z M27.992,9.958h30.455v19.825H39.729
				l-6.996,7.394v-7.394h-4.74V9.958z"/>
			<path fill="#FFFFFF" d="M27.129,9.097v21.549h4.742v8.696l8.23-8.696h19.207V9.097H27.129z M58.877,30.214H39.914l-7.613,8.045
				v-8.045h-4.742V9.528h31.318V30.214z"/>
		</g>
	</g>
	<path fill="#FFFFFF" d="M45.003,90.006C20.188,90.006,0,69.818,0,45.003C0,20.188,20.188,0,45.003,0s45.003,20.188,45.003,45.003
		C90.006,69.818,69.817,90.006,45.003,90.006z M45.003,1C20.739,1,1,20.74,1,45.003c0,24.263,19.739,44.003,44.003,44.003
		s44.003-19.74,44.003-44.003C89.006,20.74,69.267,1,45.003,1z"/>
</g>
</svg>
