<?xml version="1.0" encoding="utf-8"?>
<!-- Generator: Adobe Illustrator 15.1.0, SVG Export Plug-In . SVG Version: 6.00 Build 0)  -->
<!DOCTYPE svg PUBLIC "-//W3C//DTD SVG 1.1//EN" "http://www.w3.org/Graphics/SVG/1.1/DTD/svg11.dtd">
<svg version="1.1" xmlns="http://www.w3.org/2000/svg" xmlns:xlink="http://www.w3.org/1999/xlink" x="0px" y="0px"
	 width="90.006px" height="90.006px" viewBox="0 0 90.006 90.006" enable-background="new 0 0 90.006 90.006" xml:space="preserve">
<g id="Layer_1">
	<path fill="#D45000" d="M69.59,65.036L53.457,43.749l-0.722,0.895l14.509,19.082l-3.871,2.892L49.599,48.54l-3.871,4.807
		l14.369,18.898c0,0,8.883,3.876,9.752,4.201c0.868,0.324,1.496,0.07,1.327-1.025C71.01,74.325,69.59,65.036,69.59,65.036z
		 M67.047,73.918l-5.739-2.483l7.348-5.718l0.916,6.38L67.047,73.918z"/>
	<path fill="#D45000" d="M44.895,34.329l0.654-1.019L27.268,9.187c-0.36,0.178-0.717,0.36-1.071,0.549L44.895,34.329z"/>
	<path fill="#D45000" d="M42.096,38.696L22.004,12.334c-1.621,1.149-3.15,2.418-4.576,3.795L38.66,44.054L42.096,38.696z"/>
	<path fill="#D45000" d="M39.271,45.595c0,0,0.293,1.956,2.347,3.528c2.054,1.569,4.857,1.522,4.857,1.522
		s14.534-18.041,20.545-26.6c1.159-1.652,2.926-4.332,5.041-7.606c-2.446-2.419-5.214-4.512-8.228-6.222
		c-2.195,2.755-3.991,5.065-5.151,6.673C52.998,24.776,39.271,45.595,39.271,45.595z"/>
	<path fill="#D45000" d="M38.348,46.862c-1.522,1.994-4.239,7.764-5.691,9.891c0.734,2.609,3.711,4.626,5.871,4.146
		c1.752-2.073,4.945-6.455,6.959-9.094C43.1,52.028,39.459,50.099,38.348,46.862z"/>
	<path fill="#D45000" d="M33.537,61.181c-1.926-1.386-1.945-3.703-1.945-3.703c-1.994,0.267-3.375,1.515-4.775,3.345
		c-1.398,1.831-4.383,8.419-10.176,9.192c-2.281,0.307-2.908,0.879-2.908,0.879s2.102,3.395,8.045,3.758
		c5.947,0.365,8.572-0.444,12.814-3.43c4.24-2.984,3.037-6.916,3.566-8.727C36.545,62.711,35.463,62.565,33.537,61.181z"/>
</g>
<g id="Layer_2">
	<path fill="#D45000" d="M45.003,90.006C20.188,90.006,0,69.817,0,45.002C0,20.188,20.188,0,45.003,0
		c24.814,0,45.003,20.188,45.003,45.002C90.006,69.817,69.817,90.006,45.003,90.006z M45.003,1C20.739,1,1,20.739,1,45.002
		c0,24.265,19.739,44.004,44.003,44.004c24.264,0,44.003-19.739,44.003-44.004C89.006,20.739,69.267,1,45.003,1z"/>
</g>
</svg>
