<?xml version="1.0" encoding="utf-8"?>
<!-- Generator: Adobe Illustrator 15.1.0, SVG Export Plug-In . SVG Version: 6.00 Build 0)  -->
<!DOCTYPE svg PUBLIC "-//W3C//DTD SVG 1.1//EN" "http://www.w3.org/Graphics/SVG/1.1/DTD/svg11.dtd">
<svg version="1.1" id="Layer_1" xmlns="http://www.w3.org/2000/svg" xmlns:xlink="http://www.w3.org/1999/xlink" x="0px" y="0px"
	 width="90.006px" height="90.006px" viewBox="0 0 90.006 90.006" enable-background="new 0 0 90.006 90.006" xml:space="preserve">
<g>
	<g>
		<defs>
			<circle id="SVGID_1_" cx="44.326" cy="45.002" r="39.089"/>
		</defs>
		<clipPath id="SVGID_2_">
			<use xlink:href="#SVGID_1_"  overflow="visible"/>
		</clipPath>
		<g clip-path="url(#SVGID_2_)">
			<path fill-rule="evenodd" clip-rule="evenodd" fill="#FFFFFF" d="M43.401,22.78c-0.123,0.13-0.234,0.268-0.34,0.412
				C43.169,23.05,43.278,22.91,43.401,22.78z"/>
			<path fill-rule="evenodd" clip-rule="evenodd" fill="#FFFFFF" d="M57.116,22.137c0.021,0.073,0.037,0.147,0.066,0.22
				C57.155,22.284,57.138,22.21,57.116,22.137z"/>
			<path fill-rule="evenodd" clip-rule="evenodd" fill="#FFFFFF" d="M57.026,21.833c-0.043-0.209-0.066-0.424-0.066-0.646
				c0-0.718,0.234-1.378,0.623-1.92l-5.205-3.417c-0.357,0.404-0.873,0.664-1.453,0.664c-0.09,0-0.176-0.015-0.26-0.025
				l-2.049,5.372c0-0.001,0-0.001,0-0.001c0.891,0.441,1.611,1.168,2.049,2.059L57.026,21.833L57.026,21.833z"/>
			<path fill-rule="evenodd" clip-rule="evenodd" fill="#FFFFFF" d="M50.87,24.423c-0.008-0.021-0.02-0.045-0.027-0.068
				C50.851,24.378,50.862,24.4,50.87,24.423z"/>
			<path fill-rule="evenodd" clip-rule="evenodd" fill="#FFFFFF" d="M67.657,31.041c-0.449-1.874-0.26-3.812-0.395-5.39
				C66.147,12.503,58.696,8,45.706,6.461c-1.139,0-2.279,0-3.418,0c-6.289,0.829-11.51,3.145-14.852,6.966
				c-2.947,3.369-4.254,10.342-3.287,16.168c0.646,3.893,2.617,7.602,4.602,10.121c0.977,1.24,2.475,2.053,3.285,3.418
				c0.207,9.29-3.676,15.76-6.967,21.818c-3.365,6.199-6.982,12.059-9.332,19.453c0,0.264,0,0.526,0,0.789
				c16.562,0,33.123,0,49.688,0c-2.277-2.261-3.367-5.709-5.523-8.412c-1.746-2.191-5.16-4.09-5.389-7.492
				c-0.074-1.131,0.598-2.289,0.789-3.549c0.297-1.957-0.801-4.812,0-7.098c0.371-1.06,1.873-1.907,3.023-2.366
				c4.072-1.627,10.609,0.768,10.119-5.126c-0.068-0.839-0.729-1.734-0.658-2.629c0.08-0.935,1.229-1.297,1.316-1.972
				c0.076-0.563-0.514-0.788-0.658-1.446c1.852-0.336,1.072-2.176,0.791-3.68c1.307-0.447,2.617-0.887,3.285-1.972
				c0-0.351,0-0.701,0-1.052C71.167,35.758,68.392,34.111,67.657,31.041z M60.269,24.499c-1.238,0-2.305-0.689-2.873-1.698
				c0.002,0.001,0.002,0.003,0.004,0.005l-6.391,2.096c-0.008-0.037-0.021-0.07-0.029-0.105c0.084,0.342,0.139,0.695,0.139,1.064
				c0,1.639-0.889,3.056-2.201,3.837l1.311,3.437c0.217-0.039,0.439-0.068,0.67-0.068c1.4,0,2.617,0.753,3.295,1.869l3.951-2.836
				c-0.252-0.326-0.404-0.73-0.404-1.176c0-1.074,0.871-1.947,1.947-1.947s1.947,0.873,1.947,1.947c0,1.076-0.871,1.947-1.947,1.947
				c-0.443,0-0.844-0.152-1.17-0.398l0,0l-4.072,2.924c0.203,0.472,0.32,0.99,0.32,1.537c0,2.137-1.732,3.867-3.867,3.867
				c-2.137,0-3.869-1.73-3.869-3.867c0-1.539,0.906-2.855,2.207-3.479l-1.271-3.337c0.002-0.001,0.002-0.001,0.004-0.001
				c-0.422,0.131-0.863,0.223-1.328,0.223c-1.566,0-2.939-0.806-3.738-2.021l-6.516,3.992l0,0c0.049,0.244,0.076,0.497,0.076,0.756
				c0,2.137-1.732,3.867-3.867,3.867c-2.137,0-3.869-1.73-3.869-3.867c0-2.136,1.732-3.867,3.869-3.867
				c1.252,0,2.355,0.606,3.062,1.531c-0.002-0.001-0.002-0.002-0.002-0.002l6.59-4.039c-0.051-0.27-0.084-0.545-0.084-0.828
				c0-0.828,0.24-1.594,0.633-2.259l-4.18-3.069c0.002-0.001,0.002-0.002,0.004-0.004c-0.818,0.879-1.977,1.438-3.271,1.438
				c-2.475,0-4.479-2.005-4.479-4.479s2.004-4.478,4.479-4.478c2.473,0,4.479,2.004,4.479,4.478c0,0.806-0.23,1.55-0.602,2.202
				c0,0,0-0.001,0-0.002l4.189,3.078c0.816-0.85,1.957-1.384,3.227-1.384c0.527,0,1.029,0.108,1.5,0.276h-0.002l2.02-5.301
				c-0.695-0.299-1.182-0.988-1.182-1.791c0-1.074,0.873-1.946,1.949-1.946c1.074,0,1.947,0.872,1.947,1.946
				c0,0.308-0.078,0.594-0.205,0.852l5.25,3.445c0.6-0.608,1.432-0.986,2.352-0.986c1.83,0,3.311,1.482,3.311,3.31
				C63.579,23.017,62.099,24.499,60.269,24.499z"/>
			<path fill-rule="evenodd" clip-rule="evenodd" fill="#FFFFFF" d="M49.632,33.294c0.068-0.023,0.141-0.045,0.211-0.064
				C49.772,33.249,49.7,33.271,49.632,33.294z"/>
			<path fill-rule="evenodd" clip-rule="evenodd" fill="#FFFFFF" d="M36.202,31.706c0.062,0.162,0.117,0.328,0.156,0.5
				C36.317,32.034,36.265,31.866,36.202,31.706z"/>
			<path fill-rule="evenodd" clip-rule="evenodd" fill="#FFFFFF" d="M35.894,31.073c0.078,0.128,0.152,0.26,0.215,0.398
				C36.044,31.334,35.972,31.2,35.894,31.073z"/>
			<polygon fill="#FFFFFF" points="50.757,14.787 50.763,14.77 50.753,14.785 			"/>
			
				<rect x="50.75" y="14.778" transform="matrix(0.3162 -0.9487 0.9487 0.3162 20.6882 58.2599)" fill="#FFFFFF" width="0.019" height="0"/>
			<path fill="#FFFFFF" d="M38.618,20.528c-0.818,0.879-1.977,1.438-3.271,1.438c-2.475,0-4.479-2.005-4.479-4.479
				s2.004-4.478,4.479-4.478c2.473,0,4.479,2.004,4.479,4.478c0,0.806-0.23,1.55-0.602,2.202c0,0,0-0.001,0-0.002l0.432,0.318
				c0.436-0.74,0.689-1.6,0.689-2.519c0-2.756-2.242-4.999-4.998-4.999s-5,2.243-5,4.999c0,2.757,2.244,4.999,5,4.999
				c1.463,0,2.777-0.637,3.693-1.643l-0.426-0.312C38.616,20.531,38.616,20.53,38.618,20.528z"/>
			<path fill="#FFFFFF" d="M39.224,19.688c0,0.001,0,0.002,0,0.002c-0.172,0.303-0.371,0.586-0.605,0.838
				c-0.002,0.002-0.002,0.003-0.004,0.004l0.426,0.312c0.232-0.257,0.439-0.537,0.615-0.838L39.224,19.688z"/>
			<path fill="#FFFFFF" d="M39.825,17.488c0-2.474-2.006-4.478-4.479-4.478c-2.475,0-4.479,2.004-4.479,4.478
				s2.004,4.479,4.479,4.479c1.295,0,2.453-0.56,3.271-1.438c0.234-0.252,0.432-0.535,0.605-0.838
				C39.595,19.038,39.825,18.294,39.825,17.488z M35.347,21.446c-2.184,0-3.959-1.775-3.959-3.958s1.775-3.958,3.959-3.958
				c2.182,0,3.959,1.775,3.959,3.958S37.528,21.446,35.347,21.446z"/>
			<path fill="#FFFFFF" d="M38.618,20.528c0.234-0.252,0.434-0.535,0.605-0.838C39.05,19.993,38.853,20.276,38.618,20.528z"/>
			<path fill="#FFFFFF" d="M50.897,33.065c1.4,0,2.617,0.753,3.295,1.869l-0.424,0.303c0,0.001,0,0.001,0,0.001l0.848-0.608
				c-0.775-1.246-2.146-2.084-3.719-2.084c-0.297,0-0.582,0.031-0.861,0.087l0.191,0.501C50.444,33.095,50.667,33.065,50.897,33.065
				z"/>
			<path fill="#FFFFFF" d="M49.843,33.229c-0.07,0.02-0.143,0.041-0.211,0.064C49.7,33.271,49.772,33.249,49.843,33.229z"/>
			<path fill="#FFFFFF" d="M54.864,35.091l-0.854,0.615l0.434-0.311c0.203,0.472,0.32,0.99,0.32,1.537
				c0,2.137-1.732,3.867-3.867,3.867c-2.137,0-3.869-1.73-3.869-3.867c0-1.539,0.906-2.855,2.207-3.479l-0.186-0.486
				c-1.494,0.699-2.541,2.208-2.541,3.965c0,2.42,1.971,4.388,4.389,4.388c2.42,0,4.387-1.968,4.387-4.388
				C55.284,36.272,55.128,35.653,54.864,35.091z"/>
			<path fill="#FFFFFF" d="M49.632,33.294c0.068-0.023,0.141-0.045,0.211-0.064c0.127-0.036,0.254-0.073,0.385-0.096l-0.191-0.501
				c-0.348,0.069-0.674,0.188-0.986,0.335l0.186,0.486C49.364,33.393,49.497,33.341,49.632,33.294z"/>
			<path fill="#FFFFFF" d="M54.444,35.396l-0.434,0.311l-0.004,0.002c0.15,0.381,0.238,0.792,0.238,1.225
				c0,1.846-1.5,3.348-3.348,3.348s-3.348-1.502-3.348-3.348c0-1.845,1.5-3.348,3.348-3.348c1.225,0,2.289,0.67,2.871,1.652
				l0.424-0.303c-0.678-1.116-1.895-1.869-3.295-1.869c-0.23,0-0.453,0.029-0.67,0.068l0,0c-0.131,0.023-0.26,0.059-0.385,0.096
				c-0.07,0.02-0.143,0.041-0.211,0.064c-0.135,0.049-0.268,0.1-0.396,0.16l0,0c-1.301,0.623-2.207,1.939-2.207,3.479
				c0,2.137,1.732,3.867,3.869,3.867c2.135,0,3.867-1.73,3.867-3.867C54.765,36.386,54.647,35.867,54.444,35.396z"/>
			<path fill="#FFFFFF" d="M50.228,33.134L50.228,33.134c-0.131,0.022-0.258,0.06-0.385,0.096
				C49.968,33.192,50.097,33.157,50.228,33.134z"/>
			<path fill="#FFFFFF" d="M49.632,33.294c-0.135,0.047-0.268,0.099-0.396,0.16l0,0C49.364,33.394,49.497,33.343,49.632,33.294z"/>
			<path fill="#FFFFFF" d="M54.864,35.091c-0.072-0.158-0.156-0.312-0.248-0.461l-0.848,0.608c0.09,0.151,0.172,0.306,0.238,0.47
				l0.004-0.002L54.864,35.091z"/>
			<polygon fill="#FFFFFF" points="54.011,35.706 54.007,35.708 54.007,35.708 			"/>
			<path fill="#FFFFFF" d="M36.202,31.706c0.062,0.162,0.117,0.328,0.156,0.5C36.317,32.034,36.265,31.866,36.202,31.706z"/>
			<path fill="#FFFFFF" d="M35.894,31.073c0.078,0.128,0.152,0.26,0.215,0.398C36.044,31.334,35.972,31.2,35.894,31.073z"/>
			<path fill="#FFFFFF" d="M36.386,32.31L36.386,32.31c0.049,0.244,0.076,0.497,0.076,0.756c0,2.137-1.732,3.867-3.867,3.867
				c-2.137,0-3.869-1.73-3.869-3.867c0-2.136,1.732-3.867,3.869-3.867c1.252,0,2.355,0.606,3.062,1.531
				c-0.002-0.001-0.002-0.002-0.002-0.002l0.445-0.272c-0.801-1.072-2.068-1.778-3.506-1.778c-2.42,0-4.389,1.969-4.389,4.389
				s1.969,4.387,4.389,4.387c2.418,0,4.387-1.967,4.387-4.387c0-0.358-0.057-0.703-0.137-1.037L36.386,32.31z"/>
			<path fill="#FFFFFF" d="M35.657,30.729c0.084,0.111,0.162,0.224,0.236,0.344c0.078,0.127,0.15,0.261,0.215,0.398
				c0.035,0.076,0.064,0.154,0.094,0.234c0.062,0.16,0.115,0.328,0.156,0.5c0.008,0.035,0.02,0.068,0.027,0.103v0.001l0.459-0.281
				c-0.143-0.579-0.398-1.109-0.744-1.573l-0.445,0.272C35.655,30.728,35.655,30.729,35.657,30.729z"/>
			<path fill="#FFFFFF" d="M36.358,32.206c-0.039-0.172-0.094-0.338-0.156-0.5c-0.031-0.079-0.057-0.159-0.094-0.234
				c-0.062-0.139-0.137-0.271-0.215-0.398c-0.074-0.119-0.152-0.233-0.236-0.344c-0.707-0.925-1.811-1.531-3.062-1.531
				c-2.137,0-3.869,1.731-3.869,3.867c0,2.137,1.732,3.867,3.869,3.867c2.135,0,3.867-1.73,3.867-3.867
				c0-0.259-0.027-0.512-0.076-0.757C36.378,32.274,36.366,32.241,36.358,32.206z M32.595,36.413c-1.848,0-3.348-1.502-3.348-3.348
				s1.5-3.348,3.348-3.348c1.846,0,3.346,1.502,3.346,3.348S34.44,36.413,32.595,36.413z"/>
			<path fill="#FFFFFF" d="M36.386,32.309c-0.008-0.034-0.02-0.067-0.027-0.103C36.366,32.241,36.378,32.274,36.386,32.309z"/>
			<path fill="#FFFFFF" d="M35.657,30.729c0.084,0.11,0.162,0.225,0.236,0.344C35.819,30.953,35.741,30.841,35.657,30.729z"/>
			<path fill="#FFFFFF" d="M36.202,31.706c-0.029-0.08-0.059-0.158-0.094-0.234C36.146,31.547,36.171,31.627,36.202,31.706z"/>
			<path fill="#FFFFFF" d="M41.642,25.86c0,0.385,0.047,0.758,0.131,1.117l0.473-0.289c-0.051-0.27-0.084-0.545-0.084-0.828
				c0-0.828,0.24-1.594,0.633-2.259l-0.43-0.315C41.909,24.04,41.642,24.918,41.642,25.86z"/>
			<path fill="#FFFFFF" d="M43.401,22.78c-0.123,0.13-0.234,0.268-0.34,0.412C43.169,23.05,43.278,22.91,43.401,22.78z"/>
			<path fill="#FFFFFF" d="M48.327,21.161c-0.527-0.189-1.094-0.299-1.688-0.299c-1.439,0-2.736,0.615-3.648,1.593l0.422,0.312
				c0.816-0.85,1.957-1.384,3.227-1.384c0.527,0,1.029,0.108,1.5,0.276h-0.002L48.327,21.161z"/>
			<path fill="#FFFFFF" d="M50.87,24.423c-0.008-0.021-0.02-0.045-0.027-0.068C50.851,24.378,50.862,24.4,50.87,24.423z"/>
			<path fill="#FFFFFF" d="M48.808,21.362l-0.191,0.499c0-0.001,0-0.001,0-0.001c0.891,0.441,1.611,1.168,2.049,2.059l0.504-0.164
				C50.679,22.712,49.843,21.864,48.808,21.362z"/>
			<path fill="#FFFFFF" d="M51.638,25.86c0-0.387-0.055-0.758-0.141-1.119l-0.488,0.16c-0.008-0.037-0.021-0.07-0.029-0.105
				c0.084,0.342,0.139,0.695,0.139,1.064c0,1.639-0.889,3.056-2.201,3.837l0.191,0.503C50.616,29.339,51.638,27.718,51.638,25.86z"
				/>
			<path fill="#FFFFFF" d="M47.968,30.116c-0.422,0.131-0.863,0.223-1.328,0.223c-1.566,0-2.939-0.806-3.738-2.021l0.443-0.272l0,0
				l-0.889,0.544c0.895,1.365,2.434,2.271,4.184,2.271c0.527,0,1.039-0.085,1.518-0.237l-0.193-0.505
				C47.966,30.116,47.966,30.116,47.968,30.116z"/>
			<path fill="#FFFFFF" d="M48.917,29.697c-0.295,0.177-0.613,0.314-0.949,0.419c-0.002,0-0.002,0-0.004,0.001l0.193,0.505
				c0.334-0.106,0.652-0.25,0.951-0.422L48.917,29.697z"/>
			<path fill="#FFFFFF" d="M51.497,24.741c-0.08-0.342-0.184-0.676-0.328-0.986l-0.504,0.164c0.066,0.142,0.125,0.287,0.178,0.436
				c0.008,0.023,0.02,0.047,0.027,0.068c0.041,0.123,0.076,0.246,0.109,0.373c0.008,0.035,0.021,0.068,0.029,0.105L51.497,24.741z"
				/>
			<path fill="#FFFFFF" d="M48.808,21.362c-0.158-0.074-0.316-0.141-0.48-0.201l-0.189,0.498h0.002
				c0.164,0.059,0.322,0.125,0.477,0.201c0,0,0,0,0,0.001L48.808,21.362z"/>
			<path fill="#FFFFFF" d="M42.364,23.286l0.43,0.315c0.084-0.142,0.17-0.278,0.268-0.409c0.105-0.145,0.217-0.282,0.34-0.412
				c0.004-0.004,0.008-0.01,0.012-0.014l-0.422-0.312C42.755,22.709,42.544,22.987,42.364,23.286z"/>
			<path fill="#FFFFFF" d="M48.917,29.697c1.312-0.781,2.201-2.198,2.201-3.837c0-0.369-0.055-0.723-0.139-1.064
				c-0.033-0.127-0.066-0.251-0.109-0.373c-0.008-0.022-0.02-0.045-0.027-0.068c-0.055-0.146-0.117-0.292-0.184-0.434l0.006-0.002
				c-0.438-0.891-1.158-1.617-2.049-2.059c-0.154-0.076-0.312-0.143-0.477-0.201c-0.471-0.168-0.973-0.276-1.5-0.276
				c-1.27,0-2.41,0.534-3.227,1.384c-0.004,0.004-0.008,0.01-0.012,0.014c-0.123,0.13-0.232,0.27-0.34,0.412
				c-0.096,0.132-0.186,0.268-0.268,0.409c-0.393,0.665-0.633,1.431-0.633,2.259c0,0.283,0.033,0.559,0.084,0.828l0.49-0.301
				c-0.023-0.174-0.053-0.347-0.053-0.527c0-2.182,1.773-3.957,3.957-3.957s3.957,1.775,3.957,3.957
				c0,2.184-1.773,3.959-3.957,3.959c-1.375,0-2.586-0.707-3.295-1.774l-0.443,0.272c0.799,1.216,2.172,2.021,3.738,2.021
				c0.465,0,0.906-0.092,1.328-0.223C48.304,30.012,48.622,29.874,48.917,29.697L48.917,29.697z"/>
			<path fill="#FFFFFF" d="M48.917,29.697c-0.295,0.177-0.613,0.314-0.949,0.419C48.304,30.012,48.622,29.874,48.917,29.697
				L48.917,29.697z"/>
			<path fill="#FFFFFF" d="M50.843,24.354c-0.053-0.148-0.111-0.294-0.178-0.436l-0.006,0.002
				C50.726,24.062,50.788,24.208,50.843,24.354z"/>
			<path fill="#FFFFFF" d="M50.979,24.796c-0.033-0.127-0.068-0.25-0.109-0.373C50.913,24.545,50.946,24.669,50.979,24.796z"/>
			<path fill="#FFFFFF" d="M48.14,21.659c0.164,0.059,0.322,0.125,0.477,0.201C48.462,21.784,48.304,21.718,48.14,21.659z"/>
			<polygon fill="#FFFFFF" points="43.413,22.767 43.413,22.767 43.401,22.78 			"/>
			<path fill="#FFFFFF" d="M43.062,23.192c-0.098,0.131-0.184,0.268-0.268,0.409l0,0C42.876,23.46,42.966,23.324,43.062,23.192z"/>
			<path fill="#FFFFFF" d="M42.245,26.688l-0.473,0.289c0.133,0.583,0.367,1.125,0.684,1.611l0.889-0.544
				c-0.324-0.486-0.527-1.052-0.609-1.657L42.245,26.688L42.245,26.688z"/>
			<rect x="42.49" y="26.251" fill="#FFFFFF" width="0" height="0.575"/>
			<path fill="#FFFFFF" d="M57.026,21.833c-0.043-0.209-0.066-0.424-0.066-0.646c0-0.718,0.234-1.378,0.623-1.92l-0.434-0.285
				c-0.443,0.624-0.709,1.383-0.709,2.205c0,0.277,0.031,0.548,0.09,0.808L57.026,21.833L57.026,21.833z"/>
			<path fill="#FFFFFF" d="M57.116,22.137c0.021,0.073,0.037,0.147,0.066,0.22C57.155,22.284,57.138,22.21,57.116,22.137z"/>
			<path fill="#FFFFFF" d="M60.269,17.358c-1.104,0-2.088,0.474-2.787,1.221l0.436,0.285c0.6-0.608,1.432-0.986,2.352-0.986
				c1.83,0,3.311,1.482,3.311,3.31c0,1.829-1.48,3.312-3.311,3.312c-1.238,0-2.305-0.689-2.873-1.698
				c0.002,0.001,0.002,0.003,0.004,0.005l-0.498,0.163c0.641,1.212,1.902,2.05,3.367,2.05c2.113,0,3.83-1.719,3.83-3.831
				C64.099,19.076,62.382,17.358,60.269,17.358z"/>
			<path fill="#FFFFFF" d="M57.396,22.801c-0.08-0.144-0.152-0.29-0.213-0.444c-0.029-0.072-0.045-0.146-0.066-0.22
				c-0.031-0.101-0.07-0.198-0.09-0.304l0,0l-0.496,0.162c0.074,0.348,0.207,0.668,0.371,0.974l0.498-0.163
				C57.397,22.804,57.397,22.802,57.396,22.801z"/>
			<path fill="#FFFFFF" d="M57.917,18.864l-0.436-0.285c-0.119,0.127-0.23,0.261-0.332,0.403l0.434,0.285
				C57.685,19.126,57.796,18.987,57.917,18.864z"/>
			<path fill="#FFFFFF" d="M60.269,17.878c-0.92,0-1.752,0.378-2.352,0.986c-0.121,0.124-0.232,0.262-0.334,0.403
				c-0.389,0.542-0.623,1.202-0.623,1.92c0,0.222,0.023,0.437,0.066,0.646c0.02,0.105,0.057,0.203,0.09,0.304
				c0.021,0.073,0.039,0.147,0.066,0.22c0.061,0.152,0.133,0.301,0.213,0.444c0.568,1.009,1.635,1.698,2.873,1.698
				c1.83,0,3.311-1.482,3.311-3.312C63.579,19.36,62.099,17.878,60.269,17.878z M60.269,23.978c-1.537,0-2.789-1.252-2.789-2.79
				s1.252-2.79,2.789-2.79c1.539,0,2.791,1.252,2.791,2.79S61.808,23.978,60.269,23.978z"/>
			<path fill="#FFFFFF" d="M57.026,21.833c0.02,0.105,0.059,0.203,0.09,0.304C57.083,22.036,57.046,21.938,57.026,21.833z"/>
			<path fill="#FFFFFF" d="M57.396,22.801c-0.08-0.144-0.152-0.292-0.213-0.444C57.243,22.511,57.315,22.657,57.396,22.801z"/>
			<path fill="#FFFFFF" d="M57.917,18.864L57.917,18.864c-0.121,0.123-0.232,0.262-0.334,0.403l0,0
				C57.685,19.126,57.796,18.988,57.917,18.864z"/>
			<path fill="#FFFFFF" d="M53.13,14.567c0-1.217-0.988-2.207-2.205-2.207c-1.219,0-2.207,0.99-2.207,2.207
				c0,0.913,0.557,1.699,1.348,2.034l0.186-0.488l0,0l-0.094,0.245c-0.695-0.299-1.182-0.988-1.182-1.791
				c0-1.074,0.873-1.946,1.949-1.946c1.074,0,1.947,0.872,1.947,1.946c0,0.308-0.078,0.594-0.205,0.852l0.217,0.143
				C53.036,15.261,53.13,14.927,53.13,14.567z"/>
			<path fill="#FFFFFF" d="M50.925,16.515c-0.09,0-0.176-0.015-0.26-0.025l-0.098,0.25c0.117,0.02,0.234,0.035,0.357,0.035
				c0.67,0,1.266-0.307,1.672-0.781l-0.219-0.143C52.021,16.255,51.505,16.515,50.925,16.515z"/>
			<path fill="#FFFFFF" d="M52.667,15.419c-0.076,0.158-0.174,0.303-0.289,0.432l0.219,0.143c0.109-0.131,0.209-0.275,0.287-0.432
				L52.667,15.419z"/>
			<path fill="#FFFFFF" d="M52.667,15.419L52.667,15.419c0.127-0.258,0.205-0.544,0.205-0.852c0-1.074-0.873-1.946-1.947-1.946
				c-1.076,0-1.949,0.872-1.949,1.946c0,0.803,0.486,1.492,1.182,1.791l0.094-0.245c-0.596-0.261-1.014-0.854-1.014-1.546
				c0-0.93,0.756-1.688,1.688-1.688c0.928,0,1.688,0.758,1.688,1.688c0,0.931-0.76,1.688-1.688,1.688
				c-0.057,0-0.111-0.012-0.166-0.016l-0.094,0.25c0.084,0.011,0.17,0.025,0.26,0.025c0.58,0,1.096-0.26,1.453-0.664l0,0
				C52.493,15.722,52.591,15.577,52.667,15.419z"/>
			<path fill="#FFFFFF" d="M52.667,15.419c-0.076,0.158-0.174,0.303-0.289,0.432l0,0C52.493,15.722,52.591,15.577,52.667,15.419
				L52.667,15.419z"/>
			<path fill="#FFFFFF" d="M50.759,16.239c-0.18-0.019-0.348-0.057-0.508-0.126l-0.186,0.488c0.158,0.067,0.328,0.109,0.502,0.138
				l0.098-0.25l0,0L50.759,16.239z"/>
			
				<rect x="50.578" y="16.364" transform="matrix(0.3511 -0.9363 0.9363 0.3511 17.5834 58.1014)" fill="#FFFFFF" width="0.267" height="0"/>
			<path fill="#FFFFFF" d="M59.687,28.456c-1.363,0-2.469,1.107-2.469,2.467c0,0.558,0.191,1.065,0.504,1.479l0.422-0.303
				c-0.252-0.326-0.404-0.73-0.404-1.176c0-1.074,0.871-1.947,1.947-1.947s1.947,0.873,1.947,1.947c0,1.076-0.871,1.947-1.947,1.947
				c-0.443,0-0.844-0.152-1.17-0.398l0,0l-0.436,0.312c0.434,0.374,0.99,0.607,1.605,0.607c1.359,0,2.467-1.106,2.467-2.468
				C62.153,29.563,61.046,28.456,59.687,28.456z"/>
			<path fill="#FFFFFF" d="M58.517,32.472c-0.143-0.107-0.266-0.232-0.373-0.373l-0.422,0.303c0.107,0.141,0.227,0.267,0.359,0.382
				L58.517,32.472L58.517,32.472z"/>
			<path fill="#FFFFFF" d="M59.687,28.976c-1.076,0-1.947,0.873-1.947,1.947c0,0.445,0.152,0.85,0.404,1.176l0,0
				c0.107,0.141,0.23,0.266,0.373,0.373c0.326,0.246,0.727,0.398,1.17,0.398c1.076,0,1.947-0.871,1.947-1.947
				C61.634,29.849,60.763,28.976,59.687,28.976z M59.687,32.351c-0.787,0-1.428-0.641-1.428-1.428s0.641-1.427,1.428-1.427
				s1.426,0.64,1.426,1.427S60.474,32.351,59.687,32.351z"/>
			<path fill="#FFFFFF" d="M58.144,32.099c0.107,0.141,0.23,0.266,0.373,0.373C58.374,32.364,58.251,32.239,58.144,32.099
				L58.144,32.099z"/>
		</g>
	</g>
	<path fill="#FFFFFF" d="M45.003,90.006C20.188,90.006,0,69.817,0,45.002C0,20.188,20.188,0,45.003,0s45.003,20.188,45.003,45.002
		C90.006,69.817,69.817,90.006,45.003,90.006z M45.003,1C20.739,1,1,20.739,1,45.002c0,24.264,19.739,44.004,44.003,44.004
		s44.003-19.74,44.003-44.004C89.006,20.739,69.267,1,45.003,1z"/>
</g>
</svg>
