<?xml version="1.0" encoding="utf-8"?>
<!-- Generator: Adobe Illustrator 15.1.0, SVG Export Plug-In . SVG Version: 6.00 Build 0)  -->
<!DOCTYPE svg PUBLIC "-//W3C//DTD SVG 1.1//EN" "http://www.w3.org/Graphics/SVG/1.1/DTD/svg11.dtd">
<svg version="1.1" id="Layer_1" xmlns="http://www.w3.org/2000/svg" xmlns:xlink="http://www.w3.org/1999/xlink" x="0px" y="0px"
	 width="90.006px" height="90.006px" viewBox="0 0 90.006 90.006" enable-background="new 0 0 90.006 90.006" xml:space="preserve">
<g>
	<g>
		<g>
			<path fill="#FFFFFF" d="M46.968,79.034c0,0.907-0.736,1.648-1.643,1.648c-0.904,0-1.646-0.741-1.646-1.648
				c0-0.91,0.742-1.646,1.646-1.646C46.231,77.388,46.968,78.124,46.968,79.034z"/>
			<path fill="#FFFFFF" d="M47.263,55.979c0,1.086-0.881,1.973-1.971,1.973c-1.088,0-1.965-0.887-1.965-1.973
				c0-1.083,0.877-1.961,1.965-1.961C46.382,54.018,47.263,54.896,47.263,55.979z"/>
			<path fill="#FFFFFF" d="M45.325,32.446c0,0.91-0.736,1.643-1.646,1.643c-0.908,0-1.643-0.732-1.643-1.643
				c0-0.905,0.734-1.646,1.643-1.646C44.589,30.8,45.325,31.541,45.325,32.446z"/>
			<path fill="#FFFFFF" d="M48.29,36.784c0,0.91-0.734,1.65-1.645,1.65c-0.906,0-1.643-0.74-1.643-1.65
				c0-0.905,0.736-1.645,1.643-1.645C47.556,35.14,48.29,35.879,48.29,36.784z"/>
		</g>
		<path fill="#FFFFFF" d="M69.548,55.882l-0.004-0.027c-0.006-0.062-0.018-0.122-0.023-0.186c-0.064-0.453-0.121-0.867-0.168-1.185
			c-0.023-0.159-0.039-0.323-0.07-0.482c-0.012-0.078-0.021-0.134-0.021-0.134l-0.008,0.002c-1.66-8.897-8.219-16.281-16.939-18.937
			V13.013c1.648-0.035,2.977-1.564,2.977-3.425c0-1.886-1.365-3.424-3.041-3.424H38.138c-1.676,0-3.041,1.538-3.041,3.424
			c0,1.86,1.326,3.39,2.977,3.425v21.921c-8.545,2.602-15.004,9.749-16.828,18.401l-0.018-0.005c0,0-0.027,0.167-0.072,0.435
			c-0.053,0.291-0.1,0.581-0.143,0.874c-0.229,1.403-0.555,3.493-0.555,3.995c0,13.607,11.123,24.393,24.734,24.393
			s24.676-10.431,24.676-24.041C69.868,58.414,69.706,57.058,69.548,55.882z M33.263,69.222c-1.932,0-3.5-1.563-3.5-3.501
			s1.568-3.508,3.5-3.508c1.939,0,3.512,1.57,3.512,3.508S35.202,69.222,33.263,69.222z M49.79,62.047
			c-1.424,0-2.576-1.151-2.576-2.576c0-1.419,1.152-2.575,2.576-2.575s2.578,1.156,2.578,2.575
			C52.368,60.896,51.214,62.047,49.79,62.047z M62.286,62.487c-0.832,0-1.506-0.68-1.506-1.511c0-0.83,0.674-1.506,1.506-1.506
			c0.834,0,1.508,0.676,1.508,1.506C63.794,61.808,63.12,62.487,62.286,62.487z M63.872,52.608
			c-0.168,0.201-0.414,0.507-0.578,0.561c-0.102-0.054-0.355-0.359-0.523-0.561c-0.676-0.805-1.805-2.161-3.988-2.161
			s-3.316,1.356-3.988,2.161c-0.17,0.203-0.418,0.507-0.568,0.561c-0.105-0.054-0.354-0.357-0.521-0.561
			c-0.676-0.805-1.803-2.161-3.986-2.161s-3.309,1.356-3.988,2.161c-0.164,0.203-0.42,0.507-0.566,0.561
			c-0.1-0.054-0.354-0.357-0.52-0.556c-0.674-0.81-1.805-2.166-3.984-2.166c-2.184,0-3.311,1.358-3.984,2.166
			c-0.166,0.198-0.412,0.502-0.557,0.556c-0.102-0.054-0.354-0.357-0.521-0.556c-0.674-0.808-1.809-2.166-3.99-2.166
			c-2.178,0-3.305,1.356-3.982,2.166c-0.162,0.198-0.418,0.502-0.559,0.556c-0.105-0.054-0.357-0.357-0.521-0.556
			c-0.467-0.555-1.156-1.366-2.244-1.82c2.449-6.726,8.072-12.038,15.18-13.929l0.832-0.217V10.772h-2.174
			c-0.381,0-0.799-0.487-0.799-1.185c0-0.7,0.418-1.182,0.799-1.182h14.111c0.375,0,0.799,0.481,0.799,1.182
			c0,0.697-0.424,1.185-0.799,1.185h-2.178v25.875l0.834,0.217c7.111,1.891,12.738,7.212,15.189,13.939
			C65.019,51.259,64.333,52.06,63.872,52.608z"/>
	</g>
	<path fill="#FFFFFF" d="M45.003,90.006C20.188,90.006,0,69.817,0,45.003C0,20.188,20.188,0,45.003,0s45.003,20.188,45.003,45.003
		C90.006,69.817,69.817,90.006,45.003,90.006z M45.003,1C20.739,1,1,20.74,1,45.003c0,24.264,19.739,44.003,44.003,44.003
		s44.003-19.739,44.003-44.003C89.006,20.74,69.267,1,45.003,1z"/>
</g>
</svg>
