<?xml version="1.0" encoding="utf-8"?>
<!-- Generator: Adobe Illustrator 15.1.0, SVG Export Plug-In . SVG Version: 6.00 Build 0)  -->
<!DOCTYPE svg PUBLIC "-//W3C//DTD SVG 1.1//EN" "http://www.w3.org/Graphics/SVG/1.1/DTD/svg11.dtd">
<svg version="1.1" id="Layer_1" xmlns="http://www.w3.org/2000/svg" xmlns:xlink="http://www.w3.org/1999/xlink" x="0px" y="0px"
	 width="294.086px" height="82.044px" viewBox="0 0 294.086 82.044" enable-background="new 0 0 294.086 82.044"
	 xml:space="preserve">
<g>
	<path d="M52.13,47.568c-1.132,5.381-5.178,8.293-10.112,8.293c-4.529,0-7.646-2.67-9.021-5.178
		c-0.93-1.699-1.253-2.549-1.253-9.466s0.323-7.767,1.253-9.466c1.375-2.508,4.491-5.178,9.021-5.178
		c5.462,0,9.224,3.843,10.112,8.535h-4.611c-0.687-2.225-2.75-4.166-5.501-4.166c-2.063,0-3.56,0.971-4.449,2.104
		c-1.133,1.456-1.456,2.265-1.456,8.171c0,5.905,0.323,6.714,1.456,8.171c0.89,1.133,2.386,2.104,4.449,2.104
		c2.428,0,4.289-1.336,5.501-3.924H52.13z"/>
	<path d="M64.173,29.243c1.148-1.272,3.077-2.669,6.32-2.669c3.242,0,5.172,1.396,6.321,2.669c1.601,1.765,2.258,3.489,2.258,7.963
		c0,4.516-0.657,6.239-2.258,8.005c-1.149,1.271-3.079,2.668-6.321,2.668c-3.243,0-5.172-1.396-6.32-2.668
		c-1.603-1.766-2.259-3.489-2.259-8.005C61.914,32.732,62.57,31.008,64.173,29.243z M73.859,32.28
		c-0.615-0.862-1.93-1.519-3.366-1.519s-2.75,0.656-3.365,1.519c-0.78,1.108-1.027,1.93-1.027,4.926
		c0,3.038,0.247,3.858,1.027,4.967c0.615,0.862,1.929,1.519,3.365,1.519s2.751-0.656,3.366-1.519
		c0.78-1.108,1.025-1.929,1.025-4.925C74.885,34.21,74.64,33.389,73.859,32.28z"/>
	<path d="M91.602,26.816h10.071c3.803,0,6.917,1.699,8.777,4.855c1.416,2.426,1.537,3.519,1.537,9.546
		c0,6.472-0.323,7.604-1.617,9.628c-1.699,2.668-4.692,4.771-8.979,4.771h-9.789V26.816z M95.97,51.492h5.219
		c2.467,0,4.207-0.85,5.339-2.508c0.971-1.457,1.092-2.266,1.092-7.605c0-5.178-0.121-6.432-1.294-8.009
		c-1.335-1.82-2.791-2.427-5.137-2.427H95.97V51.492z"/>
	<path d="M125.17,26.816h18.403v4.127h-14.035v8.211h11.974v3.883h-11.974v8.455h14.035v4.125H125.17V26.816z"/>
	<path d="M156.109,48.619c2.185,1.74,5.097,2.873,8.171,2.873c3.56,0,5.703-1.617,5.703-4.004c0-2.023-1.173-3.561-3.762-3.885
		c-1.294-0.162-2.305-0.322-3.803-0.525c-4.975-0.688-7.645-3.924-7.645-8.09c0-4.936,3.438-8.414,9.385-8.414
		c3.56,0,6.715,1.254,9.344,2.994l-2.427,3.6c-2.104-1.335-4.571-2.225-7.119-2.225c-2.67,0-4.813,1.375-4.813,4.125
		c0,1.619,1.173,3.236,4.085,3.682c0.769,0.121,1.861,0.283,3.236,0.445c5.38,0.646,7.887,4.369,7.887,8.293
		c0,5.297-3.923,8.373-10.112,8.373c-4.247,0-7.969-1.295-11.002-3.965L156.109,48.619z"/>
	<path d="M187.048,26.816h4.369v28.801h-4.369V26.816z"/>
	<path d="M214.914,39.762h10.233v5.865c0,5.703-4.53,10.234-10.273,10.234c-4.53,0-7.646-2.67-9.021-5.178
		c-0.931-1.699-1.254-2.549-1.254-9.466s0.323-7.767,1.254-9.466c1.375-2.508,4.49-5.178,9.021-5.178
		c5.461,0,9.223,3.843,10.112,8.535h-4.611c-0.688-2.225-2.751-4.166-5.501-4.166c-2.063,0-3.56,0.971-4.45,2.104
		c-1.132,1.456-1.455,2.265-1.455,8.171c0,5.905,0.323,6.714,1.455,8.171c0.891,1.133,2.387,2.104,4.45,2.104
		c3.316,0,5.905-2.508,5.905-6.107v-1.498h-5.865V39.762z"/>
	<path d="M238.331,26.816h4.125l13.025,20.469h0.081V26.816h4.368v28.801h-4.126L242.779,35.15h-0.08v20.467h-4.368V26.816z"/>
	<rect x="62.811" y="51.809" width="15.333" height="3.809"/>
</g>
<polygon points="0,4.142 0,78.084 129.311,78.084 129.311,76.084 2,76.084 2,6.142 129.311,6.142 129.311,4.142 "/>
<polygon points="163.977,4.142 163.977,6.142 292.086,6.142 292.086,76.084 163.977,76.084 163.977,78.084 294.086,78.084 
	294.086,4.142 "/>
<g>
	<path d="M136.996,10.184h-1.803V1.659h-3.23V0h8.264v1.659h-3.23V10.184z"/>
	<path d="M143.912,5.893v4.291h-1.789V0h1.789v4.234h4.859V0h1.789v10.184h-1.789V5.893H143.912z"/>
	<path d="M160.736,1.6h-5.762v2.648h5.107v1.599h-5.107v2.737h5.834v1.6h-7.623V0h7.551V1.6z"/>
</g>
<g>
	<path d="M132.691,71.859h1.789v8.555h5.354v1.63h-7.143V71.859z"/>
	<path d="M151.448,82.044h-1.892l-1.033-2.46h-4.815l-1.048,2.46h-1.832l4.48-10.259h1.658L151.448,82.044z M146.108,73.925
		l-1.745,4.074h3.506L146.108,73.925z"/>
	<path d="M161.114,74.463c0,1.252-0.698,1.893-1.456,2.284c1.194,0.408,2.023,1.091,2.023,2.488c0,1.831-1.498,2.809-3.768,2.809
		H153.2V71.859h4.567C159.82,71.859,161.114,72.862,161.114,74.463z M159.324,74.753c0-0.828-0.64-1.308-1.789-1.308h-2.574v2.705
		h2.443C158.554,76.15,159.324,75.7,159.324,74.753z M159.892,79.047c0-0.874-0.684-1.382-2.095-1.382h-2.836v2.793h2.967
		C159.15,80.458,159.892,79.978,159.892,79.047z"/>
</g>
</svg>
