<?xml version="1.0" encoding="utf-8"?>
<!-- Generator: Adobe Illustrator 15.1.0, SVG Export Plug-In . SVG Version: 6.00 Build 0)  -->
<!DOCTYPE svg PUBLIC "-//W3C//DTD SVG 1.1//EN" "http://www.w3.org/Graphics/SVG/1.1/DTD/svg11.dtd">
<svg version="1.1" id="Layer_1" xmlns="http://www.w3.org/2000/svg" xmlns:xlink="http://www.w3.org/1999/xlink" x="0px" y="0px"
	 width="76px" height="66px" viewBox="0 0 76 66" enable-background="new 0 0 76 66" xml:space="preserve">
<path fill="#FFFFFF" d="M71,10H5c-2.761,0-5-2.239-5-5s2.239-5,5-5h66c2.761,0,5,2.239,5,5S73.761,10,71,10z"/>
<path fill="#FFFFFF" d="M71,38H5c-2.761,0-5-2.239-5-5s2.239-5,5-5h66c2.761,0,5,2.239,5,5S73.761,38,71,38z"/>
<path fill="#FFFFFF" d="M71,66H5c-2.761,0-5-2.239-5-5s2.239-5,5-5h66c2.761,0,5,2.239,5,5S73.761,66,71,66z"/>
</svg>
